<?xml version="1.0" encoding="UTF-8"?>
<!DOCTYPE svg PUBLIC "-//W3C//DTD SVG 1.1//EN" "http://www.w3.org/Graphics/SVG/1.1/DTD/svg11.dtd">
<!-- Creator: CorelDRAW 2017 -->
<svg xmlns="http://www.w3.org/2000/svg" xml:space="preserve" width="446px" height="289px" version="1.1" style="shape-rendering:geometricPrecision; text-rendering:geometricPrecision; image-rendering:optimizeQuality; fill-rule:evenodd; clip-rule:evenodd"
viewBox="0 0 437 283"
 xmlns:xlink="http://www.w3.org/1999/xlink">
 <defs>
  <style type="text/css">
   <![CDATA[
    .fil1 {fill:white}
    .fil0 {fill:#2B914F;fill-rule:nonzero}
   ]]>
  </style>
 </defs>
 <g id="Layer_x0020_1">
  <metadata id="CorelCorpID_0Corel-Layer"/>
  <g id="_1620322002464">
   <path class="fil0" d="M29 0l379 0c8,0 15,3 21,9 5,5 9,13 9,21l0 225c0,8 -3,15 -9,21 -5,5 -13,9 -21,9l-379 0c-8,0 -15,-3 -21,-9 -5,-5 -9,-13 -9,-21l0 -225c0,-8 3,-15 9,-21 5,-5 13,-9 21,-9zm379 11l-379 0c-5,0 -10,2 -13,5 -3,3 -5,8 -5,13l0 225c0,5 2,10 5,13 3,3 8,5 13,5l379 0c5,0 10,-2 13,-5 3,-3 5,-8 5,-13l0 -225c0,-5 -2,-10 -5,-13 -3,-3 -8,-5 -13,-5z"/>
   <path class="fil1" d="M197 142l0 81c0,1 1,2 2,2l30 0c1,0 2,-1 2,-2l0 -82 22 0c1,0 2,-1 2,-2l2 -25c0,-1 -1,-2 -2,-2l-24 0 0 -18c0,-4 3,-7 7,-7l17 0c1,0 2,-1 2,-2l0 -25c0,-1 -1,-2 -2,-2l-28 0c-17,0 -30,13 -30,30l0 24 -15 0c-1,0 -2,1 -2,2l0 25c0,1 1,2 2,2l15 0 0 1 0 0z"/>
  </g>
 </g>
</svg>
