<?xml version="1.0" encoding="UTF-8"?>
<!DOCTYPE svg PUBLIC "-//W3C//DTD SVG 1.1//EN" "http://www.w3.org/Graphics/SVG/1.1/DTD/svg11.dtd">
<!-- Creator: CorelDRAW 2017 -->
<svg xmlns="http://www.w3.org/2000/svg" xml:space="preserve" width="446px" height="289px" version="1.1" style="shape-rendering:geometricPrecision; text-rendering:geometricPrecision; image-rendering:optimizeQuality; fill-rule:evenodd; clip-rule:evenodd"
viewBox="0 0 305 197"
 xmlns:xlink="http://www.w3.org/1999/xlink">
 <defs>
  <style type="text/css">
   <![CDATA[
    .fil1 {fill:white}
    .fil0 {fill:#2B914F;fill-rule:nonzero}
   ]]>
  </style>
 </defs>
 <g id="Layer_x0020_1">
  <metadata id="CorelCorpID_0Corel-Layer"/>
  <g id="_1620845791696">
   <path class="fil0" d="M20 0l264 0c6,0 11,2 14,6 4,4 6,9 6,14l0 157c0,6 -2,11 -6,14 -4,4 -9,6 -14,6l-264 0c-6,0 -11,-2 -14,-6 -4,-4 -6,-9 -6,-14l0 -157c0,-6 2,-11 6,-14 4,-4 9,-6 14,-6zm264 8l-264 0c-3,0 -7,1 -9,4 -2,2 -4,5 -4,9l0 157c0,3 1,7 4,9 2,2 5,4 9,4l264 0c3,0 7,-1 9,-4 2,-2 4,-5 4,-9l0 -157c0,-3 -1,-7 -4,-9 -2,-2 -5,-4 -9,-4z"/>
   <path class="fil1" d="M209 63c-4,2 -8,3 -11,3 2,0 5,-4 6,-5 2,-2 3,-4 4,-7 0,0 0,0 0,-1 0,0 0,0 -1,0 -4,2 -9,4 -14,5 0,0 -1,0 -1,0 0,0 -1,-1 -1,-1 -2,-2 -4,-3 -7,-4 -3,-1 -7,-2 -10,-2 -3,0 -7,1 -10,3 -3,2 -6,4 -8,6 -2,3 -4,6 -5,9 -1,3 -1,6 0,10 0,1 0,1 0,1 -19,-3 -34,-9 -47,-24 -1,-1 -1,-1 -1,0 -6,8 -3,22 4,28 1,1 2,2 3,3 0,0 -5,0 -9,-3 -1,0 -1,0 -1,0 0,1 0,2 0,3 1,8 7,16 15,19 1,0 2,1 3,1 -2,0 -4,1 -9,0 -1,0 -1,0 -1,1 4,11 12,14 19,16 1,0 2,0 3,0 0,0 0,0 0,0 -2,3 -9,6 -13,7 -6,2 -13,3 -19,2 -1,0 -1,0 -2,0 0,0 0,0 0,1 1,1 3,2 4,2 4,2 8,4 13,5 23,6 49,2 67,-16 14,-14 18,-32 18,-51 0,-1 1,-1 1,-2 4,-3 6,-6 9,-9 1,-1 1,-2 1,-2 0,0 0,0 0,0 0,0 0,0 0,0l0 0z"/>
  </g>
 </g>
</svg>
