<?xml version="1.0" encoding="UTF-8"?>
<!DOCTYPE svg PUBLIC "-//W3C//DTD SVG 1.1//EN" "http://www.w3.org/Graphics/SVG/1.1/DTD/svg11.dtd">
<!-- Creator: CorelDRAW 2017 -->
<svg xmlns="http://www.w3.org/2000/svg" xml:space="preserve" width="1438px" height="436px" version="1.1" style="shape-rendering:geometricPrecision; text-rendering:geometricPrecision; image-rendering:optimizeQuality; fill-rule:evenodd; clip-rule:evenodd"
viewBox="0 0 1689586 511927"
 xmlns:xlink="http://www.w3.org/1999/xlink">
 <defs>
  <style type="text/css">
   <![CDATA[
    .fil1 {fill:none}
    .fil2 {fill:#1A1A1A}
    .fil0 {fill:#1F2021}
   ]]>
  </style>
    <clipPath id="id0">
     <path d="M0 0l1689586 0 0 511927 -1689586 0 0 -511927z"/>
    </clipPath>
 </defs>
 <g id="Layer_x0020_1">
  <metadata id="CorelCorpID_0Corel-Layer"/>
  <g id="_2898061053392">
   <polygon class="fil0" points="0,0 1689586,0 1689586,511927 0,511927 "/>
   <g style="clip-path:url(#id0)">
   </g>
   <polygon id="1" class="fil1" points="0,0 1689586,0 1689586,511927 0,511927 "/>
   <path class="fil2" d="M0 292237l39438 -197c3932,-19 6478,683 5628,1518 -6674,6565 -13397,13271 -20460,20225 -908,893 -4820,1647 -8954,1665l-15652 68 0 -23279zm1689586 -8436l0 24023 -13220 59c-4322,18 -9686,-692 -11908,-1620 -16807,-7017 -33364,-13815 -49364,-20499 -1915,-800 -348,-1589 3940,-1610l70552 -353zm0 26404l0 6478c-3831,-1596 -7633,-3180 -11401,-4753 -2232,-932 -631,-1666 3899,-1688l7502 -37zm0 14967l0 11779c-30572,126 -61007,244 -91306,373 -4779,20 -10308,-777 -12488,-1808 -16630,-7868 -32928,-15538 -48568,-22965 -1960,-931 227,-1665 4758,-1685 34742,-147 69485,-324 104605,-473 4342,-18 9822,737 11894,1619 10193,4339 20548,8714 31105,13160zm0 14449l0 30145 -22197 76c-4870,17 -11160,-910 -13643,-2084 -18848,-8915 -36968,-17537 -54567,-25886 -2185,-1037 -28,-1908 4575,-1924 28579,-101 57160,-218 85832,-327zm0 33116l0 11905c-6891,-3264 -13710,-6494 -20462,-9689 -2492,-1180 -520,-2145 4587,-2163l15875 -53zm0 22670l0 11491c-37391,103 -74602,212 -111634,313 -5198,14 -11563,-1065 -13901,-2354 -18311,-10098 -36148,-19888 -53476,-29358 -2176,-1189 95,-2166 5203,-2183 38951,-134 78328,-252 117705,-386 5108,-17 11164,920 13633,2110 13775,6643 27993,13411 42470,20367zm0 14914l0 39034 -33675 63c-5818,12 -12481,-1201 -15249,-2710 -21334,-11632 -41987,-22805 -61632,-33648 -2356,-1300 -213,-2461 5243,-2476 34945,-92 70049,-173 105313,-263zm0 42959l0 20217c-10722,-5876 -21248,-11649 -31642,-17318 -2915,-1590 -597,-2837 5013,-2847l26629 -52zm0 34752l0 10304c-45666,55 -91531,115 -136924,148 -6011,4 -13370,-1469 -16029,-3196 -20812,-13510 -40693,-26362 -59996,-38787 -2441,-1572 458,-2831 6067,-2841 44636,-85 89760,-153 134640,-239 5854,-11 12546,1208 15364,2791 18243,10251 37194,20865 56878,31820zm0 14864l0 9031 -127454 0c-2939,-1903 -5863,-3797 -8770,-5683 -2698,-1749 178,-3233 6492,-3237 43034,-28 86278,-78 129732,-111zm-154429 9031l-168887 0 -6955 -5510c-2204,-1746 1100,-3226 6889,-3230 47886,-31 96036,-90 144448,-121 6052,-4 13377,1474 16008,3222l8497 5639zm-195589 0l-167515 0 -5199 -5312c-1792,-1829 1489,-3215 7541,-3221 47623,-55 95509,-117 143396,-148 6051,-4 12868,1399 15087,3214l6690 5467zm-194435 0l-166349 0c-1206,-1721 -2405,-3435 -3598,-5141 -1225,-1753 2927,-3207 8978,-3214 47097,-54 94458,-92 142081,-147 5788,-7 12205,1399 13908,3207 1653,1755 3313,3520 4980,5295zm-192477 0l-165215 0c-692,-1666 -1383,-3323 -2072,-4971 -749,-1793 3567,-3199 9355,-3206 46834,-54 93930,-91 141291,-146 6051,-7 12074,1398 13263,3198 1122,1700 2248,3408 3378,5125zm-191587 0l-163800 0c-222,-1608 -442,-3209 -659,-4802 -243,-1784 4464,-3194 10514,-3198 46308,-30 93142,-92 139976,-146 6052,-7 11418,1399 12097,3191 622,1643 1246,3295 1872,4955zm-189894 0l-162332 0c200,-1552 397,-3096 593,-4633 226,-1777 5354,-3187 11142,-3191 46044,-30 92615,-88 139186,-118 5788,-4 10763,1378 10938,3156 156,1588 313,3183 473,4786zm-188160 0l-161322 0c632,-1495 1262,-2983 1892,-4466 749,-1766 5710,-3176 11762,-3183 45781,-53 92089,-87 138397,-118 5788,-3 10343,1374 10048,3150 -254,1531 -513,3071 -777,4617zm-187132 0l-160047 0c987,-1439 1972,-2872 2955,-4299 1213,-1762 7115,-3143 12903,-3149 45518,-54 91037,-90 137082,-144 5788,-6 9982,1377 9165,3142 -685,1477 -1371,2960 -2058,4450zm-185323 0l-10560 0 0 -7412 5123 -6c6052,-7 9817,1396 8553,3135l-3116 4283zm-10560 -11815l0 -43661 40928 -82c5609,-11 9171,1210 8041,2758 -8855,12126 -18144,24727 -27707,37852 -1264,1736 -6926,3116 -12675,3123l-8587 10zm0 -47453l0 -37833c23983,-60 47998,-119 72098,-184 5229,-14 8572,1041 7609,2356 -7739,10564 -15843,21509 -24167,32891 -1058,1446 -6266,2669 -11598,2680l-43942 90zm0 -41130l0 -33113c33057,-112 66268,-213 99479,-328 4895,-17 8078,905 7227,2061 -6847,9297 -13977,18893 -21256,28798 -925,1261 -5734,2356 -10706,2370 -24934,69 -49868,141 -74744,212zm0 -35976l0 -17587c3208,-3320 6368,-6596 9464,-9833 959,-1004 5575,-1855 9778,-1873 34620,-146 69639,-300 104460,-424 4602,-16 7611,819 6873,1819 -6063,8212 -12181,16692 -18601,25420 -883,1200 -5515,2094 -10173,2110 -34113,120 -68047,247 -101801,368zm0 -37197l0 -20535 13128 -56c4342,-19 6835,681 5921,1600 -6125,6160 -12555,12506 -19049,18991zm71069 -46474c31096,-154 62369,-312 93643,-468 4110,-20 6851,682 6229,1521 -4862,6552 -9900,13306 -14877,20246 -645,899 -4744,1652 -8878,1670 -32883,143 -65767,288 -98463,453 -3946,20 -6827,-707 -5953,-1601 6798,-6956 13265,-13665 19689,-20230 818,-837 4679,-1571 8610,-1591zm125631 -627c31275,-156 62727,-314 94180,-471 4110,-20 6853,681 6474,1499 -3058,6590 -6238,13333 -9458,20294 -415,898 -4103,1655 -8424,1673 -33072,143 -65956,291 -98839,456 -4321,21 -7221,-709 -6592,-1604 4881,-6947 9681,-13699 14293,-20253 591,-839 4257,-1574 8366,-1594zm126168 -630c31453,-156 63084,-315 94715,-473 4110,-20 7232,680 7080,1501 -1222,6606 -2714,13340 -3998,20317 -166,901 -3833,1656 -8155,1678 -33259,167 -66519,288 -99591,431 -4134,18 -7085,-659 -6671,-1582 3109,-6941 5874,-13709 8678,-20301 348,-819 3833,-1551 7942,-1571zm126883 -634c31631,-157 63441,-316 95251,-475 3931,-19 7272,681 7329,1506 455,6592 983,13374 1477,20338 64,906 -3376,1634 -7509,1655 -33448,168 -66896,316 -99967,460 -4133,17 -7655,-685 -7503,-1585 1183,-6980 2275,-13715 3406,-20323 141,-821 3584,-1556 7516,-1576zm127418 -636c31810,-158 63620,-317 95609,-477 4110,-20 7648,678 7938,1509 2301,6605 4541,13384 6984,20361 319,911 -2727,1637 -7048,1659 -33636,168 -67083,317 -100530,461 -4134,18 -7861,-682 -7962,-1615 -758,-6966 -1388,-13724 -2257,-20318 -109,-826 3335,-1560 7266,-1580zm128133 -639c31810,-158 63799,-319 95966,-479 4111,-21 7844,675 8371,1512 4153,6590 8482,13355 12890,20356 573,910 -2639,1672 -6961,1690 -33635,146 -67459,320 -100905,465 -4134,17 -7872,-683 -8236,-1620 -2706,-6954 -5555,-13717 -7959,-20341 -296,-816 2904,-1563 6834,-1583zm128670 -643c31988,-159 64156,-320 96502,-482 3931,-19 7911,710 8626,1517 5884,6639 12281,13396 18632,20378 858,944 -2174,1676 -6308,1694 -33823,147 -67834,321 -101469,466 -4321,19 -8280,-713 -8887,-1622 -4679,-7004 -9270,-13771 -13678,-20363 -559,-838 2473,-1567 6582,-1588zm129027 -645c32167,-160 64692,-322 97038,-484 4110,-21 8399,679 9420,1519 8049,6622 16072,13434 24414,20401 1108,925 -1705,1680 -6027,1699 -34011,147 -68210,298 -102033,469 -4322,21 -8476,-705 -9353,-1628 -6640,-6980 -12977,-13780 -19248,-20385 -800,-843 1678,-1571 5789,-1591zm129920 -648c32346,-161 64871,-325 97395,-487 4289,-21 8786,675 10039,1523 9757,6605 19720,13435 30220,20424 1385,922 -1235,1684 -5557,1703 -34387,148 -68586,299 -102597,471 -4134,20 -8678,-706 -9821,-1631 -8615,-6970 -17071,-13790 -25210,-20409 -1040,-846 1599,-1574 5531,-1594zm130635 -652c32525,-163 65050,-325 97932,-489 4110,-21 8615,682 10121,1527 11811,6627 23906,13447 36229,20446 1638,931 -388,1687 -4897,1707 -34387,148 -68774,298 -102973,446 -4509,19 -9258,-679 -10667,-1607 -10601,-6986 -21001,-13823 -31015,-20431 -1286,-848 1160,-1579 5270,-1599zm130993 -655c32703,-163 65586,-327 98467,-491 4289,-21 9171,684 10923,1530 13709,6617 27776,13446 42285,20469 1915,927 -287,1663 -4608,1684 -34763,174 -69339,326 -103725,476 -4322,18 -9184,-734 -10766,-1612 -12695,-7055 -25153,-13825 -37227,-20453 -1539,-846 541,-1582 4651,-1603zm132064 -658c32883,-164 65765,-330 98826,-494 4110,-21 9186,692 11188,1534 15790,6639 31842,13472 48546,20492 2192,922 190,1667 -4131,1688 -34763,175 -69526,329 -104100,478 -4510,19 -9665,-688 -11617,-1615 -14787,-7025 -29125,-13857 -43097,-20476 -1785,-846 97,-1586 4385,-1607zm-1440062 32781c32854,-140 65708,-285 98751,-449 4343,-21 7225,708 6563,1604 -5428,7339 -11032,14888 -16599,22648 -720,1003 -5081,1806 -9461,1824 -34841,150 -69682,281 -104124,429 -4181,18 -7079,-721 -6036,-1789 7531,-7707 14788,-15283 21784,-22602 860,-899 5157,-1648 9122,-1665zm132549 -593c32855,-140 66086,-309 99318,-451 4342,-18 7245,711 6830,1608 -3394,7331 -6968,14889 -10722,22649 -495,1024 -4380,1836 -8760,1855 -35040,150 -69881,283 -104523,431 -4578,19 -7648,-769 -6933,-1793 5435,-7769 10622,-15349 15744,-22629 659,-936 4704,-1651 9046,-1670zm132928 -595c33232,-165 66464,-310 100073,-453 4154,-17 7668,686 7477,1611 -1514,7350 -3008,14903 -4601,22677 -207,1005 -4074,1844 -8453,1860 -35239,127 -70479,284 -105320,433 -4579,19 -7662,-794 -7237,-1798 3290,-7757 6574,-15319 9848,-22656 411,-921 4060,-1653 8213,-1674zm134060 -598c33232,-166 66842,-312 100451,-455 3965,-17 7681,683 7748,1615 530,7337 979,14916 1735,22705 98,1011 -3565,1848 -7945,1863 -35438,128 -70876,282 -105717,409 -4579,16 -8112,-755 -7942,-1775 1295,-7766 2474,-15360 3538,-22684 135,-927 3790,-1657 8132,-1678zm134438 -627c33421,-143 67219,-289 101017,-458 4154,-20 7889,708 8211,1619 2593,7351 5141,14956 7909,22759 361,1018 -2855,1849 -7435,1869 -35438,151 -71076,283 -106315,410 -4578,17 -8335,-766 -8450,-1778 -883,-7791 -1793,-15374 -2609,-22739 -100,-906 3330,-1664 7672,-1682zm135193 -604c33609,-143 67408,-291 101395,-460 4343,-22 8283,705 8864,1622 4664,7365 9704,14938 14516,22788 610,994 -2740,1827 -7319,1847 -35637,152 -71473,288 -106912,439 -4379,19 -8361,-765 -8762,-1783 -3074,-7806 -6100,-15392 -8990,-22767 -350,-893 3054,-1668 7208,-1686zm135949 -607c33798,-144 67785,-316 101961,-463 4154,-17 8317,725 9142,1628 6765,7401 13776,14980 20951,22815 942,1029 -2225,1832 -6604,1851 -35837,153 -71872,289 -107509,441 -4579,20 -8828,-793 -9476,-1787 -5117,-7853 -10464,-15425 -15398,-22795 -630,-941 2591,-1672 6933,-1690zm136515 -610c33987,-168 68163,-318 102528,-464 4342,-18 8881,676 9990,1603 8834,7394 17982,14992 27438,22871 1178,981 -1703,1840 -6282,1856 -36235,130 -72469,291 -108305,443 -4579,20 -9008,-790 -9993,-1818 -7478,-7812 -14641,-15437 -21652,-22797 -900,-944 1744,-1671 6276,-1694zm137081 -639c34175,-170 68730,-293 103094,-439 4532,-20 9274,676 10651,1606 10931,7385 22321,15054 33945,22873 1537,1033 -1182,1871 -5760,1887 -36434,131 -72669,290 -108704,419 -4579,17 -9297,-815 -10513,-1796 -9764,-7882 -19208,-15456 -28330,-22852 -1145,-928 1463,-1677 5617,-1698zm138214 -616c34365,-147 68919,-297 103661,-469 4343,-21 9092,711 10748,1639 13219,7407 26809,15062 40676,22901 1832,1035 -260,1844 -5038,1864 -36433,155 -73066,317 -109301,448 -4579,16 -9743,-819 -11234,-1800 -12017,-7903 -23636,-15488 -35034,-22880 -1426,-925 1180,-1685 5522,-1703zm138781 -619c34554,-146 69296,-322 104038,-470 4532,-20 9763,751 11604,1641 15435,7467 31341,15066 47659,22930 2140,1031 -129,1850 -4907,1870 -36831,155 -73464,295 -109898,450 -4778,20 -9878,-774 -11760,-1805 -14368,-7873 -28283,-15519 -41594,-22909 -1705,-947 327,-1687 4858,-1707zm-1242935 34195c35020,-124 70041,-251 105261,-400 4403,-18 7495,768 6988,1824 -3943,8207 -7746,16665 -11767,25454 -531,1160 -4726,2098 -9383,2115 -37261,131 -74310,270 -111147,400 -4657,16 -7846,-928 -7055,-2061 6129,-8769 11900,-17210 17637,-25428 715,-1023 5064,-1888 9466,-1904zm140681 -553c35220,-148 70441,-280 105861,-428 4602,-20 8094,820 7908,1854 -1488,8223 -3299,16707 -4873,25488 -210,1165 -4354,2103 -9223,2120 -37261,131 -74733,272 -111782,403 -4658,16 -8135,-934 -7635,-2067 3880,-8793 7536,-17254 10995,-25462 433,-1028 4347,-1889 8749,-1908zm141882 -556c35220,-148 70841,-281 106261,-431 4402,-18 8151,822 8228,1833 629,8245 1559,16744 2253,25549 91,1169 -3980,2109 -8426,2125 -37684,133 -75157,273 -112418,404 -4869,17 -8590,-931 -8429,-2070 1243,-8810 2544,-17280 3900,-25524 167,-1020 4029,-1867 8631,-1886zm142282 -585c35620,-126 71241,-280 107062,-406 4602,-16 8381,793 8752,1837 2931,8257 6049,16743 9216,25584 415,1157 -3179,2113 -8048,2130 -37684,132 -75368,275 -112840,406 -4869,17 -9093,-930 -9227,-2076 -1035,-8827 -1881,-17315 -2824,-25557 -119,-1039 3507,-1903 7909,-1918zm143282 -561c35621,-126 71441,-284 107462,-435 4603,-19 8828,816 9480,1841 5264,8272 10787,16810 16432,25645 756,1183 -2798,2119 -7667,2136 -37896,134 -76003,276 -113687,408 -4657,17 -8935,-928 -9394,-2081 -3513,-8817 -6948,-17335 -10210,-25592 -405,-1024 3182,-1907 7584,-1922zm144083 -564c35821,-151 71841,-285 108062,-438 4402,-18 8903,861 9809,1846 7642,8310 15543,16852 23678,25681 1092,1186 -2202,2124 -6859,2141 -38108,134 -76427,276 -114323,410 -4869,17 -9458,-959 -10199,-2086 -5837,-8870 -11841,-17379 -17425,-25654 -692,-1025 2656,-1881 7257,-1900zm144683 -594c36021,-151 72242,-283 108663,-412 4602,-16 9502,816 10742,1849 9948,8282 20336,16866 30984,25716 1430,1189 -1601,2130 -6470,2147 -38531,135 -76850,278 -115170,412 -4868,17 -9511,-974 -10584,-2091 -8548,-8903 -16769,-17424 -24691,-25689 -987,-1030 1924,-1912 6526,-1932zm145484 -569c36221,-128 72842,-288 109463,-441 4603,-19 9741,817 11279,1853 12309,8301 25147,16906 38319,25779 1768,1191 -786,2134 -5866,2152 -38743,134 -77274,279 -115806,414 -4656,16 -9942,-925 -11395,-2097 -11016,-8871 -21717,-17467 -31988,-25751 -1281,-1034 1592,-1893 5994,-1909zm146685 -573c36420,-152 73042,-289 109863,-443 4602,-19 9880,875 11617,1859 14783,8377 30289,16858 46107,25814 2003,1134 -179,2139 -5260,2156 -38954,136 -77697,254 -116440,389 -4869,17 -10404,-906 -12211,-2074 -13736,-8872 -26814,-17427 -39534,-25786 -1495,-983 1055,-1895 5858,-1915zm147084 -574c36821,-154 73643,-315 110664,-446 4802,-17 10414,828 12561,1862 17265,8322 35072,16950 53543,25851 2460,1185 221,2145 -4648,2162 -39378,137 -78333,256 -117287,391 -5081,18 -10676,-908 -12820,-2079 -16285,-8894 -31727,-17519 -46930,-25823 -1890,-1033 315,-1900 4917,-1918zm-1318102 37401c37036,-129 74285,-264 111534,-369 4895,-14 8126,905 7595,2066 -4266,9317 -8754,18911 -13483,28867 -600,1263 -4861,2360 -10060,2374 -39551,109 -79104,201 -118204,310 -4972,14 -8565,-1042 -7689,-2303 6903,-9935 13666,-19508 20160,-28808 807,-1157 5465,-2121 10147,-2137zm149421 -503c37248,-128 74710,-264 112384,-371 4682,-13 8626,907 8395,2071 -1855,9339 -3683,18961 -5642,28936 -245,1244 -4660,2340 -9633,2354 -40004,110 -79782,229 -119334,338 -4972,14 -8404,-1068 -7886,-2310 4154,-9953 8053,-19582 12150,-28903 512,-1165 4671,-2098 9566,-2115zm150484 -505c37461,-130 75136,-243 113023,-373 4683,-16 8651,905 8769,2076 949,9358 1620,19011 2448,28979 106,1278 -4005,2375 -8977,2386 -40004,86 -80008,203 -119786,313 -4972,13 -9191,-1044 -8991,-2315 1573,-9952 3034,-19604 4535,-28946 183,-1138 4297,-2105 8979,-2120zm151335 -508c37675,-129 75562,-270 113662,-401 4895,-17 8937,930 9362,2108 3381,9349 7149,19012 10594,29048 425,1240 -3345,2352 -8318,2366 -40455,111 -80686,230 -120690,341 -5198,13 -9494,-1068 -9646,-2321 -1216,-9997 -2448,-19655 -3566,-29015 -137,-1145 3708,-2109 8602,-2126zm152188 -509c37887,-131 75987,-272 114300,-403 4895,-17 9470,958 10171,2085 5869,9427 12350,19109 18797,29118 830,1291 -2907,2384 -8104,2398 -40457,112 -81139,205 -121369,317 -4746,13 -9565,-1041 -10082,-2327 -4016,-9991 -7760,-19679 -11509,-29058 -471,-1179 3114,-2114 7796,-2130zm153251 -513c38100,-131 76413,-273 114938,-405 4683,-16 9693,924 10772,2091 8698,9411 17527,19161 26820,29189 1180,1273 -2239,2363 -7211,2376 -40682,112 -81590,234 -122046,344 -5198,14 -10108,-1063 -10973,-2331 -6850,-10036 -13538,-19729 -19926,-29128 -804,-1184 2731,-2120 7626,-2136zm153890 -515c38313,-132 77051,-274 115790,-407 4895,-16 10173,923 11588,2096 11376,9430 22996,19176 35126,29232 1565,1299 -1340,2396 -6538,2410 -41134,113 -82269,208 -122951,319 -5424,15 -10461,-1087 -11641,-2337 -9517,-10084 -19140,-19779 -28186,-29172 -1144,-1188 1917,-2124 6812,-2141zm154954 -544c38525,-132 77477,-248 116429,-382 4895,-16 10419,907 12194,2100 14041,9436 28670,19233 43691,29304 1915,1284 -663,2374 -6087,2389 -41360,112 -82720,235 -123629,347 -5197,15 -10791,-1121 -12315,-2342 -12616,-10113 -24770,-19827 -36491,-29243 -1483,-1191 1312,-2156 6208,-2173zm156019 -520c38738,-109 77903,-250 117067,-384 4895,-17 10688,910 12805,2106 16747,9459 34313,19178 52312,29348 2196,1241 19,2406 -5405,2421 -41586,113 -83172,233 -124306,322 -5425,11 -11458,-1047 -13444,-2348 -15396,-10085 -30431,-19847 -44843,-29286 -1822,-1194 706,-2165 5814,-2179zm-1246346 40693c39328,-106 79110,-223 118892,-331 5001,-13 8459,1038 7818,2389 -4998,10533 -9873,21561 -15035,32969 -657,1451 -5524,2675 -10857,2686 -42420,85 -84598,152 -126533,236 -5575,11 -9142,-1179 -8139,-2626 7890,-11386 15579,-22360 22914,-32901 915,-1315 5712,-2408 10940,-2422zm159129 -442c39782,-107 79792,-198 119801,-305 5229,-14 9175,1042 8944,2367 -1854,10610 -4081,21615 -6055,33047 -251,1457 -5017,2712 -10592,2720 -42663,61 -85326,153 -127504,237 -5574,11 -9239,-1206 -8638,-2659 4723,-11411 9597,-22389 13997,-32979 548,-1321 5046,-2415 10047,-2428zm160719 -418c39783,-107 80019,-225 120483,-333 5001,-14 9278,1069 9391,2400 907,10606 1949,21669 2967,33126 129,1464 -4268,2689 -9600,2700 -42905,85 -85810,180 -128230,265 -5575,11 -9825,-1208 -9629,-2665 1534,-11437 3339,-22472 4787,-33059 181,-1325 4604,-2420 9831,-2434zm161402 -445c40237,-108 80473,-200 121165,-309 5229,-14 9612,1060 10068,2379 3695,10677 8042,21753 12281,33233 544,1472 -3268,2694 -8842,2705 -43390,86 -86296,155 -129201,240 -5575,11 -10164,-1181 -10381,-2671 -1667,-11462 -2929,-22502 -4246,-33138 -165,-1332 3928,-2426 9156,-2439zm162311 -422c40464,-108 81155,-227 122074,-336 5228,-14 10134,1104 10980,2410 6924,10692 14187,21783 21672,33286 963,1480 -2989,2732 -8322,2740 -43631,63 -87022,154 -130411,241 -5090,10 -10296,-1205 -10897,-2678 -4686,-11483 -9039,-22587 -13346,-33218 -542,-1339 3249,-2432 8250,-2445zm163674 -450c40692,-109 81611,-202 122757,-312 5001,-13 10415,1039 11666,2390 9917,10700 20133,21866 30877,33394 1385,1486 -1981,2707 -7556,2718 -43632,87 -87507,183 -130897,269 -5575,11 -10881,-1203 -11902,-2684 -7932,-11507 -15834,-22606 -22966,-33324 -871,-1310 2794,-2438 8021,-2451zm164357 -426c40919,-110 82293,-229 123666,-340 5228,-14 10946,1068 12586,2422 12956,10699 26615,21887 40628,33448 1832,1511 -1450,2741 -7025,2752 -44117,88 -88234,157 -131866,244 -5575,11 -11208,-1183 -12670,-2691 -11182,-11537 -22249,-22653 -32424,-33378 -1238,-1304 1878,-2443 7105,-2457zm165494 -455c41373,-110 82747,-203 124574,-314 5230,-14 11242,1049 13283,2401 16234,10756 32995,21907 50432,33555 2142,1431 -673,2752 -6490,2760 -44360,63 -88719,157 -132836,244 -5332,11 -11571,-1204 -13443,-2697 -14484,-11558 -28477,-22697 -41934,-33485 -1618,-1297 1414,-2451 6414,-2464zm166857 -430c41601,-111 83429,-231 125257,-343 5228,-14 11588,1059 13983,2408 19119,10763 39166,22023 60060,33664 2683,1495 352,2727 -5466,2739 -44601,87 -89203,185 -133563,272 -5817,11 -12407,-1204 -14705,-2704 -17795,-11609 -35073,-22839 -51510,-33566 -2083,-1359 716,-2456 5944,-2470zm-1332405 45266c42197,-81 84882,-174 127324,-256 5609,-11 9252,1208 8561,2739 -5494,12175 -11049,24846 -17169,37969 -829,1777 -6055,3149 -12066,3156 -45475,56 -90951,95 -136165,151 -5750,7 -9553,-1398 -8353,-3134 9058,-13104 17638,-25760 26013,-37865 1090,-1577 6490,-2749 11855,-2760zm170496 -342c42685,-82 85614,-148 128543,-230 5610,-11 9868,1209 9578,2744 -2306,12204 -4600,24875 -7048,38087 -323,1747 -5177,3160 -11188,3164 -45998,33 -91735,93 -137471,125 -5750,5 -9724,-1340 -8964,-3115 5614,-13130 10681,-25803 15705,-37982 632,-1532 5480,-2782 10845,-2793zm172203 -317c42685,-83 85859,-148 129275,-232 5122,-10 9968,1208 10109,2751 1118,12228 2387,24958 3640,38178 169,1779 -4554,3164 -10303,3171 -46260,57 -92519,97 -138257,154 -6010,7 -10624,-1375 -10364,-3150 1936,-13189 3751,-25865 5583,-38073 235,-1563 4952,-2789 10317,-2799zm172936 -319c43173,-83 86589,-176 130006,-259 5610,-11 10321,1230 10889,2758 4576,12307 9402,25058 14388,38322 664,1767 -3404,3172 -9415,3179 -46521,57 -93041,97 -139301,154 -5750,7 -11014,-1399 -11248,-3157 -1768,-13242 -3511,-25949 -5105,-38217 -199,-1538 4421,-2770 9786,-2780zm174155 -347c43416,-83 87077,-150 130981,-234 5610,-10 10929,1247 11920,2764 8068,12351 16493,25124 25242,38442 1167,1776 -2768,3183 -8778,3187 -47044,34 -93827,94 -140608,128 -5489,4 -11146,-1371 -11879,-3138 -5506,-13295 -10594,-26053 -15638,-38336 -637,-1553 3394,-2802 8760,-2813zm175618 -322c43660,-84 87565,-175 131713,-235 5366,-8 11248,1204 12712,2771 11524,12331 23371,25188 35896,38534 1673,1784 -1867,3188 -7878,3195 -47043,57 -94348,98 -141130,155 -6011,7 -11800,-1396 -13037,-3172 -9266,-13296 -18415,-26078 -26737,-38428 -1026,-1522 2851,-2809 8461,-2820zm176350 -323c44148,-85 88296,-179 132689,-263 5853,-12 12064,1212 13997,2804 15025,12367 30565,25278 46901,38655 2186,1790 -956,3194 -7228,3202 -47567,58 -95133,98 -142176,156 -6011,7 -12197,-1396 -13942,-3180 -13052,-13351 -25614,-26149 -37665,-38548 -1490,-1533 1814,-2816 7424,-2826zm177813 -325c44392,-85 88785,-179 133665,-265 5610,-11 12176,1213 14555,2784 18815,12422 38214,25285 58471,38776 2615,1741 -301,3233 -6573,3237 -47828,34 -95656,72 -143222,130 -5750,7 -12554,-1387 -14851,-3188 -17079,-13397 -33141,-26279 -48670,-38668 -1974,-1574 1260,-2796 6625,-2806z"/>
  </g>
 </g>
</svg>
