<?xml version="1.0" encoding="UTF-8"?>
<!DOCTYPE svg PUBLIC "-//W3C//DTD SVG 1.1//EN" "http://www.w3.org/Graphics/SVG/1.1/DTD/svg11.dtd">
<!-- Creator: CorelDRAW 2017 -->
<svg xmlns="http://www.w3.org/2000/svg" xml:space="preserve" width="110px" height="60px" version="1.1" style="shape-rendering:geometricPrecision; text-rendering:geometricPrecision; image-rendering:optimizeQuality; fill-rule:evenodd; clip-rule:evenodd"
viewBox="0 0 10727 5799"
 xmlns:xlink="http://www.w3.org/1999/xlink">
 <defs>
  <style type="text/css">
   <![CDATA[
    .fil9 {fill:#412A25}
    .fil11 {fill:#553522}
    .fil3 {fill:#553624}
    .fil8 {fill:#72442A}
    .fil10 {fill:#926046}
    .fil1 {fill:#9E6026}
    .fil0 {fill:#BE7025}
    .fil4 {fill:#BEAC9E}
    .fil6 {fill:#E6D2BE}
    .fil2 {fill:#E9D4C1}
    .fil5 {fill:#EE8625}
    .fil7 {fill:#F5A75D}
   ]]>
  </style>
 </defs>
 <g id="Layer_x0020_1">
  <metadata id="CorelCorpID_0Corel-Layer"/>
  <g id="_2897981041232">
   <path class="fil0" d="M1898 4014c-61,-352 250,-657 567,-751 367,-110 650,156 809,462 85,165 92,362 -24,494 -155,176 -305,2 -458,-61 -201,-83 -355,1 -523,63 -203,74 -328,35 -371,-207zm1524 -1110c343,-149 346,601 10,734 -334,132 -355,-583 -10,-734zm-1618 -13c242,-94 401,587 172,680 -255,104 -444,-574 -172,-680zm492 -379c306,-110 354,649 100,729 -303,94 -364,-634 -100,-729zm581 -58c183,-106 279,151 282,312 3,175 -65,371 -193,420 -302,118 -398,-554 -89,-732zm-2438 1472c-86,331 -176,434 581,647 864,244 2852,413 3745,393l1140 1 158 -2762c-866,25 -1734,2 -2594,-72 -536,-45 -1182,-127 -1697,-277 -280,-81 -254,-95 -463,-199 -83,-69 -60,-92 -118,-167l-752 2436z"/>
   <path class="fil1" d="M6063 2205l-158 2762c217,18 562,-10 791,-19 252,-10 512,-23 763,-42 503,-38 998,-85 1492,-160l41 -17c-99,-422 -185,-926 -263,-1359 -41,-231 -258,-1255 -259,-1389 -768,161 -1609,182 -2407,224z"/>
   <path class="fil2" d="M0 4991c88,29 34,38 123,105 511,381 2115,543 2698,596 810,72 1712,106 2533,107 288,0 606,-22 888,-11 28,-165 -12,-368 16,-557l-72 -54c-326,-215 -144,-201 -567,-195 -150,2 -754,13 -854,-16 -893,20 -2881,-149 -3745,-393 -757,-213 -667,-316 -581,-647l-34 20c-3,2 -7,4 -11,6l-215 113c-70,46 -152,105 -163,214 -12,133 23,652 -16,712z"/>
   <path class="fil3" d="M5046 1488c-42,153 -231,277 -436,227 -152,-37 -321,-202 -248,-424 126,-384 806,-249 684,197zm591 -441l0 0zm-3460 -375c34,-73 77,-91 135,-135 25,-23 -1,-9 47,-31 2,-1 49,-14 51,-15 44,-7 90,-8 134,-1 78,12 139,45 182,85 94,89 164,236 73,380 21,-81 49,-135 9,-211 -81,26 -77,135 -178,219 -132,111 -197,28 -327,78 14,49 40,57 95,68 -3,3 -8,4 -9,10l-21 32c-14,43 20,204 -169,316 -133,79 -301,52 -402,-41 -245,-226 -56,-646 332,-556 -2,-47 -7,-64 1,-111 0,-1 15,-45 15,-46 31,-56 5,-15 32,-41zm2778 -321c41,63 70,3 232,102 58,35 133,109 150,196 72,366 -596,520 -852,225 -57,-64 -93,-163 -55,-262 40,-105 117,-132 187,-191 -68,-15 -31,-6 -82,-50 -20,-17 -50,-37 -86,-54 -63,-30 -134,-47 -214,-56 7,65 16,162 -5,232 -13,45 -58,126 -82,144 57,-89 110,-195 76,-340 -95,33 -69,123 -184,251 -92,104 -200,66 -343,80 25,126 97,38 168,150 62,97 62,147 39,257 93,73 145,89 188,214 39,110 -9,252 -73,311 46,-87 94,-145 67,-283 -60,2 -62,34 -97,93 -156,265 -225,145 -413,196 7,34 3,20 48,66l20 20c-174,-34 -263,-181 -245,-388 -271,-12 -554,-271 -322,-508 69,-71 49,-59 137,-96 160,-66 213,-40 377,-42 -30,-70 -55,-77 -62,-160 -48,20 -77,22 -135,6 -154,-13 -252,80 -338,161 -22,20 -6,9 -26,21 -74,-165 -186,-274 -406,-296 -221,-40 -555,90 -542,438 -486,1 -455,303 -532,390l-61 75c-54,154 -17,179 100,240 91,48 190,73 290,99 197,50 473,103 683,118l-37 -45c-196,-224 20,-595 309,-545 313,55 280,486 90,585l-112 48c225,-13 610,47 857,61 286,16 571,33 858,39 1046,20 3305,8 4285,-235 604,-149 481,-178 478,-354 30,-315 -216,-465 -458,-472 -134,-4 -185,42 -281,55 -51,-121 -4,-125 -109,-232 -53,-53 -123,-120 -221,-120l-35 7c66,14 74,10 114,51 99,103 125,175 101,340 230,40 411,252 270,496 -49,83 -147,149 -261,161 -160,18 -232,-37 -324,-109 -6,-69 16,-111 -22,-167 58,435 -406,509 -587,290 -71,-87 -70,-147 -77,-281 -99,36 -234,35 -350,-4 68,152 83,304 -62,424 -125,102 -299,122 -454,23 -302,-191 -106,-658 272,-589 -39,-75 -73,-85 -104,-174 -185,-534 807,-496 855,99 91,-13 97,-39 226,-37 -69,-127 -152,-257 -5,-412 17,-24 41,-42 56,-65 28,-35 -42,-23 49,-32l-28 -4c-93,8 -126,73 -200,104 -137,-128 -345,-29 -437,-104 -150,-122 -232,-135 -464,-122 -47,-149 -242,-261 -463,-254 -217,8 -311,88 -404,216 -38,51 -2,28 -56,46 41,34 1,2 50,30l109 81c50,52 71,109 82,186 -18,5 -22,2 -45,16 -10,6 -20,23 -22,20 -3,-4 -8,7 -12,12l66 -19 34 -22c17,-7 38,-12 56,-14 43,-5 80,-1 122,9 220,51 294,210 248,444 -7,-21 51,-357 -97,-99 -27,47 -46,81 -84,120 -89,88 -202,68 -335,68 29,101 159,107 251,110 -270,13 -348,-69 -431,-290 -59,-6 -133,-5 -186,-3 -461,-173 -324,-688 151,-650l50 -2c-41,-158 -216,-271 -421,-282 -208,-12 -437,100 -462,238z"/>
   <path class="fil0" d="M8470 1981c1,134 218,1158 259,1389 78,433 164,937 263,1359l-41 17 51 -6c214,-61 538,-88 913,-204 695,-214 505,-362 466,-568 -62,-97 -756,-2361 -816,-2439 -168,291 -795,401 -1095,452z"/>
   <path class="fil4" d="M5905 4967l-1140 -1c100,29 704,18 854,16 423,-6 241,-20 567,195l72 54c-28,189 12,392 -16,557 512,-3 2296,-116 2853,-235 59,-13 333,-53 372,-71l-72 7 -22 -539c-107,-78 -264,-143 -371,-210l-51 6c-494,75 -989,122 -1492,160 -251,19 -511,32 -763,42 -229,9 -574,37 -791,19z"/>
   <path class="fil5" d="M1191 1490c58,75 35,98 118,167 30,-8 274,108 434,151 1645,447 5731,440 7316,-16 373,-107 757,-320 231,-528 3,176 126,205 -478,354 -980,243 -3239,255 -4285,235 -287,-6 -572,-23 -858,-39 -247,-14 -632,-74 -857,-61 -85,29 -190,-5 -250,-43 -210,-15 -486,-68 -683,-118 -100,-26 -199,-51 -290,-99 -117,-61 -154,-86 -100,-240 -127,33 -260,121 -298,237z"/>
   <path class="fil6" d="M9002 4740c107,67 264,132 371,210l22 539 72 -7c312,-61 599,-133 873,-241 148,-59 250,-118 334,-212 67,-76 43,-384 52,-514 -6,-156 28,-280 -68,-377 -70,-71 -170,-112 -277,-170 39,206 229,354 -466,568 -375,116 -699,143 -913,204z"/>
   <path class="fil7" d="M1898 4014c43,242 168,281 371,207 168,-62 322,-146 523,-63 153,63 303,237 458,61 116,-132 109,-329 24,-494 -159,-306 -442,-572 -809,-462 -317,94 -628,399 -567,751z"/>
   <path class="fil8" d="M6764 937c-41,-215 142,-414 477,-245 73,36 147,62 139,154 -120,28 -211,-21 -345,1 -111,19 -176,114 -271,90zm1091 -425l28 4c-91,9 -21,-3 -49,32 106,-31 184,-82 326,-26 66,26 47,12 72,61 -19,19 -2,8 -31,22 -78,38 -159,1 -250,111 -63,78 -80,215 -182,226 -68,-99 -45,-220 9,-329 -147,155 -64,285 5,412 -129,-2 -135,24 -226,37 -48,-595 -1040,-633 -855,-99 31,89 65,99 104,174 76,36 126,103 244,142 116,39 251,40 350,4 7,134 6,194 77,281 181,219 645,145 587,-290 -16,-71 -41,-76 -48,-138l-75 -51c-52,-28 -46,-10 -66,-72 136,-3 241,21 325,-63 129,-127 102,-186 182,-227 56,145 -25,186 -37,276 8,-28 39,-70 56,-106 24,-165 -2,-237 -101,-340 -40,-41 -48,-37 -114,-51l35 -7c-70,-61 -304,-50 -366,17z"/>
   <path class="fil8" d="M3464 1488c-165,-278 145,-543 404,-416 45,22 48,19 51,76 -146,47 -189,13 -280,122 -66,79 -77,201 -175,218zm251 -1442c91,24 81,-27 215,-1 129,24 124,65 128,108 -140,62 -181,2 -281,132 -64,84 -85,176 -111,214 -43,62 -1,27 -59,47 -62,-48 -56,-91 -58,-166 -2,-90 34,-157 6,-187 -23,103 -43,129 -35,258 -55,-2 -89,-11 -126,13 58,16 87,14 135,-6 7,83 32,90 62,160 -164,2 -217,-24 -377,42 -88,37 -68,25 -137,96 -232,237 51,496 322,508 -18,207 71,354 245,388l-20 -20c-45,-46 -41,-32 -48,-66 188,-51 257,69 413,-196 35,-59 37,-91 97,-93 27,138 -21,196 -67,283 64,-59 112,-201 73,-311 -43,-125 -95,-141 -188,-214 23,-110 23,-160 -39,-257 -71,-112 -143,-24 -168,-150 143,-14 251,24 343,-80 115,-128 89,-218 184,-251 34,145 -19,251 -76,340 24,-18 69,-99 82,-144 21,-70 12,-167 5,-232 -82,-183 -276,-343 -520,-215z"/>
   <path class="fil8" d="M2312 537c114,-20 287,-50 344,62 -59,68 -172,12 -275,131 -53,60 -88,216 -178,226 -66,-67 -54,-186 -26,-284 -27,26 -1,-15 -32,41 0,1 -15,45 -15,46 -8,47 -3,64 -1,111 -388,-90 -577,330 -332,556 101,93 269,120 402,41 189,-112 155,-273 169,-316l21 -32c1,-6 6,-7 9,-10 -55,-11 -81,-19 -95,-68 130,-50 195,33 327,-78 101,-84 97,-193 178,-219 40,76 12,130 -9,211 91,-144 21,-291 -73,-380 -43,-40 -104,-73 -182,-85 -44,-7 -90,-6 -134,1 -2,1 -49,14 -51,15 -48,22 -22,8 -47,31z"/>
   <path class="fil9" d="M5046 1488c122,-446 -558,-581 -684,-197 -73,222 96,387 248,424 205,50 394,-74 436,-227z"/>
   <path class="fil9" d="M7050 1279c-118,-39 -168,-106 -244,-142 -378,-69 -574,398 -272,589 155,99 329,79 454,-23 145,-120 130,-272 62,-424z"/>
   <path class="fil8" d="M4574 860c-61,-45 -79,-120 -71,-211 24,-267 471,-274 553,-194 -11,73 -41,71 -120,102 -331,131 -222,237 -362,303zm43 -439c-70,59 -147,86 -187,191 -38,99 -2,198 55,262 256,295 924,141 852,-225 -17,-87 -92,-161 -150,-196 -162,-99 -191,-39 -232,-102 -63,32 -97,13 -180,26 -58,9 -108,33 -158,44z"/>
   <path class="fil9" d="M5637 1047c53,-2 127,-3 186,3 5,-47 4,-77 17,-122l65 -102 88 -83c4,-5 9,-16 12,-12 2,3 12,-14 22,-20 23,-14 27,-11 45,-16 -11,-77 -32,-134 -82,-186l-109 -81c-49,-28 -9,4 -50,-30l7 -3 -50 2c-475,-38 -612,477 -151,650z"/>
   <path class="fil9" d="M2562 1710c60,38 165,72 250,43l112 -48c190,-99 223,-530 -90,-585 -289,-50 -505,321 -309,545l37 45z"/>
   <path class="fil9" d="M8345 999c-29,60 -79,82 -142,108 -50,21 -136,56 -187,29 7,62 32,67 48,138 38,56 16,98 22,167 92,72 164,127 324,109 114,-12 212,-78 261,-161 141,-244 -40,-456 -270,-496 -17,36 -48,78 -56,106z"/>
   <path class="fil7" d="M3422 2904c-345,151 -324,866 10,734 336,-133 333,-883 -10,-734z"/>
   <path class="fil7" d="M2877 2454c-309,178 -213,850 89,732 128,-49 196,-245 193,-420 -3,-161 -99,-418 -282,-312z"/>
   <path class="fil7" d="M2296 2512c-264,95 -203,823 100,729 254,-80 206,-839 -100,-729z"/>
   <path class="fil7" d="M1804 2891c-272,106 -83,784 172,680 229,-93 70,-774 -172,-680z"/>
   <path class="fil8" d="M6059 724c103,-8 287,-22 291,93 -138,65 -173,10 -275,127 -114,131 -63,210 -177,215 -72,-112 -40,-212 7,-333l-65 102c-13,45 -12,75 -17,122 83,221 161,303 431,290 -92,-3 -222,-9 -251,-110 133,0 246,20 335,-68 38,-39 57,-73 84,-120 148,-258 90,78 97,99 46,-234 -28,-393 -248,-444 -42,-10 -79,-14 -122,-9 -18,2 -39,7 -56,14l-34 22z"/>
   <path class="fil10" d="M3715 46c-72,32 -64,28 -123,102 -39,50 1,20 -37,45 28,30 -8,97 -6,187 2,75 -4,118 58,166 58,-20 16,15 59,-47 26,-38 47,-130 111,-214 100,-130 141,-70 281,-132 -4,-43 1,-84 -128,-108 -134,-26 -124,25 -215,1z"/>
   <path class="fil10" d="M4574 860c140,-66 31,-172 362,-303 79,-31 109,-29 120,-102 -82,-80 -529,-73 -553,194 -8,91 10,166 71,211z"/>
   <path class="fil10" d="M6764 937c95,24 160,-71 271,-90 134,-22 225,27 345,-1 8,-92 -66,-118 -139,-154 -335,-169 -518,30 -477,245z"/>
   <path class="fil10" d="M5993 743l-88 83c-47,121 -79,221 -7,333 114,-5 63,-84 177,-215 102,-117 137,-62 275,-127 -4,-115 -188,-101 -291,-93l-66 19z"/>
   <path class="fil10" d="M3464 1488c98,-17 109,-139 175,-218 91,-109 134,-75 280,-122 -3,-57 -6,-54 -51,-76 -259,-127 -569,138 -404,416z"/>
   <path class="fil10" d="M2312 537c-58,44 -101,62 -135,135 -28,98 -40,217 26,284 90,-10 125,-166 178,-226 103,-119 216,-63 275,-131 -57,-112 -230,-82 -344,-62z"/>
   <path class="fil10" d="M7834 548c-15,23 -39,41 -56,65 -54,109 -77,230 -9,329 102,-11 119,-148 182,-226 91,-110 172,-73 250,-111 29,-14 12,-3 31,-22 -25,-49 -6,-35 -72,-61 -142,-56 -220,-5 -326,26z"/>
   <path class="fil11" d="M8016 1136c51,27 137,-8 187,-29 63,-26 113,-48 142,-108 12,-90 93,-131 37,-276 -80,41 -53,100 -182,227 -84,84 -189,60 -325,63 20,62 14,44 66,72l75 51z"/>
   <line class="fil8" x1="5637" y1="1047" x2="5637" y2= "1047" />
  </g>
 </g>
</svg>
