<?xml version="1.0" encoding="UTF-8"?>
<!DOCTYPE svg PUBLIC "-//W3C//DTD SVG 1.1//EN" "http://www.w3.org/Graphics/SVG/1.1/DTD/svg11.dtd">
<!-- Creator: CorelDRAW 2017 -->
<svg xmlns="http://www.w3.org/2000/svg" xml:space="preserve" width="269px" height="282px" version="1.1" style="shape-rendering:geometricPrecision; text-rendering:geometricPrecision; image-rendering:optimizeQuality; fill-rule:evenodd; clip-rule:evenodd"
viewBox="0 0 66318 69719"
 xmlns:xlink="http://www.w3.org/1999/xlink">
 <defs>
  <style type="text/css">
   <![CDATA[
    .fil27 {fill:#020102}
    .fil32 {fill:#060406}
    .fil28 {fill:#2B2B2E}
    .fil9 {fill:#412A25}
    .fil11 {fill:#553522}
    .fil3 {fill:#553624}
    .fil31 {fill:#563827}
    .fil8 {fill:#72442A}
    .fil29 {fill:#78642F}
    .fil18 {fill:#8C5A33}
    .fil10 {fill:#926046}
    .fil1 {fill:#9E6026}
    .fil0 {fill:#BE7025}
    .fil4 {fill:#BEAC9E}
    .fil26 {fill:#CB824B}
    .fil30 {fill:#CCB239}
    .fil22 {fill:#CF381C}
    .fil33 {fill:#D68E4D}
    .fil21 {fill:#D98F4E}
    .fil16 {fill:#DA904F}
    .fil23 {fill:#E08282}
    .fil19 {fill:#E29453}
    .fil6 {fill:#E6D2BE}
    .fil20 {fill:#E99555}
    .fil2 {fill:#E9D4C1}
    .fil5 {fill:#EE8625}
    .fil24 {fill:#F24629}
    .fil25 {fill:#F4A45B}
    .fil7 {fill:#F5A75D}
    .fil35 {fill:#F6F6F5}
    .fil17 {fill:#FAA85D}
    .fil36 {fill:#FBFBFB}
    .fil15 {fill:#FCA65B}
    .fil34 {fill:#FDFBF5}
    .fil12 {fill:#999999;fill-rule:nonzero}
    .fil14 {fill:red;fill-rule:nonzero}
    .fil13 {fill:white;fill-rule:nonzero}
   ]]>
  </style>
 </defs>
 <g id="Layer_x0020_1">
  <metadata id="CorelCorpID_0Corel-Layer"/>
  <g id="_2897950375152">
   <path class="fil0" d="M9687 65129c-158,-896 634,-1671 1441,-1912 932,-278 1652,398 2055,1176 217,420 236,921 -60,1256 -394,448 -776,6 -1166,-156 -509,-211 -902,4 -1329,161 -516,188 -833,89 -941,-525zm3873 -2823c872,-380 879,1527 25,1865 -849,337 -901,-1483 -25,-1865zm-4112 -34c615,-239 1017,1492 436,1729 -649,265 -1128,-1460 -436,-1729zm1250 -964c778,-278 900,1652 254,1853 -770,240 -925,-1612 -254,-1853zm1477 -147c466,-270 709,385 717,794 8,443 -166,941 -492,1068 -767,298 -1010,-1408 -225,-1862zm-6199 3744c-218,840 -448,1103 1476,1645 2198,620 7253,1050 9523,998l2898 2 402 -7022c-2201,64 -4407,5 -6596,-182 -1363,-117 -3005,-324 -4315,-705 -712,-206 -646,-242 -1176,-505 -211,-178 -154,-237 -301,-426l-1911 6195z"/>
   <path class="fil1" d="M20275 60528l-402 7022c553,47 1429,-25 2011,-48 642,-26 1302,-58 1941,-106 1278,-97 2537,-217 3793,-406l104 -43c-250,-1074 -470,-2357 -668,-3457 -105,-587 -656,-3190 -658,-3532 -1954,409 -4092,464 -6121,570z"/>
   <path class="fil2" d="M4860 67612c223,73 85,97 313,267 1299,968 5377,1381 6860,1514 2058,184 4353,270 6439,272 733,1 1542,-55 2257,-27 72,-418 -29,-935 43,-1416l-184 -137c-827,-548 -366,-510 -1442,-495 -381,5 -1916,31 -2171,-42 -2270,52 -7325,-378 -9523,-998 -1924,-542 -1694,-805 -1476,-1645l-86 50c-9,4 -19,10 -28,14l-547 287c-178,117 -388,269 -414,545 -32,338 56,1659 -41,1811z"/>
   <path class="fil3" d="M17690 58704c-107,389 -588,704 -1108,577 -388,-94 -818,-511 -631,-1078 321,-974 2050,-633 1739,501zm1501 -1120l0 0zm-8795 -954c86,-185 193,-232 343,-343 63,-59 -4,-24 120,-80 4,-2 123,-35 128,-36 112,-20 228,-21 341,-4 198,31 353,114 462,217 241,226 418,600 185,965 55,-206 126,-342 25,-535 -207,64 -197,343 -454,557 -336,281 -499,70 -830,198 36,125 101,143 241,173 -8,8 -20,8 -23,24l-52 82c-38,108 50,518 -430,804 -338,202 -766,133 -1023,-104 -624,-575 -143,-1643 845,-1415 -7,-119 -20,-162 1,-282 0,-1 38,-115 39,-116 78,-143 12,-39 82,-105zm7062 -816c104,160 178,8 591,259 146,90 338,277 382,499 180,929 -1516,1322 -2169,573 -143,-164 -235,-415 -139,-667 101,-267 299,-336 475,-487 -172,-37 -77,-14 -207,-125 -53,-46 -129,-94 -220,-137 -159,-77 -341,-122 -544,-144 19,164 42,411 -11,589 -34,115 -150,320 -211,366 147,-225 281,-494 196,-863 -244,85 -177,311 -468,639 -234,263 -509,166 -873,202 63,320 247,97 428,382 156,245 156,375 99,654 236,186 367,227 477,543 98,280 -23,641 -185,791 116,-221 238,-367 170,-719 -154,4 -157,85 -246,236 -398,673 -572,367 -1052,497 20,88 10,53 122,168l51 51c-440,-85 -668,-460 -621,-985 -690,-31 -1410,-690 -820,-1292 176,-180 124,-151 350,-245 406,-168 540,-102 957,-107 -77,-176 -139,-196 -158,-405 -123,50 -194,56 -343,14 -392,-34 -640,205 -860,409 -56,52 -14,23 -66,54 -187,-420 -472,-697 -1031,-753 -562,-101 -1411,230 -1379,1114 -1236,3 -1156,772 -1352,992l-156 191c-137,392 -43,454 255,610 230,121 483,186 737,251 500,129 1202,263 1736,300l-95 -114c-497,-571 52,-1513 787,-1385 797,138 713,1234 228,1488l-285 121c575,-32 1553,119 2181,155 728,41 1452,84 2181,98 2660,52 8404,20 10895,-595 1537,-380 1222,-455 1215,-902 77,-799 -548,-1181 -1163,-1199 -342,-10 -471,105 -715,139 -129,-308 -11,-319 -279,-590 -133,-135 -313,-306 -560,-305l-89 17c168,37 188,27 289,131 253,260 318,444 256,865 586,100 1046,639 687,1259 -123,211 -374,380 -662,412 -408,44 -591,-95 -826,-279 -14,-174 42,-283 -56,-423 149,1104 -1030,1294 -1492,735 -181,-219 -177,-373 -195,-714 -251,92 -596,89 -890,-10 172,387 212,773 -159,1077 -316,260 -758,312 -1153,61 -768,-488 -269,-1673 692,-1499 -99,-190 -186,-215 -264,-441 -472,-1359 2050,-1261 2174,251 231,-34 247,-99 575,-94 -177,-323 -387,-655 -14,-1048 44,-60 103,-107 142,-165 71,-90 -106,-58 126,-81l-72 -11c-237,21 -320,185 -508,264 -349,-326 -878,-74 -1111,-263 -383,-311 -591,-344 -1182,-311 -119,-379 -613,-664 -1177,-645 -550,19 -790,224 -1027,549 -95,130 -4,71 -141,117 104,86 1,5 126,77l279 204c126,134 179,277 207,472 -46,13 -55,6 -113,42 -27,16 -52,59 -58,50 -6,-9 -20,20 -29,31l167 -48 88 -56c41,-17 96,-30 141,-35 111,-12 204,-2 311,22 559,130 746,536 629,1131 -16,-56 130,-910 -245,-252 -68,119 -118,206 -216,303 -224,225 -511,173 -850,173 73,258 405,272 639,281 -687,33 -885,-175 -1097,-739 -149,-13 -337,-11 -474,-6 -1172,-441 -822,-1751 386,-1653l127 -4c-104,-402 -551,-690 -1072,-719 -528,-30 -1110,254 -1174,606z"/>
   <path class="fil0" d="M26396 59958c2,342 553,2945 658,3532 198,1100 418,2383 668,3457l-104 43 129 -16c545,-156 1370,-225 2324,-519 1766,-543 1282,-920 1182,-1445 -157,-245 -1921,-6003 -2073,-6201 -428,740 -2022,1020 -2784,1149z"/>
   <path class="fil4" d="M19873 67550l-2898 -2c255,73 1790,47 2171,42 1076,-15 615,-53 1442,495l184 137c-72,481 29,998 -43,1416 1302,-7 5839,-296 7257,-597 149,-32 844,-136 945,-181l-184 19 -55 -1371c-272,-200 -671,-365 -945,-534l-129 16c-1256,189 -2515,309 -3793,406 -639,48 -1299,80 -1941,106 -582,23 -1458,95 -2011,48z"/>
   <path class="fil5" d="M7887 58710c147,189 90,248 301,426 76,-23 697,272 1102,382 4183,1138 14574,1118 18602,-40 951,-273 1925,-815 588,-1343 7,447 322,522 -1215,902 -2491,615 -8235,647 -10895,595 -729,-14 -1453,-57 -2181,-98 -628,-36 -1606,-187 -2181,-155 -216,75 -481,-12 -635,-110 -534,-37 -1236,-171 -1736,-300 -254,-65 -507,-130 -737,-251 -298,-156 -392,-218 -255,-610 -322,84 -660,308 -758,602z"/>
   <path class="fil6" d="M27747 66974c274,169 673,334 945,534l55 1371 184 -19c792,-154 1524,-338 2219,-613 376,-149 636,-300 849,-539 172,-194 109,-975 132,-1307 -14,-395 73,-712 -171,-958 -179,-181 -434,-284 -707,-433 100,525 584,902 -1182,1445 -954,294 -1779,363 -2324,519z"/>
   <path class="fil7" d="M9687 65129c108,614 425,713 941,525 427,-157 820,-372 1329,-161 390,162 772,604 1166,156 296,-335 277,-836 60,-1256 -403,-778 -1123,-1454 -2055,-1176 -807,241 -1599,1016 -1441,1912z"/>
   <path class="fil8" d="M22057 57303c-105,-546 363,-1052 1215,-623 184,93 371,159 352,391 -304,72 -537,-53 -877,5 -282,48 -448,290 -690,227zm2775 -1080l72 11c-232,23 -55,-9 -126,81 271,-78 467,-207 830,-66 168,66 120,29 181,155 -46,47 -4,21 -78,57 -198,95 -404,0 -635,281 -161,197 -203,546 -462,575 -173,-253 -114,-559 22,-837 -373,393 -163,725 14,1048 -328,-5 -344,60 -575,94 -124,-1512 -2646,-1610 -2174,-251 78,226 165,251 264,441 192,93 321,263 620,361 294,99 639,102 890,10 18,341 14,495 195,714 462,559 1641,369 1492,-735 -40,-182 -103,-195 -120,-352l-193 -130c-131,-72 -116,-26 -166,-183 344,-7 611,52 827,-161 326,-322 259,-473 462,-577 142,368 -65,473 -94,703 20,-71 99,-179 141,-269 62,-421 -3,-605 -256,-865 -101,-104 -121,-94 -289,-131l89 -17c-177,-154 -773,-128 -931,43z"/>
   <path class="fil8" d="M13667 58705c-419,-707 370,-1380 1028,-1057 113,56 121,48 128,191 -371,121 -480,34 -711,312 -167,200 -195,512 -445,554zm640 -3667c231,63 205,-67 544,-3 328,62 317,165 327,274 -355,160 -460,6 -715,338 -163,212 -216,447 -283,544 -108,156 -1,67 -150,118 -157,-121 -141,-230 -146,-422 -5,-229 87,-397 14,-475 -59,262 -108,328 -88,656 -140,-4 -227,-28 -321,33 149,42 220,36 343,-14 19,209 81,229 158,405 -417,5 -551,-61 -957,107 -226,94 -174,65 -350,245 -590,602 130,1261 820,1292 -47,525 181,900 621,985l-51 -51c-112,-115 -102,-80 -122,-168 480,-130 654,176 1052,-497 89,-151 92,-232 246,-236 68,352 -54,498 -170,719 162,-150 283,-511 185,-791 -110,-316 -241,-357 -477,-543 57,-279 57,-409 -99,-654 -181,-285 -365,-62 -428,-382 364,-36 639,61 873,-202 291,-328 224,-554 468,-639 85,369 -49,638 -196,863 61,-46 177,-251 211,-366 53,-178 30,-425 11,-589 -207,-465 -701,-871 -1320,-547z"/>
   <path class="fil8" d="M10739 56287c289,-52 728,-127 874,156 -151,173 -438,33 -700,334 -134,154 -224,549 -452,575 -168,-170 -137,-471 -65,-722 -70,66 -4,-38 -82,105 -1,1 -39,115 -39,116 -21,120 -8,163 -1,282 -988,-228 -1469,840 -845,1415 257,237 685,306 1023,104 480,-286 392,-696 430,-804l52 -82c3,-16 15,-16 23,-24 -140,-30 -205,-48 -241,-173 331,-128 494,83 830,-198 257,-214 247,-493 454,-557 101,193 30,329 -25,535 233,-365 56,-739 -185,-965 -109,-103 -264,-186 -462,-217 -113,-17 -229,-16 -341,4 -5,1 -124,34 -128,36 -124,56 -57,21 -120,80z"/>
   <path class="fil9" d="M17690 58704c311,-1134 -1418,-1475 -1739,-501 -187,567 243,984 631,1078 520,127 1001,-188 1108,-577z"/>
   <path class="fil9" d="M22785 58173c-299,-98 -428,-268 -620,-361 -961,-174 -1460,1011 -692,1499 395,251 837,199 1153,-61 371,-304 331,-690 159,-1077z"/>
   <path class="fil8" d="M16489 57108c-154,-114 -201,-304 -181,-537 61,-677 1197,-695 1407,-492 -28,185 -103,179 -305,259 -842,332 -566,601 -921,770zm109 -1117c-176,151 -374,220 -475,487 -96,252 -4,503 139,667 653,749 2349,356 2169,-573 -44,-222 -236,-409 -382,-499 -413,-251 -487,-99 -591,-259 -159,80 -247,34 -458,66 -147,23 -273,83 -402,111z"/>
   <path class="fil9" d="M19191 57584c137,-5 325,-7 474,6 12,-119 11,-195 44,-309l164 -260 225 -211c9,-11 23,-40 29,-31 6,9 31,-34 58,-50 58,-36 67,-29 113,-42 -28,-195 -81,-338 -207,-472l-279 -204c-125,-72 -22,9 -126,-77l18 -7 -127 4c-1208,-98 -1558,1212 -386,1653z"/>
   <path class="fil9" d="M11373 59269c154,98 419,185 635,110l285 -121c485,-254 569,-1350 -228,-1488 -735,-128 -1284,814 -787,1385l95 114z"/>
   <path class="fil9" d="M26078 57462c-75,151 -201,207 -362,274 -128,53 -344,141 -474,74 17,157 80,170 120,352 98,140 42,249 56,423 235,184 418,323 826,279 288,-32 539,-201 662,-412 359,-620 -101,-1159 -687,-1259 -42,90 -121,198 -141,269z"/>
   <path class="fil7" d="M13560 62306c-876,382 -824,2202 25,1865 854,-338 847,-2245 -25,-1865z"/>
   <path class="fil7" d="M12175 61161c-785,454 -542,2160 225,1862 326,-127 500,-625 492,-1068 -8,-409 -251,-1064 -717,-794z"/>
   <path class="fil7" d="M10698 61308c-671,241 -516,2093 254,1853 646,-201 524,-2131 -254,-1853z"/>
   <path class="fil7" d="M9448 62272c-692,269 -213,1994 436,1729 581,-237 179,-1968 -436,-1729z"/>
   <path class="fil8" d="M20265 56762c263,-19 729,-55 739,237 -348,165 -439,26 -699,324 -289,331 -160,533 -450,546 -182,-285 -101,-540 18,-848l-164 260c-33,114 -32,190 -44,309 212,564 410,772 1097,739 -234,-9 -566,-23 -639,-281 339,0 626,52 850,-173 98,-97 148,-184 216,-303 375,-658 229,196 245,252 117,-595 -70,-1001 -629,-1131 -107,-24 -200,-34 -311,-22 -45,5 -100,18 -141,35l-88 56z"/>
   <path class="fil10" d="M14307 55038c-183,82 -165,71 -314,261 -100,126 1,50 -95,113 73,78 -19,246 -14,475 5,192 -11,301 146,422 149,-51 42,38 150,-118 67,-97 120,-332 283,-544 255,-332 360,-178 715,-338 -10,-109 1,-212 -327,-274 -339,-64 -313,66 -544,3z"/>
   <path class="fil10" d="M16489 57108c355,-169 79,-438 921,-770 202,-80 277,-74 305,-259 -210,-203 -1346,-185 -1407,492 -20,233 27,423 181,537z"/>
   <path class="fil10" d="M22057 57303c242,63 408,-179 690,-227 340,-58 573,67 877,-5 19,-232 -168,-298 -352,-391 -852,-429 -1320,77 -1215,623z"/>
   <path class="fil10" d="M20098 56810l-225 211c-119,308 -200,563 -18,848 290,-13 161,-215 450,-546 260,-298 351,-159 699,-324 -10,-292 -476,-256 -739,-237l-167 48z"/>
   <path class="fil10" d="M13667 58705c250,-42 278,-354 445,-554 231,-278 340,-191 711,-312 -7,-143 -15,-135 -128,-191 -658,-323 -1447,350 -1028,1057z"/>
   <path class="fil10" d="M10739 56287c-150,111 -257,158 -343,343 -72,251 -103,552 65,722 228,-26 318,-421 452,-575 262,-301 549,-161 700,-334 -146,-283 -585,-208 -874,-156z"/>
   <path class="fil10" d="M24778 56315c-39,58 -98,105 -142,165 -136,278 -195,584 -22,837 259,-29 301,-378 462,-575 231,-281 437,-186 635,-281 74,-36 32,-10 78,-57 -61,-126 -13,-89 -181,-155 -363,-141 -559,-12 -830,66z"/>
   <path class="fil11" d="M25242 57810c130,67 346,-21 474,-74 161,-67 287,-123 362,-274 29,-230 236,-335 94,-703 -203,104 -136,255 -462,577 -216,213 -483,154 -827,161 50,157 35,111 166,183l193 130z"/>
   <line class="fil8" x1="19191" y1="57584" x2="19191" y2= "57584" />
  </g>
  <g id="_2897950324912">
   <path class="fil12" d="M32120 27032c0,-361 -338,-654 -754,-654 -417,0 -755,293 -755,654 0,360 338,653 755,653 416,0 754,-293 754,-653z"/>
   <path class="fil12" d="M29537 23923c0,-722 -676,-1307 -1509,-1307 -833,0 -1509,585 -1509,1307 0,721 676,1306 1509,1306 833,0 1509,-585 1509,-1306z"/>
   <path class="fil12" d="M26006 19930c0,-1082 -1014,-1959 -2264,-1959 -1250,0 -2263,877 -2263,1959 0,1082 1013,1960 2263,1960 1250,0 2264,-878 2264,-1960z"/>
   <path class="fil12" d="M1940 8326c-4025,-2271 -1007,-6055 2012,-5298 0,-2271 5030,-3028 7042,-757 0,-3028 6036,-3028 6036,0 3018,-2271 8048,757 6036,3027 3018,757 2012,4542 0,4542 3018,756 2012,4541 0,4541 2012,2271 -3018,5298 -6036,2271 -1006,3027 -7042,3027 -7042,0 -2012,2270 -6036,1513 -5030,-757 -3018,757 -5030,-2271 -3018,-3785 -2012,0 -3019,-3784 0,-3784z"/>
   <polygon class="fil13" points="9702,7181 8978,7181 8978,9253 8405,9253 8405,7181 7685,7181 7685,6716 9702,6716 "/>
   <path id="1" class="fil13" d="M11728 9253l-558 0 0 -1030c0,-265 -96,-398 -290,-398 -99,0 -179,37 -240,112 -62,74 -93,169 -93,283l0 1033 -558 0 0 -2682 558 0 0 1139 8 0c137,-208 322,-313 557,-313 411,0 616,248 616,743l0 1113z"/>
   <path id="2" class="fil13" d="M13677 9253l-529 0 0 -260 -7 0c-122,203 -301,304 -540,304 -176,0 -314,-50 -415,-149 -101,-100 -151,-233 -151,-399 0,-352 209,-555 625,-609l492 -65c0,-198 -108,-297 -323,-297 -215,0 -421,64 -615,192l0 -420c78,-41 184,-76 319,-107 135,-31 258,-46 369,-46 517,0 775,258 775,773l0 1083zm-525 -736l0 -122 -329 42c-182,24 -273,106 -273,247 0,63 22,115 66,156 45,40 105,61 180,61 105,0 190,-36 257,-109 65,-72 99,-164 99,-275z"/>
   <path id="3" class="fil13" d="M15869 9253l-557 0 0 -1007c0,-280 -101,-421 -301,-421 -97,0 -176,37 -239,112 -62,74 -94,169 -94,283l0 1033 -558 0 0 -1812 558 0 0 287 7 0c134,-221 328,-331 583,-331 401,0 601,249 601,747l0 1109z"/>
   <polygon id="4" class="fil13" points="18127,9253 17456,9253 16877,8354 16870,8354 16870,9253 16312,9253 16312,6571 16870,6571 16870,8278 16877,8278 17417,7441 18080,7441 17431,8292 "/>
   <path id="5" class="fil13" d="M10188 10286l-826 1634 0 902 -571 0 0 -892 -805 -1644 653 0 408 946c8,17 27,87 58,207l8 0c15,-85 33,-152 55,-200l416 -953 604 0z"/>
   <path id="6" class="fil13" d="M10958 12866c-302,0 -539,-84 -712,-253 -173,-169 -259,-399 -259,-689 0,-300 89,-535 269,-704 179,-169 422,-253 727,-253 300,0 537,84 707,253 171,169 257,393 257,672 0,300 -88,538 -264,713 -177,174 -418,261 -725,261zm14 -1471c-132,0 -234,45 -308,136 -73,91 -109,219 -109,385 0,348 140,522 421,522 268,0 402,-179 402,-535 0,-339 -136,-508 -406,-508z"/>
   <path id="7" class="fil13" d="M14031 12822l-557 0 0 -276 -9 0c-138,213 -322,320 -554,320 -420,0 -629,-254 -629,-762l0 -1093 557 0 0 1043c0,256 101,384 304,384 101,0 180,-35 241,-105 60,-70 90,-165 90,-285l0 -1037 557 0 0 1811z"/>
   <path id="8" class="fil14" d="M17039 10496c69,0 137,12 202,38 65,25 123,64 173,115 50,51 91,116 120,194 31,78 46,170 46,276 0,118 -19,227 -57,330 -38,102 -87,198 -149,287 -61,90 -130,174 -207,252 -78,79 -156,154 -235,225 -79,71 -155,139 -229,205 -74,65 -137,130 -190,192l-16 0c-53,-62 -116,-127 -189,-192 -73,-66 -149,-134 -228,-205 -79,-71 -158,-146 -235,-225 -77,-78 -146,-162 -208,-252 -61,-89 -110,-185 -148,-287 -38,-103 -57,-212 -57,-330 0,-106 15,-198 45,-276 30,-78 70,-143 120,-194 50,-51 108,-90 174,-115 65,-26 133,-38 202,-38 67,0 128,9 182,26 53,18 102,42 144,72 44,30 81,64 114,103 33,38 60,77 84,118l16 0c23,-41 52,-80 85,-118 33,-39 71,-73 114,-103 43,-30 91,-54 145,-72 54,-17 114,-26 182,-26z"/>
  </g>
  <g id="_2897950327824">
   <path class="fil15" d="M64558 40243c36,560 -381,610 -541,343 -196,-325 133,-557 541,-343zm-1940 -1777c1060,-519 1751,1926 637,2409 -1101,477 -1689,-1894 -637,-2409zm1500 1322c-14,-455 -25,-442 348,-594 528,331 202,663 -348,594zm-285 -1281c31,-487 489,-287 513,-285 113,443 -64,604 -433,549 -89,-199 -114,263 -80,-264zm-649 -347c-136,-402 12,-597 415,-520 178,436 22,607 -415,520zm-33520 -5096c312,207 368,226 231,563 -1,1 103,214 -306,61 -90,-33 -442,-314 75,-624zm662 1500c-589,-1436 1023,-2566 1738,-1926 724,646 -240,2296 -1738,1926zm-16 -2301c118,342 145,234 0,559 -413,166 -627,-88 -341,-556l341 -3zm406 -533c711,-361 706,531 135,516 -235,-287 -198,-156 -135,-516zm1347 472c-507,-86 -511,-178 -376,-641 539,-2 543,280 376,641zm-3337 2443c1068,308 2095,3953 3193,5695 614,973 1680,2369 2460,3147 211,212 384,308 600,522 276,274 278,304 582,546 243,194 395,358 657,472 -120,812 -452,1794 -637,2665 -520,2454 -766,6590 489,8587 74,-587 60,-889 330,-1362l292 451c1203,2189 5208,4165 7399,4329 2575,193 5453,-356 7287,-2029 754,-687 1281,-1619 1556,-1604 738,350 375,774 462,1596 1019,-329 2243,-2585 2610,-3937 556,-2046 381,-4118 354,-6234 269,-237 822,-419 1229,-644 2066,-1141 3852,-2643 5600,-4203 160,-143 74,-79 217,-192 605,-475 1472,-1393 2243,-1186l345 -1277c-489,-68 -704,94 -1026,-51 81,-185 -130,-309 1010,-321 -42,-715 -87,-1206 -539,-1139 -376,55 -322,251 -731,264 -11,1 -43,-1 -62,-9 -73,-407 407,-479 828,-613 -517,-1128 -1162,-302 -1461,-283 -181,-470 -86,-246 274,-543 -1176,-78 -1887,511 -2772,919 -1645,759 -2691,641 -3259,1435 -808,1130 -2185,2750 -3714,2820 -232,541 -881,1318 -1357,1808 -1423,1469 -1138,1093 -2467,2213 -706,596 -2237,1284 -3273,1360 -703,2699 -4852,2429 -4759,-722 -856,-730 -1848,-1658 -2270,-2770 -163,-458 -397,-547 -662,-938 -221,-325 -300,-618 -529,-1015 -497,-866 -563,-1506 -709,-2464 -685,-137 -1148,-203 -1444,-572 -332,-414 -622,-668 -933,-1214 -514,-902 -873,-2326 -1382,-2902l-895 -1149c-1330,-1979 -1276,-3617 -2860,-3548 130,283 285,498 244,830 -417,-170 -334,-386 -664,-717l-712 286c118,402 488,472 459,965 -193,33 -295,174 -631,-686 -436,274 -433,451 -724,844 389,486 553,304 447,775 -267,-55 -302,-194 -599,-343 -259,789 -181,1335 -96,2138z"/>
   <path class="fil16" d="M36278 66926c659,-248 1818,-165 2576,-76 2120,248 2123,1478 811,1570 -298,21 -221,41 -363,-50 -196,218 -141,492 -151,845 4115,-353 1148,-3002 4231,-7194 240,-326 645,-570 914,-887 -765,132 -3052,991 -3199,977 357,-928 3925,-1472 4692,-1471 1105,2 3440,531 4376,1052 455,253 343,84 267,432 -67,0 -2295,-866 -3111,-988 1066,1258 1886,1704 2406,4157 541,2552 -239,3459 2705,3934 43,-391 59,-610 -92,-927 55,289 0,338 -857,47 -417,-142 -526,-278 -832,-460 -40,-1525 2255,-1603 3433,-1476 405,43 989,213 1309,193 913,-1732 1577,-6393 1821,-8614 183,-1669 255,-3301 244,-4990 -10,-1718 -233,-3303 -307,-4899l2270 -1475c779,-519 1586,-1061 2269,-1615 277,-225 312,-210 533,-376 180,-134 311,-291 495,-426l1625 -1234c239,-196 229,-308 460,-559 578,-628 321,-13 846,-1152 -771,-207 -1638,711 -2243,1186 -143,113 -57,49 -217,192 -1748,1560 -3534,3062 -5600,4203 -407,225 -960,407 -1229,644 27,2116 202,4188 -354,6234 -367,1352 -1591,3608 -2610,3937 -87,-822 276,-1246 -462,-1596 -275,-15 -802,917 -1556,1604 -1834,1673 -4712,2222 -7287,2029 -2191,-164 -6196,-2140 -7399,-4329l-292 -451c-270,473 -256,775 -330,1362 -1255,-1997 -1009,-6133 -489,-8587 185,-871 517,-1853 637,-2665 -262,-114 -414,-278 -657,-472 -304,-242 -306,-272 -582,-546 -216,-214 -389,-310 -600,-522 -780,-778 -1846,-2174 -2460,-3147 -1098,-1742 -2125,-5387 -3193,-5695 573,2214 3399,8157 5194,10217 254,293 325,423 547,684 289,342 388,268 343,876 -58,763 -205,1565 -299,2336 -401,3280 -540,6498 -193,9804 249,2365 666,4203 1312,6436 184,636 541,1389 648,1928z"/>
   <path class="fil17" d="M50562 34375c1091,-322 1470,1372 494,1654 -1211,350 -1513,-1353 -494,-1654zm-7149 -1124c1059,-381 1584,1295 581,1630 -1171,391 -1578,-1272 -581,-1630zm-7880 165c1154,-168 2191,-1666 2808,-2584 600,-894 1553,-2293 2754,-2445 -99,332 -66,117 -79,402 -169,478 -520,850 -506,1460 2,740 381,739 802,1206 889,985 -442,2338 1208,4099 297,316 387,676 412,720 738,-742 1271,-370 2387,-1890 209,-284 61,-213 368,-310 191,233 426,367 -299,1068 -502,485 -607,665 -1336,1041l-1052 582c-519,85 -701,-671 -1504,410 -813,1095 184,3513 477,3683 263,204 77,-31 238,314 35,75 115,357 150,461 295,855 710,1516 1554,1944 -342,-1031 -792,-680 -1224,-2688 -119,-557 -283,-1074 -480,-1562 -199,-496 -638,-1006 -623,-1452 1455,-280 1932,1712 3890,1451 726,-97 908,-193 914,-920 -868,-418 -1661,-829 -1647,-2042 645,-832 2371,-482 3326,-139 1550,557 851,1561 -193,2022 -617,272 -1354,28 -1138,828 102,380 863,705 1351,784 1372,220 2144,-887 3402,-421 25,515 -908,853 -1851,2406 -1352,2226 -1560,1394 -2068,2315 926,-146 1572,-699 2082,-1375 253,-335 153,-334 531,-615 309,-332 500,-709 905,-1108 260,-256 907,-719 1052,-1004 391,-763 -599,-1827 -882,-2026 -441,-310 136,-19 -592,89 -198,-300 -2745,-2564 -1921,-3499 560,180 101,143 671,1198 202,374 721,1160 1192,1235 269,43 579,42 844,-16 577,-127 649,-344 942,-795 224,-346 558,-649 763,-1082 499,-1052 536,-2872 1917,-3354 -36,-369 -154,-456 -49,-743l1 -278 412 201c110,77 240,227 358,358 697,778 2024,4457 2496,5689 411,1072 152,739 451,851 94,-1368 -760,-2741 -1243,-3944 -477,-1186 -1052,-2542 -1905,-3404 -1022,-1033 -572,51 -1389,-1164 -176,-263 -398,-580 -581,-744l-2438 -1540c-2304,-930 -4015,-1225 -6638,-631 -2069,467 -2378,1169 -2659,1305 -450,217 -1427,-230 -3315,2004l-644 679c-782,1069 -2045,2111 -2402,2970z"/>
   <path class="fil18" d="M62995 52839c475,399 534,1509 505,2189 -39,919 -249,1267 -621,1999 -1049,2061 -2714,2352 -2892,2505 153,368 631,590 1018,697 -1004,1024 -3401,896 -3839,417l243 -1636 443 -2491c30,-5 58,-10 92,-15 84,-12 205,-19 295,-28 2564,-255 3519,-3098 3302,-5289 575,399 1380,893 1454,1652zm-18778 -12447c428,-55 663,-164 1165,-143 732,30 502,252 993,263 1297,29 947,113 1882,540 -151,1797 -474,3566 -2618,3225 -2118,-337 -1820,-2150 -1422,-3885zm-486 2175c-471,-398 -601,-1366 -777,-2134 -197,-857 -486,-1422 -780,-2078 762,184 1066,801 1737,1118 1231,583 1822,-73 2508,-56 185,4 1028,803 2023,857 987,54 1525,-580 2412,-520 -481,391 -1059,1178 -1416,1798 -385,670 -809,1485 -1333,1711l541 -2299c-1068,-554 -663,-615 -2227,-763 -789,-74 -1417,-519 -2504,19l-184 2347zm1340 -6199c916,-273 4528,-47 3340,1183 -1099,1138 -3327,434 -3340,-1183zm-6555 3570l435 -29 587 866c731,921 212,291 1047,998 164,139 -27,-8 169,140 608,461 1631,963 1895,1166 951,731 502,533 1661,976 1312,502 877,687 3374,419 504,-54 656,-290 2080,-556 728,-136 1431,-355 2033,-624 994,-446 1352,-883 1647,-1021 224,153 78,62 395,139l703 54c1529,-70 2906,-1690 3714,-2820 568,-794 1614,-676 3259,-1435 885,-408 1596,-997 2772,-919 -360,297 -455,73 -274,543 299,-19 944,-845 1461,283 -421,134 -901,206 -828,613 19,8 51,10 62,9 409,-13 355,-209 731,-264 452,-67 497,424 539,1139 -1140,12 -929,136 -1010,321 322,145 537,-17 1026,51l-345 1277c-525,1139 -268,524 -846,1152 -231,251 -221,363 -460,559l-1625 1234c-184,135 -315,292 -495,426 -221,166 -256,151 -533,376 -683,554 -1490,1096 -2269,1615l-2270 1475c74,1596 297,3181 307,4899 11,1689 -61,3321 -244,4990 -244,2221 -908,6882 -1821,8614l-82 276c391,441 600,292 897,1115 296,823 98,1107 -651,1272 38,-519 9,-1671 -653,-1634 -51,511 187,222 219,847 120,126 126,72 123,418 -1,259 -18,251 -121,478l-867 28 -38 -789c-29,-523 -218,-893 -572,-1045 -201,442 37,167 211,727 90,291 63,662 25,980 -329,98 -716,30 -1078,-23 -193,-1999 -719,-1806 -738,-1566 -26,338 146,118 272,612 151,317 135,536 92,927 -2944,-475 -2164,-1382 -2705,-3934 -520,-2453 -1340,-2899 -2406,-4157 816,122 3044,988 3111,988 76,-348 188,-179 -267,-432 -936,-521 -3271,-1050 -4376,-1052 -767,-1 -4335,543 -4692,1471 147,14 2434,-845 3199,-977 -269,317 -674,561 -914,887 -3083,4192 -116,6841 -4231,7194 10,-353 -45,-627 151,-845 53,-505 365,-471 152,-811 -529,82 -569,1069 -666,1713l-1061 74c-83,-1353 175,-945 341,-1789 -726,157 -794,1092 -700,1819l-933 -63c-149,-1723 319,-923 289,-1702 -350,61 -129,-98 -394,219 -294,351 -287,1044 -287,1458 -1588,-404 -423,-1923 235,-2362 -107,-539 -464,-1292 -648,-1928 -646,-2233 -1063,-4071 -1312,-6436 -347,-3306 -208,-6524 193,-9804 94,-771 241,-1573 299,-2336 45,-608 -54,-534 -343,-876 -222,-261 -293,-391 -547,-684 -1795,-2060 -4621,-8003 -5194,-10217 -85,-803 -163,-1349 96,-2138 297,149 332,288 599,343 106,-471 -58,-289 -447,-775 291,-393 288,-570 724,-844 336,860 438,719 631,686 29,-493 -341,-563 -459,-965l712 -286c330,331 247,547 664,717 41,-332 -114,-547 -244,-830 1584,-69 1530,1569 2860,3548l895 1149c509,576 868,2000 1382,2902 311,546 601,800 933,1214 296,369 759,435 1444,572zm-2983 -6522c357,-859 1620,-1901 2402,-2970l644 -679c1888,-2234 2865,-1787 3315,-2004 281,-136 590,-838 2659,-1305 2623,-594 4334,-299 6638,631l2438 1540c183,164 405,481 581,744 817,1215 367,131 1389,1164 853,862 1428,2218 1905,3404 483,1203 1337,2576 1243,3944 -176,748 -361,1103 -747,1610 -140,184 -371,496 -531,690 -128,156 -428,452 -548,551 -139,291 -820,849 -1221,1054 -519,264 -1120,482 -1764,315 -1863,-484 190,-6002 577,-6918 492,-1161 894,-2046 853,-3448 -23,-456 40,-600 -337,-675 -105,287 13,374 49,743 160,2577 -2991,5908 -1912,10289 -321,175 -477,337 -795,544 -688,446 -2180,947 -2975,981l887 -1150c155,-379 62,-239 -96,-302 -378,281 -278,280 -531,615 -510,676 -1156,1229 -2082,1375 508,-921 716,-89 2068,-2315 943,-1553 1876,-1891 1851,-2406 -1258,-466 -2030,641 -3402,421 -488,-79 -1249,-404 -1351,-784 -216,-800 521,-556 1138,-828 1044,-461 1743,-1465 193,-2022 -955,-343 -2681,-693 -3326,139 -14,1213 779,1624 1647,2042 -6,727 -188,823 -914,920 -1958,261 -2435,-1731 -3890,-1451 -15,446 424,956 623,1452 197,488 361,1005 480,1562 432,2008 882,1657 1224,2688 -844,-428 -1259,-1089 -1554,-1944 -35,-104 -115,-386 -150,-461 -161,-345 25,-110 -238,-314l384 1634c-904,-265 -2803,-1811 -3091,-2811 893,-520 1104,-3027 1197,-4231 77,-1007 -233,-4745 47,-5201 -14,-610 337,-982 506,-1460 -427,-71 -491,197 -681,690 -841,2178 559,5869 -798,9212 -327,807 -764,1165 -1757,670 -1532,-764 -3253,-4904 -2247,-5945zm-1725 22441c116,2086 282,3796 653,5812 472,2567 1020,3463 1414,5109 -348,431 -394,270 -679,843 -789,1587 130,2075 1812,2093 5426,60 4780,-1815 5074,-3693 329,-2102 1729,-5058 3707,-5058 556,-1 825,143 1147,382 325,240 559,375 801,627 384,399 847,1137 1159,1799 1529,3248 -915,6080 5776,5943 2768,-57 2309,-1494 1055,-2927 646,-1983 901,-3573 1386,-5701 1216,235 3807,494 4409,-974l-916 -480c677,-258 1009,-637 1471,-838 737,-1244 1961,-2153 1726,-4536 -151,-1540 -1275,-3417 -2718,-3598 -27,689 300,1012 115,2035 -313,1726 -1353,3551 -3468,3443 -73,-1244 72,-2740 36,-4056 -38,-1349 -191,-2593 -275,-3909 631,-245 1703,-1009 2274,-1400 1097,-752 5362,-3662 6028,-5001 424,-852 699,-2011 391,-3039 -267,-889 -926,-1644 -1924,-1767 -1265,-157 -1850,494 -2770,908 -663,298 -1987,830 -2704,945 679,-2049 -165,-2920 -841,-4606 -572,-1427 -1223,-2966 -2029,-3895 -286,-330 -487,-382 -927,-607 -591,-302 -1387,-2479 -5436,-3541 -348,-91 -872,-152 -1179,-331l-2619 78c-1520,176 -2701,523 -3726,1276 -916,672 -1637,61 -3122,1779 -241,279 -440,371 -697,631 -333,338 -1478,1845 -2272,2628 -259,255 -319,370 -538,688 -407,596 -496,1177 -469,1988l-1125 -1562c-416,-690 -581,-1124 -927,-1829 -325,-664 -676,-1235 -1481,-1297 -2340,-180 -3549,2409 -2883,4946 580,2210 3185,7098 4542,9129 1255,1878 1578,1121 1364,2664 -460,3310 -689,5384 -615,8899z"/>
   <path class="fil19" d="M35533 33416c-1006,1041 715,5181 2247,5945 993,495 1430,137 1757,-670 1357,-3343 -43,-7034 798,-9212 190,-493 254,-761 681,-690 13,-285 -20,-70 79,-402 -1201,152 -2154,1551 -2754,2445 -617,918 -1654,2416 -2808,2584z"/>
   <path class="fil20" d="M55029 31064c377,75 314,219 337,675 727,1247 -524,4027 -811,5327 -181,821 -405,2080 20,2861 511,940 1103,1099 2346,809 120,-99 420,-395 548,-551 160,-194 391,-506 531,-690 386,-507 571,-862 747,-1610 -299,-112 -40,221 -451,-851 -472,-1232 -1799,-4911 -2496,-5689 -118,-131 -248,-281 -358,-358l-412 -201 -1 278z"/>
   <path class="fil21" d="M50187 42169c158,63 251,-77 96,302l-887 1150c795,-34 2287,-535 2975,-981 318,-207 474,-369 795,-544 -1079,-4381 2072,-7712 1912,-10289 -1381,482 -1418,2302 -1917,3354 -205,433 -539,736 -763,1082 -293,451 -365,668 -942,795 -265,58 -575,59 -844,16 -471,-75 -990,-861 -1192,-1235 -570,-1055 -111,-1018 -671,-1198 -824,935 1723,3199 1921,3499 728,-108 151,-399 592,-89 283,199 1273,1263 882,2026 -145,285 -792,748 -1052,1004 -405,399 -596,776 -905,1108z"/>
   <path class="fil21" d="M41973 40858c-293,-170 -1290,-2588 -477,-3683 803,-1081 985,-325 1504,-410l1052 -582c729,-376 834,-556 1336,-1041 725,-701 490,-835 299,-1068 -307,97 -159,26 -368,310 -1116,1520 -1649,1148 -2387,1890 -25,-44 -115,-404 -412,-720 -1650,-1761 -319,-3114 -1208,-4099 -421,-467 -800,-466 -802,-1206 -280,456 30,4194 -47,5201 -93,1204 -304,3711 -1197,4231 288,1000 2187,2546 3091,2811l-384 -1634z"/>
   <path class="fil22" d="M40416 44355c332,211 364,407 691,671l2444 1625 129 -328 -97 -106c-137,-113 25,-6 -179,-134 -159,-101 -159,-76 -332,-181 -1083,-653 -2779,-2231 -3332,-3390 -265,-556 -61,-266 1,-376 441,373 750,-295 1529,587 813,921 2973,1901 4064,2346 2227,906 4142,-246 6840,-962l-1600 1307c-1194,764 -2253,1144 -3653,1361l5 407c2449,-312 3101,-980 4618,-1897 468,-282 64,42 535,-485 95,-107 97,-94 204,-206 728,-754 1106,-1152 1556,-2182 -317,-77 -171,14 -395,-139 -295,138 -653,575 -1647,1021 -602,269 -1305,488 -2033,624 -1424,266 -1576,502 -2080,556 -2497,268 -2062,83 -3374,-419 -1159,-443 -710,-245 -1661,-976 -264,-203 -1287,-705 -1895,-1166 -196,-148 -5,-1 -169,-140 -835,-707 -316,-77 -1047,-998l-587 -866 -435 29c146,958 212,1598 709,2464 229,397 308,690 529,1015 265,391 499,480 662,938z"/>
   <path class="fil16" d="M57409 59010l-243 1636c438,479 2835,607 3839,-417 -387,-107 -865,-329 -1018,-697 178,-153 1843,-444 2892,-2505 372,-732 582,-1080 621,-1999 29,-680 -30,-1790 -505,-2189 144,1646 -1285,3724 -2871,4698 -565,347 -1240,533 -2072,494 85,592 196,838 487,1200l223 357 -1353 -578z"/>
   <path class="fil23" d="M44217 40392c-398,1735 -696,3548 1422,3885 2144,341 2467,-1428 2618,-3225 -935,-427 -585,-511 -1882,-540 -491,-11 -261,-233 -993,-263 -502,-21 -737,88 -1165,143z"/>
   <path class="fil24" d="M43680 46323c338,-516 856,-957 1783,-844 926,112 1044,700 1458,1296 1400,-217 2459,-597 3653,-1361l1600 -1307c-2698,716 -4613,1868 -6840,962 -1091,-445 -3251,-1425 -4064,-2346 -779,-882 -1088,-214 -1529,-587 -62,110 -266,-180 -1,376 553,1159 2249,2737 3332,3390 173,105 173,80 332,181 204,128 42,21 179,134l97 106z"/>
   <path class="fil15" d="M57409 59010l1353 578 -223 -357c-291,-362 -402,-608 -487,-1200 832,39 1507,-147 2072,-494 1586,-974 3015,-3052 2871,-4698 -74,-759 -879,-1253 -1454,-1652 217,2191 -738,5034 -3302,5289 -90,9 -211,16 -295,28 -34,5 -62,10 -92,15l-443 2491z"/>
   <path class="fil16" d="M46926 47182c-93,595 -272,1094 -620,1334 -354,243 -913,438 -1480,333 -959,-177 -1509,-1078 -1275,-2198l-2444 -1625c-327,-264 -359,-460 -691,-671 422,1112 1414,2040 2270,2770 -93,3151 4056,3421 4759,722 1036,-76 2567,-764 3273,-1360 1329,-1120 1044,-744 2467,-2213 476,-490 1125,-1267 1357,-1808l-703 -54c-450,1030 -828,1428 -1556,2182 -107,112 -109,99 -204,206 -471,527 -67,203 -535,485 -1517,917 -2169,1585 -4618,1897z"/>
   <path class="fil25" d="M52340 68300c-126,-494 -298,-274 -272,-612 19,-240 545,-433 738,1566 362,53 749,121 1078,23 38,-318 65,-689 -25,-980 -174,-560 -412,-285 -211,-727 354,152 543,522 572,1045 168,-14 399,-20 556,-40 339,-42 192,1 347,-95 -32,-625 -270,-336 -219,-847 662,-37 691,1115 653,1634 749,-165 947,-449 651,-1272 -297,-823 -506,-674 -897,-1115l82 -276c-320,20 -904,-150 -1309,-193 -1178,-127 -3473,-49 -3433,1476 306,182 415,318 832,460 857,291 912,242 857,-47z"/>
   <path class="fil26" d="M56921 40736c-1243,290 -1835,131 -2346,-809 -425,-781 -201,-2040 -20,-2861 287,-1300 1538,-4080 811,-5327 41,1402 -361,2287 -853,3448 -387,916 -2440,6434 -577,6918 644,167 1245,-51 1764,-315 401,-205 1082,-763 1221,-1054z"/>
   <path class="fil25" d="M36278 66926c-658,439 -1823,1958 -235,2362 0,-414 -7,-1107 287,-1458 265,-317 44,-158 394,-219 30,779 -438,-21 -289,1702l933 63c-94,-727 -26,-1662 700,-1819 -166,844 -424,436 -341,1789l1061 -74c97,-644 137,-1631 666,-1713 213,340 -99,306 -152,811 142,91 65,71 363,50 1312,-92 1309,-1322 -811,-1570 -758,-89 -1917,-172 -2576,76z"/>
   <path class="fil27" d="M43731 42567l184 -2347c1087,-538 1715,-93 2504,-19 1564,148 1159,209 2227,763l-541 2299c524,-226 948,-1041 1333,-1711 357,-620 935,-1407 1416,-1798 -887,-60 -1425,574 -2412,520 -995,-54 -1838,-853 -2023,-857 -686,-17 -1277,639 -2508,56 -671,-317 -975,-934 -1737,-1118 294,656 583,1221 780,2078 176,768 306,1736 777,2134z"/>
   <path class="fil28" d="M45071 36368c13,1617 2241,2321 3340,1183 1188,-1230 -2424,-1456 -3340,-1183z"/>
   <path class="fil29" d="M44667 48458c-1514,-611 -911,-2936 777,-2670 1423,224 1733,2426 -240,2808 208,-1113 872,-948 412,-1553 -369,-405 -663,-236 -1036,116 -44,862 451,583 87,1299zm-987 -2135l-129 328c-234,1120 316,2021 1275,2198 567,105 1126,-90 1480,-333 348,-240 527,-739 620,-1334l-5 -407c-414,-596 -532,-1184 -1458,-1296 -927,-113 -1445,328 -1783,844z"/>
   <path class="fil30" d="M46001 46468c-422,352 -1137,220 -1292,-275 228,-350 1075,-180 1292,275zm-1334 1990c364,-716 -131,-437 -87,-1299 373,-352 667,-521 1036,-116 460,605 -204,440 -412,1553 1973,-382 1663,-2584 240,-2808 -1688,-266 -2291,2059 -777,2670z"/>
   <path class="fil31" d="M62618 38466c-1052,515 -464,2886 637,2409 1114,-483 423,-2928 -637,-2409z"/>
   <path class="fil31" d="M30326 34564c1498,370 2462,-1280 1738,-1926 -715,-640 -2327,490 -1738,1926z"/>
   <path class="fil32" d="M43242 33514c580,-41 621,266 200,520 -339,-196 -312,-180 -200,-520zm171 -263c-997,358 -590,2021 581,1630 1003,-335 478,-2011 -581,-1630z"/>
   <path class="fil32" d="M50497 35120c-352,-14 -182,-302 -135,-402 144,-78 -144,-24 218,-77 14,-2 64,41 75,15 12,-28 52,19 77,28 144,362 18,373 7,405 -228,62 -56,39 -242,31zm65 -745c-1019,301 -717,2004 494,1654 976,-282 597,-1976 -494,-1654z"/>
   <path class="fil33" d="M54220 68615l38 789 867 -28c103,-227 120,-219 121,-478 3,-346 -3,-292 -123,-418 -155,96 -8,53 -347,95 -157,20 -388,26 -556,40z"/>
   <path class="fil34" d="M44709 46193c155,495 870,627 1292,275 -217,-455 -1064,-625 -1292,-275z"/>
   <path class="fil31" d="M64118 39788c550,69 876,-263 348,-594 -373,152 -362,139 -348,594z"/>
   <path class="fil31" d="M30310 32822c145,-325 118,-217 0,-559l-341 3c-286,468 -72,722 341,556z"/>
   <path class="fil31" d="M63913 38771c369,55 546,-106 433,-549 -24,-2 -482,-202 -513,285 -34,527 -9,65 80,264z"/>
   <path class="fil31" d="M29895 33627c137,-337 81,-356 -231,-563 -517,310 -165,591 -75,624 409,153 305,-60 306,-61z"/>
   <path class="fil31" d="M64558 40243c-408,-214 -737,18 -541,343 160,267 577,217 541,-343z"/>
   <path class="fil31" d="M30716 31730c-63,360 -100,229 135,516 571,15 576,-877 -135,-516z"/>
   <path class="fil31" d="M32063 32202c167,-361 163,-643 -376,-641 -135,463 -131,555 376,641z"/>
   <path class="fil31" d="M63184 38160c437,87 593,-84 415,-520 -403,-77 -551,118 -415,520z"/>
   <path class="fil35" d="M43442 34034c421,-254 380,-561 -200,-520 -112,340 -139,324 200,520z"/>
   <path class="fil36" d="M50362 34718c-47,100 -217,388 135,402 186,8 14,31 242,-31 11,-32 137,-43 -7,-405 -25,-9 -65,-56 -77,-28 -11,26 -61,-17 -75,-15 -362,53 -74,-1 -218,77z"/>
  </g>
 </g>
</svg>
