<?xml version="1.0" encoding="UTF-8"?>
<!DOCTYPE svg PUBLIC "-//W3C//DTD SVG 1.1//EN" "http://www.w3.org/Graphics/SVG/1.1/DTD/svg11.dtd">
<!-- Creator: CorelDRAW 2017 -->
<svg xmlns="http://www.w3.org/2000/svg" xml:space="preserve" width="277px" height="282px" version="1.1" style="shape-rendering:geometricPrecision; text-rendering:geometricPrecision; image-rendering:optimizeQuality; fill-rule:evenodd; clip-rule:evenodd"
viewBox="0 0 70536 71737"
 xmlns:xlink="http://www.w3.org/1999/xlink">
 <defs>
  <style type="text/css">
   <![CDATA[
    .fil18 {fill:#060406}
    .fil13 {fill:#120E13}
    .fil14 {fill:#78642F}
    .fil3 {fill:#8C5A33}
    .fil15 {fill:#CCB239}
    .fil8 {fill:#CF381C}
    .fil9 {fill:#D68E4D}
    .fil16 {fill:#D98F4E}
    .fil7 {fill:#DA904F}
    .fil11 {fill:#DB9150}
    .fil12 {fill:#DC8C4B}
    .fil17 {fill:#DFDDE4}
    .fil5 {fill:#E29453}
    .fil10 {fill:#F24629}
    .fil6 {fill:#F4AB74}
    .fil4 {fill:#FBB575}
    .fil2 {fill:#FCA65B}
    .fil19 {fill:white}
    .fil0 {fill:#999999;fill-rule:nonzero}
    .fil1 {fill:white;fill-rule:nonzero}
   ]]>
  </style>
 </defs>
 <g id="Layer_x0020_1">
  <metadata id="CorelCorpID_0Corel-Layer"/>
  <g id="_2897985120448">
   <path class="fil0" d="M1997 8573c-4144,-2338 -1036,-6235 2072,-5455 0,-2339 5180,-3118 7252,-780 0,-3117 6215,-3117 6215,0 3108,-2338 8288,780 6216,3118 3108,779 2072,4676 0,4676 3108,780 2072,4677 0,4677 2072,2338 -3108,5455 -6216,2338 -1036,3117 -7251,3117 -7251,0 -2072,2338 -6216,1559 -5180,-780 -3108,780 -5180,-2338 -3108,-3897 -2072,0 -3108,-3897 0,-3897zm24782 11950c0,-1114 -1044,-2018 -2331,-2018 -1287,0 -2331,904 -2331,2018 0,1114 1044,2018 2331,2018 1287,0 2331,-904 2331,-2018zm3637 4111c0,-743 -696,-1345 -1554,-1345 -858,0 -1554,602 -1554,1345 0,743 696,1345 1554,1345 858,0 1554,-602 1554,-1345zm2660 3202c0,-372 -348,-673 -777,-673 -429,0 -777,301 -777,673 0,371 348,672 777,672 429,0 777,-301 777,-672z"/>
   <polygon class="fil1" points="8397,6629 7476,6629 7476,7271 8322,7271 8322,7748 7476,7748 7476,8763 6887,8763 6887,6150 8397,6150 "/>
   <path id="1" class="fil1" d="M10446 7994l-1216 0c19,270 190,406 511,406 206,0 386,-48 541,-145l0 415c-172,92 -396,138 -672,138 -301,0 -535,-83 -701,-251 -166,-166 -250,-399 -250,-698 0,-310 90,-555 270,-736 180,-181 401,-271 663,-271 272,0 483,81 631,242 149,161 223,381 223,657l0 243zm-533 -354c0,-267 -108,-400 -325,-400 -92,0 -172,38 -239,114 -68,77 -108,172 -123,286l687 0z"/>
   <path id="2" class="fil1" d="M12465 7994l-1217 0c19,270 190,406 512,406 205,0 385,-48 541,-145l0 415c-173,92 -396,138 -672,138 -301,0 -535,-83 -702,-251 -166,-166 -249,-399 -249,-698 0,-310 89,-555 270,-736 179,-181 400,-271 663,-271 271,0 482,81 631,242 148,161 223,381 223,657l0 243zm-534 -354c0,-267 -108,-400 -324,-400 -92,0 -172,38 -240,114 -67,77 -108,172 -123,286l687 0z"/>
   <polygon id="3" class="fil1" points="13383,8763 12807,8763 12807,6001 13383,6001 "/>
   <path id="4" class="fil1" d="M14159 6602c-97,0 -177,-29 -239,-87 -62,-57 -93,-128 -93,-212 0,-86 31,-156 93,-211 62,-55 142,-82 239,-82 99,0 178,27 240,82 61,55 92,125 92,211 0,87 -31,159 -92,215 -62,56 -141,84 -240,84zm284 2161l-575 0 0 -1866 575 0 0 1866z"/>
   <path id="5" class="fil1" d="M16729 8763l-574 0 0 -1037c0,-289 -103,-433 -309,-433 -100,0 -182,38 -246,114 -65,76 -97,174 -97,292l0 1064 -575 0 0 -1866 575 0 0 296 7 0c138,-228 337,-341 600,-341 413,0 619,256 619,768l0 1143z"/>
   <path id="6" class="fil1" d="M19014 8549c0,347 -101,615 -301,805 -201,190 -490,285 -871,285 -251,0 -450,-36 -597,-108l0 -484c192,112 385,168 581,168 194,0 345,-52 451,-155 107,-102 161,-241 161,-417l0 -148 -7 0c-131,208 -325,313 -581,313 -239,0 -427,-84 -567,-251 -140,-168 -209,-393 -209,-674 0,-316 77,-567 233,-753 155,-186 360,-278 613,-278 227,0 398,87 511,262l7 0 0 -217 576 0 0 1652zm-569 -682l0 -148c0,-118 -35,-219 -104,-302 -70,-83 -161,-124 -273,-124 -128,0 -228,49 -301,149 -72,99 -109,240 -109,421 0,155 35,278 104,369 69,90 164,135 284,135 119,0 216,-45 289,-137 74,-92 110,-213 110,-363z"/>
   <polygon id="7" class="fil1" points="8817,12438 8227,12438 8227,11374 7145,11374 7145,12438 6557,12438 6557,9826 7145,9826 7145,10868 8227,10868 8227,9826 8817,9826 "/>
   <path id="8" class="fil1" d="M11131 12438l-574 0 0 -284 -8 0c-143,219 -333,329 -571,329 -432,0 -648,-261 -648,-785l0 -1125 574 0 0 1074c0,264 104,396 313,396 103,0 185,-37 248,-109 62,-72 92,-170 92,-294l0 -1067 574 0 0 1865z"/>
   <path id="9" class="fil1" d="M13417 12438l-573 0 0 -1037c0,-289 -104,-433 -310,-433 -100,0 -182,38 -246,115 -64,76 -97,174 -97,291l0 1064 -575 0 0 -1865 575 0 0 295 8 0c137,-228 337,-341 599,-341 413,0 619,256 619,769l0 1142z"/>
   <path id="10" class="fil1" d="M15702 12225c0,346 -100,614 -300,804 -201,190 -491,285 -872,285 -251,0 -450,-35 -597,-107l0 -485c192,112 385,168 581,168 194,0 345,-52 452,-154 107,-103 160,-242 160,-418l0 -148 -7 0c-131,209 -325,313 -581,313 -238,0 -427,-84 -567,-251 -140,-168 -209,-392 -209,-674 0,-316 78,-566 233,-752 155,-186 360,-279 614,-279 227,0 397,87 510,263l7 0 0 -217 576 0 0 1652zm-568 -683l0 -148c0,-117 -35,-218 -105,-302 -70,-82 -161,-124 -272,-124 -128,0 -228,50 -301,149 -73,100 -110,240 -110,421 0,156 35,278 104,369 70,91 164,136 284,136 120,0 216,-46 289,-138 74,-91 111,-212 111,-363z"/>
   <path id="11" class="fil1" d="M17400 11092c-70,-38 -150,-57 -242,-57 -125,0 -223,46 -294,138 -70,92 -106,216 -106,374l0 891 -575 0 0 -1865 575 0 0 346 8 0c91,-253 255,-379 492,-379 61,0 108,7 142,21l0 531z"/>
   <path id="12" class="fil1" d="M19593 10573l-758 2014c-182,485 -456,727 -823,727 -139,0 -254,-15 -345,-47l0 -459c77,45 160,67 250,67 148,0 252,-69 310,-209l98 -232 -758 -1861 638 0 348 1134c22,71 39,154 51,250l7 0c11,-71 31,-153 61,-246l351 -1138 570 0z"/>
   <g>
    <path class="fil2" d="M31155 69829c155,258 -179,126 296,158 160,10 432,-47 615,-85 205,-463 245,-848 774,-844 -19,443 -180,243 -305,784 267,198 -288,72 437,163 326,40 284,22 565,-74 31,-56 258,-532 279,-559 410,-538 398,-151 462,-105 -8,188 -175,303 -294,604 106,275 -168,296 426,355 319,31 164,85 589,-1037 946,-2497 -384,-2433 -1962,-4695 -1973,-2828 -1955,-3855 -2509,-7009l81 -576c381,109 396,577 559,1039 22,21 51,49 66,63l130 119c18,16 44,40 63,56 19,17 43,39 63,54l924 567c1156,549 1828,577 3032,875 995,247 803,361 1313,596 555,-73 1267,1583 1515,2305 338,981 1306,4987 587,5995 -243,339 -224,175 -480,436 -593,603 -851,2206 410,2233 -34,-637 -99,-950 132,-1573 190,-515 381,-924 785,-631 -117,370 -778,627 -460,2206l714 4c-19,-909 188,-2323 1015,-2307 -9,211 -370,729 -551,1098l968 87c105,-320 129,-453 341,-743 142,-196 339,-369 580,-285 116,666 -105,-151 -544,1056l688 -41 1629 -3189c476,-1086 876,-2510 1173,-3755 1088,-4571 -1765,-4970 207,-8146 548,383 65,315 614,570 735,-1862 2645,-3134 4647,-2610 342,89 688,310 957,353 462,73 793,-142 1232,81l756 96c227,-133 80,-56 181,-215 -622,-690 -710,-1554 -3001,-3760 -477,-459 -1187,-1079 -1826,-1511 -325,-220 -662,-446 -1023,-685l-969 -574c-910,466 -1734,814 -2885,494 -233,578 -648,1017 -1003,1396l-894 952c-1305,1279 -4254,2274 -6276,2371 -290,1093 -979,2011 -2435,1686 -1176,-261 -1658,-1352 -1315,-2694 -417,-136 -392,-175 -732,-416l-606 -435c-522,-491 -1279,-1129 -1706,-1739 -19,-27 -69,-114 -87,-143l-971 -1535c-847,1352 -1711,6251 -987,7767 327,-396 529,-1098 1118,-1145 156,584 126,1891 234,2636 512,3539 2683,7755 2430,11900 -55,906 -772,953 -1152,1712 -386,769 17,1566 750,1664 77,-898 25,-1912 974,-2157l-338 742z"/>
    <path class="fil2" d="M40479 38969c-133,-1265 1738,-1553 1913,-325 197,1375 -1782,1561 -1913,325zm-7169 -3037c1299,-379 1702,1498 646,1834 -1305,417 -1813,-1493 -646,-1834zm-1989 -5113c-83,818 -380,1112 -195,2217 519,3116 -1107,4774 944,6611 633,-576 2277,-985 2980,-1712 357,-371 210,-738 937,-705 59,588 -340,961 -740,1253 -1349,983 -746,510 -2223,1218 -1098,527 -552,-246 -1851,893 -419,367 -954,956 -1161,1593 -149,565 -413,1099 -348,1792 942,809 1662,1314 3544,721 1312,-414 2081,-1083 2320,-2520 -448,-393 -561,-784 -889,-1435 3,-626 -221,-592 -50,-1340 1278,-659 4107,110 4733,1169 -18,639 -496,912 -831,1284 -523,578 -651,494 -1332,813 -236,1748 1,2312 985,3297 976,977 1667,1362 3367,1043 278,-474 520,-1088 536,-1785 270,-758 -339,-2674 -729,-2993 -26,-22 -115,-75 -145,-95 -415,-278 -655,-612 -1001,-1077l-97 -138c-467,-623 -1413,-2033 -895,-2871 811,373 -191,804 1728,2975l680 976c1615,-363 2028,-1624 2635,-3159 1070,-2710 1600,-2061 1945,-3799 -169,-178 -346,-571 -518,-825 -2915,-4280 -5922,-3653 -6770,-4012 -1193,-504 -1986,-757 -3370,-673 -1592,98 -2813,678 -4189,1284z"/>
    <path class="fil2" d="M47439 64493l195 183c17,19 40,45 57,65 2489,2849 7861,1684 8935,3969l-1547 -160c-826,371 -6969,-1329 -8902,468 -984,915 -449,2182 538,2263 -165,-457 -192,-854 -16,-1397 315,-971 647,-724 710,-724 15,626 -716,676 -254,2117l786 -31c-165,-374 -109,-973 44,-1336 207,-494 391,-744 892,-851 -159,533 -222,373 -403,778 -29,326 730,219 983,94 227,-372 318,-720 827,-782 17,494 -262,401 -489,1015 2176,-125 7598,1628 10364,-1274 1217,-1276 1037,-1593 1678,-2602 -117,-156 -41,-35 -138,-263l-361 -1286c-378,-1226 -806,-2198 -1386,-3331 -51,-99 -101,-210 -157,-302l-204 -276c-283,437 -132,1630 -803,1887 -203,-500 -301,-910 -516,-1438 -2086,-5117 -5477,-6917 -5966,-7541 -2413,155 -4434,1686 -4832,4204 698,-571 1010,-1203 1686,-1206 -61,558 103,132 -258,441 -851,726 -1253,788 -1684,2795 -321,1496 -98,3073 221,4521z"/>
    <path class="fil3" d="M45394 69580l-758 -243 2286 -5461c172,382 358,1514 506,2046 193,696 500,1331 686,1944 -1417,329 -2285,604 -2720,1714zm23265 -11838c1762,1443 1897,4880 522,7098 -761,1228 -1291,1222 -1517,1650 379,496 1021,185 1437,592l-1152 1003c-504,322 -954,524 -1609,686 -1300,320 -2905,251 -3956,-347l153 -2447 -197 -2147c4117,741 5502,-3586 3918,-7447 1034,213 2011,804 2401,1359zm-36646 -11280c1690,114 2794,-431 3605,-1305 178,239 130,223 266,546 98,235 108,258 234,459 252,404 300,490 582,798 632,692 1222,813 1587,1198 -1315,358 -2183,705 -3676,201 -921,-311 -2235,-944 -2598,-1897zm6965 -5933c-101,1217 -1774,1467 -2585,1225 -679,-203 -1768,-1185 -1456,-2113 1316,-513 3171,347 4041,888zm-8568 -9472c-892,2116 -562,3322 -761,5734 -126,1521 -556,4045 -1258,5154 -1193,1886 -2908,-450 -3412,-1605 -520,-1192 -1382,-3818 -397,-5023l2981 -2919c163,-153 266,-237 408,-394 919,-1017 256,-285 1145,-1033 403,-338 1115,-888 1781,-1080 1201,-347 549,295 1784,-517 163,-107 258,-155 444,-245 3258,-1572 8388,-586 11166,1861 320,282 496,354 779,712l1194 1670c333,267 473,214 833,541 850,773 3223,6939 2985,8576 -302,1403 -2000,2990 -2913,3663 -602,443 -1459,961 -2482,838 -1158,-139 -1145,-1011 -994,-2157 209,-1592 971,-3614 1605,-4920 777,-1602 1705,-2703 1608,-4957 -160,-530 26,-125 -273,-305 -99,158 -82,44 -128,297 -22,121 25,216 47,310 148,1735 -1449,4025 -2040,5492 -700,1742 -1609,4114 -1061,6054 -618,214 -968,565 -1887,808 171,-329 470,-677 634,-1150 418,-1209 236,-1216 -151,-1236 -16,697 -258,1311 -536,1785 -1202,1560 -3096,1069 -4419,-225 -1644,-1608 -899,-2354 -460,-4615 828,41 1177,-140 1859,-313 335,-372 813,-645 831,-1284 -626,-1059 -3455,-1828 -4733,-1169 -171,748 53,714 50,1340 754,533 113,512 1563,1320 -37,354 -473,2264 -615,2593 -672,1567 -5560,2530 -5923,-679 -65,-693 199,-1227 348,-1792l-280 -52c-400,719 -463,1495 -357,2412 -425,-410 -896,-873 -1241,-1565 344,-782 667,-557 1266,-2557 1012,-3380 410,-6596 1025,-8374 216,-626 465,-793 627,-1250l-299 -117c-119,145 -185,247 -343,373zm-3066 12948c20,-599 -100,-640 139,-921 628,1 120,-229 502,316 310,443 569,911 981,1298l1735 1381c587,311 629,133 984,610 1664,2242 4778,2838 6600,1820 692,-386 396,-200 1238,-192 560,6 2088,-333 2644,-512 1574,-505 854,-884 1984,-538 1151,320 1975,-28 2885,-494 394,-408 603,-642 1186,-342 1689,868 3801,2182 5236,3375l1125 1050c720,910 962,801 1595,1617l1430 1776c2012,2837 4146,7240 4413,10719 632,1480 -134,4485 -1405,5644 -1330,1213 -3139,712 -5956,712 -1570,0 -3255,58 -4810,-16l-55 -1144c227,-614 506,-521 489,-1015 -509,62 -600,410 -827,782l-21 1371 -1113 23c-66,-565 -226,-1047 151,-1488 181,-405 244,-245 403,-778 -501,107 -685,357 -892,851 -153,363 -209,962 -44,1336l-786 31c-462,-1441 269,-1491 254,-2117 -63,0 -395,-247 -710,724 -176,543 -149,940 16,1397 -987,-81 -1522,-1348 -538,-2263 1933,-1797 8076,-97 8902,-468 16,-399 -2348,-500 -3026,-573 -1263,-134 -2269,-216 -3547,-148 -443,-791 -943,-2371 -1067,-3336 -319,-1448 -542,-3025 -221,-4521 431,-2007 833,-2069 1684,-2795 361,-309 197,117 258,-441 -676,3 -988,635 -1686,1206 398,-2518 2419,-4049 4832,-4204 446,13 870,22 1296,164 588,195 633,450 1027,157 -324,-359 -437,-360 -955,-541l-756 -96c-1050,-42 -2136,77 -2987,541 -372,203 -792,520 -1055,774 -86,83 -159,166 -229,234 -17,16 -42,39 -59,56 -17,16 -43,38 -60,54 -24,22 -97,84 -121,107 -743,717 -1300,2039 -1334,3276 -31,1123 -404,2107 -361,3324 73,2101 -654,3380 -1652,5534 -627,1355 -919,2954 -1820,3692 -475,390 -864,268 -1523,268l54 -1123c439,-1207 660,-390 544,-1056 -241,-84 -438,89 -580,285 -212,290 -236,423 -341,743l-78 1135 -933 6 43 -1228c181,-369 542,-887 551,-1098 -827,-16 -1034,1398 -1015,2307l-714 -4c-318,-1579 343,-1836 460,-2206 -404,-293 -595,116 -785,631 -231,623 -166,936 -132,1573 -1261,-27 -1003,-1630 -410,-2233 256,-261 237,-97 480,-436 719,-1008 -249,-5014 -587,-5995 -248,-722 -960,-2378 -1515,-2305 84,376 2232,3449 1931,6953 -1033,-453 -2772,-1749 -3534,-2566 -373,-401 -572,-682 -996,-1176 -1076,-1252 -2387,-3514 -2992,-5541 -163,-462 -178,-930 -559,-1039l-81 576c254,259 1190,3390 2633,5282 148,193 248,292 399,508l3521 3581c-456,849 -670,1890 -981,2861 -439,1368 -649,1654 -2254,1531 -55,-512 -29,-984 138,-1377 119,-301 286,-416 294,-604 -64,-46 -52,-433 -462,105 -21,27 -248,503 -279,559l-103 1334 -1080 -2c-99,-488 -69,-1086 181,-1421 125,-541 286,-341 305,-784 -529,-4 -569,381 -774,844l-150 1368 -953 -8c-71,-474 -43,-1100 192,-1433l338 -742c-949,245 -897,1259 -974,2157 -733,-98 -1136,-895 -750,-1664 380,-759 1097,-806 1152,-1712 253,-4145 -1918,-8361 -2430,-11900 -108,-745 -78,-2052 -234,-2636 -589,47 -791,749 -1118,1145 -724,-1516 140,-6415 987,-7767 -26,-367 90,-182 -142,-381 -1094,936 -2194,7745 -959,8998 405,-163 567,-933 900,-1309 607,4261 207,2770 1517,7063 366,1200 1601,6250 915,7248 -398,578 -1811,1484 -815,2866 509,707 2718,439 3789,443 1839,6 2414,214 2983,-1366 338,-942 772,-2339 1048,-3299l1346 778c-23,854 -1108,1084 -1221,2318 -137,1493 644,1592 1921,1585 5198,-29 3569,258 5158,-1956l700 231c164,2249 1591,1765 3661,1763 1545,-1 9919,119 10729,-92 769,-200 1284,-712 1622,-1134 340,-428 705,-1413 950,-1628 2155,914 5248,599 6881,-1201 1077,-1187 560,-1039 -701,-1178 253,-460 514,-513 801,-903 200,-272 428,-679 586,-1022 797,-1728 1051,-3620 257,-5404 -573,-1289 -1032,-1462 -1227,-1937 -443,-195 -1793,-1504 -3247,-1233 39,453 1602,2177 655,5243 -547,1770 -1859,2578 -4104,2167 -1327,-4669 -2841,-7988 -5564,-11057 -2050,-2311 -5700,-5312 -8472,-6303 163,-283 -38,-7 226,-306 90,-102 126,-124 235,-233l1286 -1466c1352,-1931 293,-3592 -318,-5623 -1764,-5865 -2602,-4394 -3412,-5879 -757,-1389 -2499,-2627 -4010,-3337l-1135 -491c-152,-84 -165,-95 -247,-163 -615,41 -1767,-540 -4061,-484 -3616,89 -3589,1174 -5384,1398 -1673,209 -4066,2589 -5191,3784l-1178 1104c-707,736 -1306,1782 -1132,3232 241,2012 1197,5026 3447,5472l125 987z"/>
    <path class="fil4" d="M47036 46773l969 574c361,239 698,465 1023,685 639,432 1349,1052 1826,1511 2291,2206 2379,3070 3001,3760 -101,159 46,82 -181,215 518,181 631,182 955,541 -394,293 -439,38 -1027,-157 -426,-142 -850,-151 -1296,-164 489,624 3880,2424 5966,7541 215,528 313,938 516,1438 671,-257 520,-1450 803,-1887l204 276c56,92 106,203 157,302 580,1133 1008,2105 1386,3331l361 1286c97,228 21,107 138,263 238,-601 306,-539 184,-1320 -267,-3479 -2401,-7882 -4413,-10719l-1430 -1776c-633,-816 -875,-707 -1595,-1617l-1125 -1050c-1435,-1193 -3547,-2507 -5236,-3375 -583,-300 -792,-66 -1186,342z"/>
    <path class="fil5" d="M24582 35317c-985,1205 -123,3831 397,5023 504,1155 2219,3491 3412,1605 702,-1109 1132,-3633 1258,-5154 199,-2412 -131,-3618 761,-5734 -926,177 -1114,243 -1615,846 -410,495 -586,936 -1087,1446 -509,517 -2489,1755 -3126,1968z"/>
    <path class="fil5" d="M50082 42489c-227,-253 -708,-1378 -959,-1765 -386,-596 -742,-1056 -993,-1646 -308,-724 -389,-1272 -495,-2150 -125,-1042 -173,-704 -522,-1546 -150,-362 141,-37 -207,-426 97,2254 -831,3355 -1608,4957 -634,1306 -1396,3328 -1605,4920 -151,1146 -164,2018 994,2157 1023,123 1880,-395 2482,-838 913,-673 2611,-2260 2913,-3663z"/>
    <path class="fil6" d="M24582 35317c637,-213 2617,-1451 3126,-1968 501,-510 677,-951 1087,-1446 501,-603 689,-669 1615,-846 158,-126 224,-228 343,-373l299 117c222,123 29,202 269,18 1376,-606 2597,-1186 4189,-1284 1384,-84 2177,169 3370,673 848,359 3855,-268 6770,4012 172,254 349,647 518,825 306,123 123,7 384,213 -22,-94 -69,-189 -47,-310 46,-253 29,-139 128,-297 299,180 113,-225 273,305 348,389 57,64 207,426 349,842 397,504 522,1546 106,878 187,1426 495,2150 251,590 607,1050 993,1646 251,387 732,1512 959,1765 238,-1637 -2135,-7803 -2985,-8576 -360,-327 -500,-274 -833,-541l-1194 -1670c-283,-358 -459,-430 -779,-712 -2778,-2447 -7908,-3433 -11166,-1861 -186,90 -281,138 -444,245 -1235,812 -583,170 -1784,517 -666,192 -1378,742 -1781,1080 -889,748 -226,16 -1145,1033 -142,157 -245,241 -408,394l-2981 2919z"/>
    <path class="fil7" d="M41771 70159l-54 1123c659,0 1048,122 1523,-268 901,-738 1193,-2337 1820,-3692 998,-2154 1725,-3433 1652,-5534 -43,-1217 330,-2201 361,-3324 34,-1237 591,-2559 1334,-3276 24,-23 97,-85 121,-107 17,-16 43,-38 60,-54 17,-17 42,-40 59,-56 70,-68 143,-151 229,-234 263,-254 683,-571 1055,-774 851,-464 1937,-583 2987,-541 -439,-223 -770,-8 -1232,-81 -269,-43 -615,-264 -957,-353 -2002,-524 -3912,748 -4647,2610 -549,-255 -66,-187 -614,-570 -1972,3176 881,3575 -207,8146 -297,1245 -697,2669 -1173,3755l-1629 3189 -688 41z"/>
    <path class="fil7" d="M62537 65977l-153 2447c1051,598 2656,667 3956,347 655,-162 1105,-364 1609,-686l1152 -1003c-416,-407 -1058,-96 -1437,-592 226,-428 756,-422 1517,-1650 1375,-2218 1240,-5655 -522,-7098 194,2170 218,3200 -701,5082 -1153,2361 -2391,2246 -3052,2748 566,1123 934,1018 1439,1440 -752,37 -1514,-84 -2167,-291 -650,-206 -1193,-661 -1641,-744z"/>
    <path class="fil7" d="M36759 60278c-510,-235 -318,-349 -1313,-596 -1204,-298 -1876,-326 -3032,-875l-924 -567c-20,-15 -44,-37 -63,-54 -19,-16 -45,-40 -63,-56l-130 -119c-15,-14 -44,-42 -66,-63 605,2027 1916,4289 2992,5541 424,494 623,775 996,1176 762,817 2501,2113 3534,2566 301,-3504 -1847,-6577 -1931,-6953z"/>
    <path class="fil8" d="M27344 44005c32,819 329,1643 640,2324 232,199 116,14 142,381l971 1535c18,29 68,116 87,143 427,610 1184,1248 1706,1739l606 435c340,241 315,280 732,416 126,-180 96,-158 180,-348 -775,-642 -1419,-931 -1722,-1339 -116,-156 -57,-134 -253,-311l-2005 -2873c517,444 2119,743 2359,895 201,127 404,443 556,601 1637,1702 4393,2464 6710,1810 883,-250 741,-489 1731,-307 696,129 1464,108 2156,-4 -1574,1705 -3981,2095 -5995,2423l33 461c2022,-97 4971,-1092 6276,-2371l894 -952c355,-379 770,-818 1003,-1396 -1130,-346 -410,33 -1984,538 -556,179 -2084,518 -2644,512 -842,-8 -546,-194 -1238,192 -1822,1018 -4936,422 -6600,-1820 -355,-477 -397,-299 -984,-610l-1735 -1381c-412,-387 -671,-855 -981,-1298 -382,-545 126,-315 -502,-316 -239,281 -119,322 -139,921z"/>
    <path class="fil2" d="M62537 65977c448,83 991,538 1641,744 653,207 1415,328 2167,291 -505,-422 -873,-317 -1439,-1440 661,-502 1899,-387 3052,-2748 919,-1882 895,-2912 701,-5082 -390,-555 -1367,-1146 -2401,-1359 1584,3861 199,8188 -3918,7447l197 2147z"/>
    <path class="fil9" d="M30012 42187c207,-637 742,-1226 1161,-1593 1299,-1139 753,-366 1851,-893 1477,-708 874,-235 2223,-1218 400,-292 799,-665 740,-1253 -727,-33 -580,334 -937,705 -703,727 -2347,1136 -2980,1712 -2051,-1837 -425,-3495 -944,-6611 -185,-1105 112,-1399 195,-2217 -240,184 -47,105 -269,-18 -162,457 -411,624 -627,1250 -615,1778 -13,4994 -1025,8374 -599,2000 -922,1775 -1266,2557 345,692 816,1155 1241,1565 -106,-917 -43,-1693 357,-2412l280 52z"/>
    <path class="fil10" d="M32408 50630c179,-110 1514,-1636 3043,-135 328,322 379,515 494,1030 2014,-328 4421,-718 5995,-2423 -692,112 -1460,133 -2156,4 -990,-182 -848,57 -1731,307 -2317,654 -5073,-108 -6710,-1810 -152,-158 -355,-474 -556,-601 -240,-152 -1842,-451 -2359,-895l2005 2873c196,177 137,155 253,311 303,408 947,697 1722,1339z"/>
    <path class="fil9" d="M42047 45226c387,20 569,27 151,1236 -164,473 -463,821 -634,1150 919,-243 1269,-594 1887,-808 -548,-1940 361,-4312 1061,-6054 591,-1467 2188,-3757 2040,-5492 -261,-206 -78,-90 -384,-213 -345,1738 -875,1089 -1945,3799 -607,1535 -1020,2796 -2635,3159l-680 -976c-1919,-2171 -917,-2602 -1728,-2975 -518,838 428,2248 895,2871l97 138c346,465 586,799 1001,1077 30,20 119,73 145,95 390,319 999,2235 729,2993z"/>
    <path class="fil7" d="M33984 69871c-167,393 -193,865 -138,1377 1605,123 1815,-163 2254,-1531 311,-971 525,-2012 981,-2861l-3521 -3581c-151,-216 -251,-315 -399,-508 -1443,-1892 -2379,-5023 -2633,-5282 554,3154 536,4181 2509,7009 1578,2262 2908,2198 1962,4695 -425,1122 -270,1068 -589,1037 -594,-59 -320,-80 -426,-355z"/>
    <path class="fil11" d="M61837 66288c-641,1009 -461,1326 -1678,2602 -2766,2902 -8188,1149 -10364,1274l55 1144c1555,74 3240,16 4810,16 2817,0 4626,501 5956,-712 1271,-1159 2037,-4164 1405,-5644 122,781 54,719 -184,1320z"/>
    <path class="fil7" d="M55079 68550l1547 160c-1074,-2285 -6446,-1120 -8935,-3969 -17,-20 -40,-46 -57,-65l-195 -183c124,965 624,2545 1067,3336 1278,-68 2284,14 3547,148 678,73 3042,174 3026,573z"/>
    <path class="fil12" d="M32013 46462c363,953 1677,1586 2598,1897 1493,504 2361,157 3676,-201 -365,-385 -955,-506 -1587,-1198 -282,-308 -330,-394 -582,-798 -126,-201 -136,-224 -234,-459 -136,-323 -88,-307 -266,-546 -811,874 -1915,1419 -3605,1305z"/>
    <path class="fil7" d="M29664 43979c363,3209 5251,2246 5923,679 142,-329 578,-2239 615,-2593 -1450,-808 -809,-787 -1563,-1320 328,651 441,1042 889,1435 -239,1437 -1008,2106 -2320,2520 -1882,593 -2602,88 -3544,-721z"/>
    <path class="fil7" d="M41511 47011c-1700,319 -2391,-66 -3367,-1043 -984,-985 -1221,-1549 -985,-3297 681,-319 809,-235 1332,-813 -682,173 -1031,354 -1859,313 -439,2261 -1184,3007 460,4615 1323,1294 3217,1785 4419,225z"/>
    <path class="fil5" d="M45394 69580c435,-1110 1303,-1385 2720,-1714 -186,-613 -493,-1248 -686,-1944 -148,-532 -334,-1664 -506,-2046l-2286 5461 758 243z"/>
    <path class="fil13" d="M34937 39641c-312,928 777,1910 1456,2113 811,242 2484,-8 2585,-1225 -870,-541 -2725,-1401 -4041,-888z"/>
    <path class="fil14" d="M33331 53171c-1529,-583 -964,-3387 1090,-2904 1528,359 1808,2822 -508,3133 163,-769 19,-425 444,-804 699,-625 -29,-1480 -692,-1145 -850,430 66,1005 -334,1720zm-923 -2541c-84,190 -54,168 -180,348 -343,1342 139,2433 1315,2694 1456,325 2145,-593 2435,-1686l-33 -461c-115,-515 -166,-708 -494,-1030 -1529,-1501 -2864,25 -3043,135z"/>
    <path class="fil15" d="M33668 50602c545,-198 943,-203 1050,407 -208,162 -248,248 -636,164 -562,-121 -313,-160 -414,-571zm-337 2569c400,-715 -516,-1290 334,-1720 663,-335 1391,520 692,1145 -425,379 -281,35 -444,804 2316,-311 2036,-2774 508,-3133 -2054,-483 -2619,2321 -1090,2904z"/>
    <path class="fil7" d="M49457 69931c-253,125 -1012,232 -983,-94 -377,441 -217,923 -151,1488l1113 -23 21 -1371z"/>
    <path class="fil7" d="M33537 69931c-281,96 -239,114 -565,74 -725,-91 -170,35 -437,-163 -250,335 -280,933 -181,1421l1080 2 103 -1334z"/>
    <path class="fil7" d="M32066 69902c-183,38 -455,95 -615,85 -475,-32 -141,100 -296,-158 -235,333 -263,959 -192,1433l953 8 150 -1368z"/>
    <polygon class="fil16" points="41394,70131 40426,70044 40383,71272 41316,71266 "/>
    <path class="fil17" d="M34718 51009c-107,-610 -505,-605 -1050,-407 101,411 -148,450 414,571 388,84 428,-2 636,-164z"/>
    <path class="fil18" d="M40479 38969c131,1236 2110,1050 1913,-325 -175,-1228 -2046,-940 -1913,325z"/>
    <path class="fil18" d="M33310 35932c-1167,341 -659,2251 646,1834 1056,-336 653,-2213 -646,-1834z"/>
    <circle class="fil19" cx="33360" cy="36496" r="246"/>
    <circle class="fil19" cx="41205" cy="38424" r="306"/>
   </g>
  </g>
 </g>
</svg>
