<?xml version="1.0" encoding="UTF-8"?>
<!DOCTYPE svg PUBLIC "-//W3C//DTD SVG 1.1//EN" "http://www.w3.org/Graphics/SVG/1.1/DTD/svg11.dtd">
<!-- Creator: CorelDRAW 2017 -->
<svg xmlns="http://www.w3.org/2000/svg" xml:space="preserve" width="114.737mm" height="10.1556mm" version="1.1" style="shape-rendering:geometricPrecision; text-rendering:geometricPrecision; image-rendering:optimizeQuality; fill-rule:evenodd; clip-rule:evenodd"
viewBox="0 0 681114 60287"
 xmlns:xlink="http://www.w3.org/1999/xlink">
 <defs>
  <style type="text/css">
   <![CDATA[
    .fil4 {fill:#1A73E8}
    .fil0 {fill:#299B49}
    .fil1 {fill:#DF372B}
    .fil3 {fill:#FABF12}
    .fil2 {fill:white}
    .fil5 {fill:#E4E6EB;fill-rule:nonzero}
   ]]>
  </style>
 </defs>
 <g id="Layer_x0020_1">
  <metadata id="CorelCorpID_0Corel-Layer"/>
  <g id="_2049186082800">
   <g>
    <path class="fil0" d="M0 29116l0 2420 357 3273c449,2867 1327,5753 2566,8286 1409,2883 2408,4288 4266,6589l849 959c176,179 293,287 451,453 2487,2616 5792,4951 9045,6428 6569,2979 11046,2546 11737,2763l905 0 12479 -21701c-204,219 -385,501 -562,744 -361,497 -1440,1681 -1885,2033 -132,104 -216,205 -347,306 -950,738 -1555,1218 -2709,1814 -7926,4087 -17077,655 -20699,-7008 -69,-51 -30,-16 -87,-84 -39,-46 -28,-36 -65,-93l-275 -476c-132,-221 -255,-435 -386,-669 -256,-455 -520,-889 -772,-1337 -506,-902 -1025,-1754 -1545,-2675 -1016,-1800 -2044,-3574 -3089,-5351 -1048,-1784 -2071,-3540 -3089,-5352 -933,-1660 -2266,-3792 -3086,-5354 -287,281 -1305,2449 -1547,3005 -1258,2895 -2018,5767 -2356,8944 -58,547 -60,1653 -156,2085z"/>
    <path class="fil1" d="M4058 15082c820,1562 2154,3694 3086,5354 1018,1812 2040,3568 3089,5352 1045,1777 2074,3551 3089,5351 520,921 1039,1774 1545,2675 252,449 516,882 772,1337 131,234 253,448 386,669l275 476c37,58 26,47 65,93 56,68 17,33 87,84 -491,-1297 -898,-2226 -1156,-3736 -793,-4635 508,-8763 3234,-12199l1462 -1552c1009,-882 1909,-1527 3240,-2239 1660,-886 3711,-1468 5657,-1627 759,-62 1659,29 2332,-39l25010 -12c-151,-340 -724,-1207 -959,-1565 -963,-1470 -1261,-1699 -2155,-2868l-2420 -2553c-125,-114 -229,-188 -357,-298l-957 -849c-2878,-2302 -5811,-4094 -9567,-5355 -1973,-662 -4008,-1124 -6107,-1374 -408,-49 -2062,-133 -2264,-208l-2462 0c-195,66 -1903,152 -2306,198 -4787,543 -8899,2130 -12868,4617 -1611,1009 -2302,1689 -3578,2703l-981 927c-1083,1001 -2322,2430 -3216,3617 -426,566 -1742,2433 -1975,3021z"/>
    <path class="fil2" d="M16452 36474c3622,7663 12773,11095 20699,7008 1155,-595 1759,-1076 2709,-1814 131,-102 215,-202 347,-306 445,-351 1524,-1536 1885,-2033 177,-243 357,-525 562,-744 132,-341 1011,-1497 1663,-3312 1706,-4749 909,-9900 -1859,-13826 -367,-520 -747,-943 -1114,-1399 -345,-429 -1497,-1445 -1958,-1809 -1958,-1544 -4490,-2646 -7044,-3009 -352,-50 -812,-46 -1120,-147 -673,68 -1574,-23 -2332,39 -1945,158 -3996,741 -5657,1627 -1332,711 -2231,1356 -3240,2239l-1462 1552c-2727,3437 -4027,7564 -3234,12199 258,1510 665,2439 1156,3736z"/>
    <path class="fil3" d="M42654 38585l-12479 21701 1168 0c262,-97 1297,-103 1681,-138 3248,-300 7127,-1305 9938,-2719 2726,-1372 3228,-1714 5609,-3434 784,-566 2151,-1807 2884,-2541 3617,-3622 6509,-8365 7886,-13814 375,-1483 672,-3090 807,-4632 33,-375 43,-1408 138,-1666l0 -2448c-88,-233 -142,-1681 -185,-2082 -350,-3210 -1121,-5863 -2362,-8792 -246,-579 -1177,-2546 -1509,-2950l-25010 12c308,101 768,97 1120,147 2554,362 5086,1464 7044,3009 461,364 1613,1381 1958,1809 367,455 747,879 1114,1399 2769,3926 3565,9077 1859,13826 -652,1815 -1530,2971 -1663,3312z"/>
    <path class="fil4" d="M29498 17916c-6544,377 -11984,5899 -11581,12924 373,6493 5930,11924 12903,11529 6509,-369 11937,-5907 11549,-12896 -361,-6499 -5919,-11957 -12872,-11557z"/>
   </g>
   <path class="fil5" d="M142545 54972l-12194 0 -3536 -11059 -17670 0 -3501 11059 -12134 0 18096 -49686 13270 0 17670 49686zm-18297 -19645l-5334 -16700c-391,-1254 -674,-2744 -840,-4471l-272 0c-118,1455 -402,2898 -863,4329l-5406 16842 12714 0z"/>
   <path id="1" class="fil5" d="M148743 54972l0 -49686 17611 0c17646,0 26469,8066 26469,24222 0,7735 -2413,13909 -7226,18534 -4814,4624 -11224,6931 -19243,6931l-17611 0zm11201 -40579l0 31496 5547 0c4849,0 8646,-1455 11414,-4364 2756,-2909 4139,-6872 4139,-11886 0,-4731 -1372,-8457 -4104,-11165 -2744,-2721 -6576,-4081 -11519,-4081l-5476 0z"/>
   <path id="2" class="fil5" d="M201066 54972l0 -49686 17611 0c17646,0 26469,8066 26469,24222 0,7735 -2413,13909 -7226,18534 -4814,4624 -11224,6931 -19243,6931l-17611 0zm11201 -40579l0 31496 5547 0c4849,0 8646,-1455 11414,-4364 2756,-2909 4139,-6872 4139,-11886 0,-4731 -1372,-8457 -4104,-11165 -2744,-2721 -6576,-4081 -11519,-4081l-5476 0z"/>
   <polygon id="3" class="fil5" points="307867,14393 293686,14393 293686,54972 282462,54972 282462,14393 268364,14393 268364,5286 307867,5286 "/>
   <path id="4" class="fil5" d="M332918 55835c-7120,0 -12916,-2318 -17398,-6943 -4483,-4636 -6718,-10668 -6718,-18108 0,-7853 2271,-14204 6824,-19054 4554,-4849 10574,-7286 18084,-7286 7096,0 12833,2330 17209,6966 4376,4648 6564,10775 6564,18368 0,7806 -2271,14110 -6813,18888 -4530,4778 -10455,7167 -17753,7167zm485 -41750c-3927,0 -7049,1466 -9356,4423 -2306,2945 -3466,6836 -3466,11686 0,4920 1159,8811 3466,11686 2306,2862 5334,4293 9071,4293 3868,0 6919,-1396 9190,-4175 2259,-2791 3394,-6647 3394,-11591 0,-5157 -1100,-9166 -3288,-12029 -2199,-2862 -5204,-4293 -9012,-4293z"/>
   <path id="5" class="fil5" d="M420925 53210c-3619,1751 -8362,2626 -14204,2626 -7617,0 -13613,-2235 -17978,-6718 -4376,-4483 -6552,-10456 -6552,-17919 0,-7948 2449,-14394 7357,-19338 4908,-4944 11283,-7416 19113,-7416 4849,0 8941,615 12264,1845l0 10775c-3323,-1987 -7108,-2981 -11366,-2981 -4660,0 -8433,1466 -11295,4399 -2862,2934 -4294,6907 -4294,11922 0,4802 1349,8634 4057,11484 2697,2851 6339,4282 10917,4282 4364,0 8362,-1064 11981,-3194l0 10231z"/>
   <polygon id="6" class="fil5" points="472587,54972 461362,54972 461362,34736 440783,34736 440783,54972 429582,54972 429582,5286 440783,5286 440783,25108 461362,25108 461362,5286 472587,5286 "/>
   <path id="7" class="fil5" d="M525644 54972l-12856 0 -7723 -12785c-579,-970 -1136,-1834 -1668,-2602 -532,-757 -1064,-1407 -1609,-1951 -544,-544 -1112,-958 -1703,-1254 -591,-284 -1230,-426 -1916,-426l-3016 0 0 19018 -11201 0 0 -49686 17741 0c12064,0 18096,4506 18096,13507 0,1738 -272,3335 -804,4802 -532,1466 -1277,2791 -2247,3974 -970,1171 -2141,2188 -3513,3039 -1384,864 -2909,1526 -4601,2011l0 142c745,237 1455,603 2153,1124 698,521 1360,1124 2011,1821 651,698 1266,1443 1857,2236 591,792 1124,1573 1609,2342l9391 14689zm-30491 -41301l0 13826 4849 0c2401,0 4329,-698 5783,-2081 1479,-1407 2224,-3158 2224,-5228 0,-4352 -2602,-6516 -7806,-6516l-5050 0z"/>
   <path id="8" class="fil5" d="M550588 55835c-7120,0 -12916,-2318 -17398,-6943 -4483,-4636 -6718,-10668 -6718,-18108 0,-7853 2271,-14204 6824,-19054 4554,-4849 10574,-7286 18084,-7286 7096,0 12833,2330 17209,6966 4376,4648 6564,10775 6564,18368 0,7806 -2271,14110 -6813,18888 -4530,4778 -10455,7167 -17753,7167zm485 -41750c-3927,0 -7049,1466 -9356,4423 -2306,2945 -3466,6836 -3466,11686 0,4920 1159,8811 3466,11686 2306,2862 5334,4293 9071,4293 3868,0 6919,-1396 9190,-4175 2259,-2791 3394,-6647 3394,-11591 0,-5157 -1100,-9166 -3288,-12029 -2199,-2862 -5204,-4293 -9012,-4293z"/>
   <path id="9" class="fil5" d="M640026 54972l-11059 0 0 -29734c0,-3205 142,-6754 414,-10633l-272 0c-579,3051 -1100,5239 -1561,6588l-11638 33779 -9154 0 -11851 -33436c-319,-899 -839,-3217 -1561,-6931l-308 0c296,4896 449,9189 449,12891l0 27475 -10089 0 0 -49686 16393 0 10159 29450c804,2353 1396,4719 1762,7108l213 0c615,-2756 1277,-5145 1975,-7179l10148 -29379 15979 0 0 49686z"/>
   <polygon id="10" class="fil5" points="681114,54972 651309,54972 651309,5286 679967,5286 679967,14393 662510,14393 662510,25451 678761,25451 678761,34523 662510,34523 662510,45889 681114,45889 "/>
  </g>
 </g>
</svg>
