<?xml version="1.0" encoding="UTF-8"?>
<!DOCTYPE svg PUBLIC "-//W3C//DTD SVG 1.1//EN" "http://www.w3.org/Graphics/SVG/1.1/DTD/svg11.dtd">
<!-- Creator: CorelDRAW 2017 -->
<svg xmlns="http://www.w3.org/2000/svg" xml:space="preserve" width="42.3334mm" height="42.3333mm" version="1.1" style="shape-rendering:geometricPrecision; text-rendering:geometricPrecision; image-rendering:optimizeQuality; fill-rule:evenodd; clip-rule:evenodd"
viewBox="0 0 908 908"
 xmlns:xlink="http://www.w3.org/1999/xlink">
 <defs>
  <style type="text/css">
   <![CDATA[
    .fil1 {fill:none}
    .fil0 {fill:white;fill-rule:nonzero}
   ]]>
  </style>
 </defs>
 <g id="Layer_x0020_1">
  <metadata id="CorelCorpID_0Corel-Layer"/>
  <g id="_2049103746560">
   <path class="fil0" d="M219 122l470 0c27,0 51,11 68,28 17,18 28,42 28,68l0 303c0,26 -11,51 -28,68 -18,17 -42,28 -68,28l-31 0 0 168 -101 -168 -338 0c-27,0 -51,-11 -68,-28 -18,-17 -28,-42 -28,-68l0 -303c0,-27 11,-51 28,-68 17,-17 42,-28 68,-28zm41 244l244 0 0 38 -244 0 0 -38zm0 -102l356 0 0 38 -356 0 0 -38zm360 355l-19 0 19 32 0 -32zm-100 -115l137 0 0 77 31 0c16,0 31,-7 41,-17 11,-11 17,-25 17,-41l0 -303c0,-16 -7,-31 -17,-41 -11,-11 -25,-17 -41,-17l-470 0c-16,0 -31,7 -41,17 -11,11 -17,25 -17,41l0 303c0,16 7,31 17,41 11,11 25,17 41,17l315 0 -47 -77 33 0zm100 38l-66 0 24 40 42 0 0 -40z"/>
   <rect class="fil1" width="908" height="908"/>
  </g>
 </g>
</svg>
