<?xml version="1.0" encoding="UTF-8"?>
<!DOCTYPE svg PUBLIC "-//W3C//DTD SVG 1.1//EN" "http://www.w3.org/Graphics/SVG/1.1/DTD/svg11.dtd">
<!-- Creator: CorelDRAW 2017 -->
<svg xmlns="http://www.w3.org/2000/svg" xml:space="preserve" width="42.3334mm" height="42.3334mm" version="1.1" style="shape-rendering:geometricPrecision; text-rendering:geometricPrecision; image-rendering:optimizeQuality; fill-rule:evenodd; clip-rule:evenodd"
viewBox="0 0 908 908"
 xmlns:xlink="http://www.w3.org/1999/xlink">
 <defs>
  <style type="text/css">
   <![CDATA[
    .fil2 {fill:none}
    .fil0 {fill:white}
    .fil1 {fill:white;fill-rule:nonzero}
   ]]>
  </style>
 </defs>
 <g id="Layer_x0020_1">
  <metadata id="CorelCorpID_0Corel-Layer"/>
  <g id="_2085361952400">
   <g>
    <path class="fil0" d="M325 212c-48,-2 -88,17 -116,44 -54,51 -204,356 -68,397 26,8 49,0 68,-6 43,-14 80,-70 177,-63 96,7 156,57 191,136 5,12 6,19 12,30 16,30 61,79 111,60 40,-15 66,-58 84,-112 32,-95 59,-221 23,-293 -17,-33 -49,-74 -107,-81 -42,-5 -83,20 -131,19 -139,-1 -134,-128 -242,-132zm7 27c-44,-5 -82,15 -109,39 -46,43 -198,371 -49,350 59,-8 102,-85 223,-70 115,14 174,82 201,150 42,106 114,113 159,-21 16,-48 25,-97 33,-146 10,-56 8,-84 -12,-125 -55,-112 -136,-41 -221,-45 -139,-7 -147,-122 -226,-132z"/>
    <path class="fil0" d="M369 398c2,1 3,3 2,5l-9 31c-1,2 -3,3 -5,2 -40,-12 -29,-1 -47,-35 34,-18 19,-15 58,-2z"/>
    <path class="fil0" d="M301 465c-1,2 -3,3 -5,2l-31 -9c-2,-1 -3,-3 -2,-5 12,-40 1,-29 35,-47 18,34 15,19 2,58z"/>
    <path class="fil0" d="M246 360c-2,-1 -4,0 -5,2l-9 31c-1,2 0,4 2,5 40,12 25,15 58,-2 -18,-34 -7,-23 -47,-35z"/>
    <path class="fil0" d="M339 342c1,-2 0,-4 -2,-5l-31 -9c-2,-1 -4,0 -5,2 -12,40 -15,25 2,58 34,-18 23,-7 35,-47z"/>
    <circle class="fil0" transform="matrix(12.4332 3.84083 -3.84083 12.4332 696.639 445.949)" r="2"/>
    <circle class="fil0" transform="matrix(-3.84083 12.4332 -12.4332 -3.84083 733.622 515.995)" r="2"/>
    <circle class="fil0" transform="matrix(12.4332 3.84083 -3.84083 12.4332 663.585 552.951)" r="2"/>
    <circle class="fil0" transform="matrix(-3.84083 12.4332 -12.4332 -3.84083 626.62 482.94)" r="2"/>
    <rect class="fil0" transform="matrix(12.4332 3.84083 -3.84083 12.4332 463.805 402.72)" width="5" height="2"/>
    <rect class="fil0" transform="matrix(12.4332 3.84083 -3.84083 12.4332 446.425 458.982)" width="5" height="2"/>
    <path class="fil1" d="M490 346c5,-45 34,-70 62,-94 33,-28 63,-54 -1,-130l34 -28c92,110 46,150 -4,193 -21,18 -44,37 -47,65l-44 -5z"/>
   </g>
   <rect class="fil2" width="908" height="908"/>
  </g>
 </g>
</svg>
