<?xml version="1.0" encoding="UTF-8"?>
<!DOCTYPE svg PUBLIC "-//W3C//DTD SVG 1.1//EN" "http://www.w3.org/Graphics/SVG/1.1/DTD/svg11.dtd">
<!-- Creator: CorelDRAW 2017 -->
<svg xmlns="http://www.w3.org/2000/svg" xml:space="preserve" width="42.3334mm" height="42.3333mm" version="1.1" style="shape-rendering:geometricPrecision; text-rendering:geometricPrecision; image-rendering:optimizeQuality; fill-rule:evenodd; clip-rule:evenodd"
viewBox="0 0 908 908"
 xmlns:xlink="http://www.w3.org/1999/xlink">
 <defs>
  <style type="text/css">
   <![CDATA[
    .fil1 {fill:none}
    .fil0 {fill:white}
   ]]>
  </style>
 </defs>
 <g id="Layer_x0020_1">
  <metadata id="CorelCorpID_0Corel-Layer"/>
  <g id="_2049081271872">
   <g>
    <path class="fil0" d="M392 640l123 0c2,15 1,109 1,132 0,30 6,29 37,29 42,0 92,1 133,0 54,-1 44,-53 44,-89l0 -234c0,-29 -28,-26 -34,-13 -3,7 -2,23 -2,32 0,24 1,264 -1,267 -6,3 -124,1 -142,1 0,-21 0,-43 0,-64 0,-21 1,-44 0,-64 0,-9 -4,-19 -8,-24 -7,-8 -10,-8 -24,-8l-129 0c-22,0 -29,5 -32,32 -2,16 -1,106 -1,129l-131 0c-8,0 -12,1 -12,-8 -2,-71 0,-154 0,-227 0,-13 0,-25 0,-38 0,-13 2,-26 -6,-32 -8,-7 -20,-5 -26,2 -6,7 -4,22 -4,34l0 227c0,28 -3,50 11,65 16,17 32,13 63,13l113 0c14,0 22,-1 26,-11 4,-10 -2,-139 2,-150z"/>
    <path class="fil0" d="M86 463c0,15 15,21 25,16 5,-2 18,-17 23,-22l310 -310c3,-3 7,-9 12,-7 3,2 163,162 167,166 30,30 59,59 89,89l77 77c6,6 7,8 17,8 7,0 16,-8 16,-19 0,-8 -15,-20 -20,-25l-317 -317c-8,-8 -15,-15 -31,-15 -23,0 -37,19 -54,37l-295 295c-6,6 -19,16 -19,27z"/>
    <path class="fil0" d="M693 278l0 -24c0,-11 0,-15 4,-21 13,-20 44,-8 44,11l0 85 -48 -50z"/>
    <path class="fil0" d="M463 299l24 0c3,0 6,3 6,6l0 24c0,3 -3,6 -6,6l-24 0c-3,0 -6,-3 -6,-6l0 -24c0,-3 3,-6 6,-6zm0 41l24 0c3,0 6,3 6,6l0 24c0,3 -3,6 -6,6l-24 0c-3,0 -6,-3 -6,-6l0 -24c0,-3 3,-6 6,-6zm-42 0l24 0c3,0 6,3 6,6l0 24c0,3 -3,6 -6,6l-24 0c-3,0 -6,-3 -6,-6l0 -24c0,-3 3,-6 6,-6zm0 -41l24 0c3,0 6,3 6,6l0 24c0,3 -3,6 -6,6l-24 0c-3,0 -6,-3 -6,-6l0 -24c0,-3 3,-6 6,-6z"/>
   </g>
   <rect class="fil1" width="908" height="908"/>
  </g>
 </g>
</svg>
