<?xml version="1.0" encoding="UTF-8"?>
<!DOCTYPE svg PUBLIC "-//W3C//DTD SVG 1.1//EN" "http://www.w3.org/Graphics/SVG/1.1/DTD/svg11.dtd">
<!-- Creator: CorelDRAW 2017 -->
<svg xmlns="http://www.w3.org/2000/svg" xml:space="preserve" width="45.6353mm" height="7.112mm" version="1.1" style="shape-rendering:geometricPrecision; text-rendering:geometricPrecision; image-rendering:optimizeQuality; fill-rule:evenodd; clip-rule:evenodd"
viewBox="0 0 1113 174"
 xmlns:xlink="http://www.w3.org/1999/xlink">
 <defs>
  <style type="text/css">
   <![CDATA[
    .fil2 {fill:black}
    .fil1 {fill:white}
    .fil0 {fill:white;fill-rule:nonzero}
   ]]>
  </style>
 </defs>
 <g id="Layer_x0020_1">
  <metadata id="CorelCorpID_0Corel-Layer"/>
  <g id="_2048761878048">
   <path class="fil0" d="M279 72l0 0c0,-4 -2,-6 -5,-8 -3,-2 -7,-3 -11,-3 -4,0 -7,1 -9,3 -2,2 -3,4 -3,7 0,2 1,4 4,5 2,1 7,3 15,4 11,2 18,5 22,8 4,3 6,8 6,15 0,7 -3,13 -8,17 -6,4 -13,6 -23,6 -10,0 -17,-2 -22,-7 -5,-4 -8,-11 -9,-19l0 0 15 0 0 0c0,4 2,7 4,9 3,2 7,3 11,3 5,0 9,-1 12,-2 3,-2 4,-4 4,-7 0,-3 -1,-5 -3,-6 -2,-1 -6,-3 -13,-4 -12,-3 -20,-6 -24,-9 -4,-3 -6,-8 -6,-14 0,-7 3,-13 8,-17 5,-4 12,-6 21,-6 8,0 15,2 21,7 5,4 8,10 9,18l0 0 -15 0z"/>
   <path id="1" class="fil0" d="M308 125l0 -75 0 0 8 0 0 0 24 0c9,0 15,2 20,6 4,4 7,10 7,18 0,8 -2,14 -7,19 -4,4 -11,6 -20,6 -6,0 -11,0 -16,0l0 0 0 27 0 0 -8 0 -8 0zm16 -40l0 0 13 0c4,0 8,-1 10,-3 2,-2 3,-5 3,-9 0,-4 -1,-6 -3,-8 -2,-2 -5,-3 -10,-3l-13 0 0 0 0 22z"/>
   <path id="2" class="fil0" d="M372 125l27 -75 9 0 9 0 27 75 0 0 -8 0 -8 0 0 0 -5 -15 0 0 -29 0 0 0 -5 15 0 0 -8 0 -8 0zm35 -58l-10 30 0 0 20 0 0 0 -10 -30 0 0z"/>
   <path id="3" class="fil0" d="M517 98l0 0c-1,9 -4,16 -10,21 -6,5 -13,8 -22,8 -11,0 -19,-4 -25,-11 -6,-7 -9,-17 -9,-29 0,-12 3,-22 9,-29 6,-7 15,-11 25,-11 9,0 16,2 22,7 6,5 9,11 10,20l0 0 -16 0 0 0c-1,-4 -2,-7 -5,-10 -3,-2 -7,-4 -11,-4 -6,0 -10,2 -14,7 -3,5 -5,11 -5,19 0,8 2,14 5,19 3,5 8,7 14,7 5,0 8,-1 11,-4 3,-3 5,-6 5,-11l0 0 16 0z"/>
   <polygon id="4" class="fil0" points="529,125 529,125 529,50 529,50 585,50 585,50 585,56 585,63 585,63 545,63 545,63 545,79 545,79 582,79 582,85 582,92 582,92 545,92 545,92 545,111 545,111 586,111 586,111 586,118 586,125 586,125 "/>
   <path id="5" class="fil0" d="M599 125l0 -75 0 0 8 0 0 0 29 0c7,0 13,2 17,5 4,3 6,8 6,14 0,6 -2,11 -7,14 -1,1 -2,1 -3,1l0 0c2,1 3,1 5,2 5,3 7,8 7,14 0,8 -2,14 -7,18 -5,4 -12,6 -21,6l-27 0 0 0 -8 0zm15 -62l0 16 0 0 18 0c4,0 7,-1 9,-2 2,-1 3,-4 3,-7 0,-3 -1,-4 -3,-6 -2,-1 -5,-2 -9,-2l-17 0zm0 29l0 20 0 0 19 0c4,0 7,-1 9,-3 2,-2 3,-4 3,-8 0,-3 -1,-5 -3,-7 -2,-2 -5,-2 -9,-2l-19 0z"/>
   <path id="6" class="fil0" d="M669 125l27 -75 9 0 9 0 27 75 0 0 -8 0 -8 0 0 0 -5 -15 0 0 -29 0 0 0 -5 15 0 0 -8 0 -8 0zm35 -58l-10 30 0 0 20 0 0 0 -10 -30 0 0z"/>
   <path id="7" class="fil0" d="M750 125l0 -75 0 0 8 0 0 0 30 0c7,0 13,2 17,6 4,4 7,9 7,15 0,7 -2,13 -7,16 -1,1 -3,2 -4,2l0 0c1,0 2,1 3,1 4,3 7,7 7,13l0 12c0,2 0,4 1,5 0,1 1,2 3,2l0 2 -17 0c0,-1 -1,-2 -1,-5 0,-3 0,-5 -1,-8l0 -7c0,-3 -1,-6 -3,-7 -2,-1 -5,-2 -10,-2l-16 0 0 0 0 30 0 0 -8 0 -8 0zm16 -42l0 0 18 0c4,0 7,-1 9,-2 2,-2 3,-4 3,-7 0,-3 -1,-6 -3,-7 -2,-2 -5,-2 -9,-2l-19 0 0 0 0 20z"/>
   <polygon id="8" class="fil0" points="871,125 871,63 871,63 849,63 849,63 849,56 849,50 849,50 910,50 910,50 910,56 910,63 910,63 887,63 887,63 887,125 887,125 879,125 "/>
   <polygon id="9" class="fil0" points="919,125 919,125 919,50 919,50 974,50 974,50 974,56 974,63 974,63 935,63 935,63 935,79 935,79 971,79 971,85 971,92 971,92 935,92 935,92 935,111 935,111 976,111 976,111 976,118 976,125 976,125 "/>
   <path id="10" class="fil0" d="M1029 72l0 0c0,-4 -2,-6 -5,-8 -3,-2 -7,-3 -11,-3 -4,0 -7,1 -9,3 -2,2 -3,4 -3,7 0,2 1,4 4,5 2,1 7,3 15,4 11,2 18,5 22,8 4,3 6,8 6,15 0,7 -3,13 -8,17 -6,4 -13,6 -23,6 -10,0 -17,-2 -22,-7 -5,-4 -8,-11 -9,-19l0 0 15 0 0 0c0,4 2,7 4,9 3,2 7,3 11,3 5,0 9,-1 12,-2 3,-2 4,-4 4,-7 0,-3 -1,-5 -3,-6 -2,-1 -6,-3 -13,-4 -12,-3 -20,-6 -24,-9 -4,-3 -6,-8 -6,-14 0,-7 3,-13 8,-17 5,-4 12,-6 21,-6 8,0 15,2 21,7 5,4 8,10 9,18l0 0 -15 0z"/>
   <polygon id="11" class="fil0" points="1075,125 1075,63 1075,63 1052,63 1052,63 1052,56 1052,50 1052,50 1113,50 1113,50 1113,56 1113,63 1113,63 1091,63 1091,63 1091,125 1091,125 1083,125 "/>
   <g>
    <rect class="fil1" transform="matrix(0.040342 -0.0111398 0.0111398 0.040342 -1.5096 36.8297)" width="3442" height="3442" rx="157" ry="157"/>
    <polygon class="fil2" points="46,87 51,85 58,98 118,81 117,67 122,66 128,88 52,109 "/>
   </g>
  </g>
 </g>
</svg>
