<?xml version="1.0" encoding="UTF-8"?>
<!DOCTYPE svg PUBLIC "-//W3C//DTD SVG 1.1//EN" "http://www.w3.org/Graphics/SVG/1.1/DTD/svg11.dtd">
<!-- Creator: CorelDRAW 2017 -->
<svg xmlns="http://www.w3.org/2000/svg" xml:space="preserve" width="21.707mm" height="17.3278mm" version="1.1" style="shape-rendering:geometricPrecision; text-rendering:geometricPrecision; image-rendering:optimizeQuality; fill-rule:evenodd; clip-rule:evenodd"
viewBox="0 0 349 278"
 xmlns:xlink="http://www.w3.org/1999/xlink">
 <defs>
  <style type="text/css">
   <![CDATA[
    .fil0 {fill:#D2D3D5}
   ]]>
  </style>
 </defs>
 <g id="Layer_x0020_1">
  <metadata id="CorelCorpID_0Corel-Layer"/>
  <path class="fil0" d="M17 0l315 0c9,0 17,8 17,17l0 31c0,9 -8,17 -17,17l-315 0c-9,0 -17,-8 -17,-17l0 -31c0,-9 8,-17 17,-17zm0 214l141 0c9,0 17,8 17,17l0 31c0,9 -8,17 -17,17l-141 0c-9,0 -17,-8 -17,-17l0 -31c0,-9 8,-17 17,-17zm0 -107l229 0c9,0 17,8 17,17l0 31c0,9 -8,17 -17,17l-229 0c-9,0 -17,-8 -17,-17l0 -31c0,-9 8,-17 17,-17z"/>
 </g>
</svg>
