<?xml version="1.0" encoding="UTF-8"?>
<!DOCTYPE svg PUBLIC "-//W3C//DTD SVG 1.1//EN" "http://www.w3.org/Graphics/SVG/1.1/DTD/svg11.dtd">
<!-- Creator: CorelDRAW 2017 -->
<svg xmlns="http://www.w3.org/2000/svg" xml:space="preserve" width="42.3334mm" height="42.3333mm" version="1.1" style="shape-rendering:geometricPrecision; text-rendering:geometricPrecision; image-rendering:optimizeQuality; fill-rule:evenodd; clip-rule:evenodd"
viewBox="0 0 908 908"
 xmlns:xlink="http://www.w3.org/1999/xlink">
 <defs>
  <style type="text/css">
   <![CDATA[
    .fil1 {fill:none}
    .fil0 {fill:white}
   ]]>
  </style>
 </defs>
 <g id="Layer_x0020_1">
  <metadata id="CorelCorpID_0Corel-Layer"/>
  <g id="_2084658081392">
   <g>
    <path class="fil0" d="M783 465l0 -247c0,-26 -28,-17 -58,-21 -74,-9 -119,-15 -188,-48 -18,-9 -34,-19 -48,-31 -17,-15 -19,-25 -31,-28 -7,-1 -12,1 -15,4 -3,3 -6,7 -9,10 -8,10 -21,21 -32,28 -17,11 -32,19 -52,28 -35,15 -81,27 -124,33 -23,3 -49,6 -72,6 -15,0 -22,1 -26,13 -3,8 -1,179 -1,196 0,54 0,99 15,144 15,46 47,103 82,135 4,3 6,6 10,10 9,8 12,11 20,18 50,43 114,78 178,98 28,9 27,7 63,-6 76,-27 143,-70 193,-122 26,-26 49,-59 65,-93 15,-32 31,-83 31,-128zm-620 -229c-2,65 0,132 0,198 0,37 1,59 8,91 6,26 17,51 29,71 25,44 56,76 93,105 41,32 94,60 146,77 6,2 13,5 20,3 31,-8 78,-30 103,-45 35,-20 70,-46 98,-75 37,-39 65,-84 80,-145 10,-42 7,-144 7,-192l0 -88c-31,-3 -58,-4 -88,-10 -27,-5 -54,-12 -78,-20 -36,-12 -84,-33 -113,-59 -5,-4 -9,-8 -13,-12 -12,13 -40,31 -56,40 -60,34 -160,57 -235,59z"/>
    <path class="fil0" d="M373 422l4 0 0 -32c0,-15 6,-30 17,-40 10,-10 24,-17 40,-17l39 0c15,0 30,6 40,17 10,10 17,24 17,40l0 32 7 0c12,0 22,10 22,22l0 109c0,12 -10,22 -22,22l-163 0c-12,0 -22,-10 -22,-22l0 -109c0,-12 10,-22 22,-22zm45 43c9,14 16,24 24,37 8,16 7,-1 40,-28 9,-8 19,-16 29,-22l21 32c-8,5 -17,12 -26,20 -8,7 -17,14 -26,20l-13 10c-6,5 -10,9 -13,10 -18,10 -28,-7 -40,-23 -4,-6 -9,-16 -12,-26l15 -29zm-3 -43l76 0 0 -32c0,-5 -2,-10 -6,-13 -3,-3 -8,-6 -13,-6l-39 0c-5,0 -10,2 -13,5 -3,3 -6,8 -6,13l0 32z"/>
   </g>
   <rect class="fil1" width="908" height="908"/>
  </g>
 </g>
</svg>
