<?xml version="1.0" encoding="UTF-8"?>
<!DOCTYPE svg PUBLIC "-//W3C//DTD SVG 1.1//EN" "http://www.w3.org/Graphics/SVG/1.1/DTD/svg11.dtd">
<!-- Creator: CorelDRAW 2017 -->
<svg xmlns="http://www.w3.org/2000/svg" xml:space="preserve" width="33.8668mm" height="33.8668mm" version="1.1" style="shape-rendering:geometricPrecision; text-rendering:geometricPrecision; image-rendering:optimizeQuality; fill-rule:evenodd; clip-rule:evenodd"
viewBox="0 0 45725 45725"
 xmlns:xlink="http://www.w3.org/1999/xlink">
 <defs>
  <style type="text/css">
   <![CDATA[
    .fil1 {fill:none}
    .fil0 {fill:white}
   ]]>
  </style>
 </defs>
 <g id="Layer_x0020_1">
  <metadata id="CorelCorpID_0Corel-Layer"/>
  <g id="_2084807837072">
   <path class="fil0" d="M13668 8357l-6351 5c-2,1379 0,2759 0,4139 0,1378 -94,2656 235,3958 569,2255 1613,3721 3141,5194 1571,1515 3445,2197 5546,2791 285,80 158,-5 278,204 637,1093 437,960 1416,2266 484,645 1418,1599 2148,2017l3 4291 -1810 4 -9 2779 -4700 2029 0 2133 18600 9 -5 -2144 -4698 -2027 -3 -2777 -1817 -2 1 -4295c1135,-646 2274,-2078 2967,-3191l560 -1010c114,-229 39,-195 270,-274 1261,-429 1580,-338 3083,-1089 2760,-1380 4856,-3803 5639,-6860 338,-1323 247,-2548 247,-3945 0,-1401 2,-2801 0,-4201l-6328 1 -27 -2816 -18371 0 -13 2811zm1825 12908l-660 -2187c-200,-786 -356,-1565 -485,-2370 -298,-1863 -350,-3448 -392,-5359l-3745 -7c-43,1235 -6,2536 -5,3770 2,1839 1320,3869 2730,4895 638,465 1614,1032 2558,1258zm14976 -1l660 -2186c201,-786 356,-1565 485,-2370 298,-1863 351,-3448 393,-5359l3746 -7c42,1235 5,2536 4,3770 -2,1839 -1320,3869 -2730,4895 -638,465 -1614,1032 -2558,1258z"/>
   <rect class="fil1" width="45725" height="45725"/>
  </g>
 </g>
</svg>
