<?xml version="1.0" encoding="UTF-8"?>
<!DOCTYPE svg PUBLIC "-//W3C//DTD SVG 1.1//EN" "http://www.w3.org/Graphics/SVG/1.1/DTD/svg11.dtd">
<!-- Creator: CorelDRAW 2017 -->
<svg xmlns="http://www.w3.org/2000/svg" xml:space="preserve" width="346.787mm" height="42.3334mm" version="1.1" style="shape-rendering:geometricPrecision; text-rendering:geometricPrecision; image-rendering:optimizeQuality; fill-rule:evenodd; clip-rule:evenodd"
viewBox="0 0 19641 2398"
 xmlns:xlink="http://www.w3.org/1999/xlink">
 <defs>
  <style type="text/css">
   <![CDATA[
    .fil0 {fill:#35C166}
    .fil1 {fill:#3BD671}
    .fil2 {fill:#98E9B3}
    .fil3 {fill:white;fill-rule:nonzero}
   ]]>
  </style>
 </defs>
 <g id="Layer_x0020_1">
  <metadata id="CorelCorpID_0Corel-Layer"/>
  <g id="_2085137233488">
   <g>
    <path class="fil0" d="M18564 0l-17487 0c-592,0 -1077,484 -1077,1077l0 244c0,592 484,1077 1077,1077l17487 0c592,0 1077,-484 1077,-1077l0 -244c0,-592 -484,-1077 -1077,-1077z"/>
    <path class="fil1" d="M18564 0l-17487 0c-563,0 -1029,438 -1073,991 44,552 510,991 1073,991l17487 0c563,0 1029,-438 1073,-991 -44,-552 -510,-991 -1073,-991z"/>
    <path class="fil2" d="M6 968c-1,8 -1,15 -2,23 44,552 510,991 1073,991l9599 0 -9599 -89c-555,-5 -1016,-407 -1071,-925z"/>
    <path class="fil2" d="M19635 968c1,8 1,15 2,23 -44,552 -510,991 -1073,991l-9599 0 9599 -89c555,-5 1016,-407 1071,-925z"/>
   </g>
   <path class="fil3" d="M7702 1141c-23,11 -54,17 -92,17 -49,0 -88,-14 -117,-44 -28,-29 -43,-68 -43,-116 0,-52 16,-93 48,-125 32,-32 73,-48 124,-48 31,0 58,4 80,12l0 70c-22,-13 -46,-19 -74,-19 -30,0 -55,10 -73,29 -19,19 -28,45 -28,77 0,31 9,56 26,75 18,19 41,28 71,28 28,0 54,-7 78,-21l0 66zm248 11l-192 0 0 -322 73 0 0 264 119 0 0 59zm116 0l-73 0 0 -322 73 0 0 322zm304 -11c-23,11 -54,17 -92,17 -49,0 -88,-14 -117,-44 -28,-29 -43,-68 -43,-116 0,-52 16,-93 48,-125 32,-32 73,-48 124,-48 31,0 58,4 80,12l0 70c-22,-13 -46,-19 -74,-19 -30,0 -55,10 -73,29 -19,19 -28,45 -28,77 0,31 9,56 26,75 18,19 41,28 71,28 28,0 54,-7 78,-21l0 66zm324 11l-92 0 -94 -140c-2,-3 -5,-9 -9,-18l-1 0 0 158 -73 0 0 -322 73 0 0 152 1 0c2,-4 5,-10 9,-18l89 -134 87 0 -112 154 122 169zm437 0l-73 0 0 -131 -134 0 0 131 -73 0 0 -322 73 0 0 129 134 0 0 -129 73 0 0 322zm267 0l-193 0 0 -322 186 0 0 59 -113 0 0 72 105 0 0 59 -105 0 0 74 121 0 0 59zm322 0l-83 0 -50 -83c-4,-6 -7,-12 -11,-17 -3,-5 -7,-9 -10,-13 -4,-4 -7,-6 -11,-8 -4,-2 -8,-3 -12,-3l-20 0 0 123 -73 0 0 -322 115 0c78,0 117,29 117,88 0,11 -2,22 -5,31 -3,10 -8,18 -15,26 -6,8 -14,14 -23,20 -9,6 -19,10 -30,13l0 1c5,2 9,4 14,7 5,3 9,7 13,12 4,5 8,9 12,14 4,5 7,10 10,15l61 95zm-198 -268l0 90 31 0c16,0 28,-5 38,-14 10,-9 14,-21 14,-34 0,-28 -17,-42 -51,-42l-33 0zm421 268l-193 0 0 -322 186 0 0 59 -113 0 0 72 105 0 0 59 -105 0 0 74 121 0 0 59zm405 -263l-92 0 0 263 -73 0 0 -263 -91 0 0 -59 256 0 0 59zm163 269c-46,0 -84,-15 -113,-45 -29,-30 -44,-69 -44,-118 0,-51 15,-92 44,-124 30,-31 69,-47 117,-47 46,0 83,15 112,45 28,30 43,70 43,119 0,51 -15,92 -44,123 -29,31 -68,47 -115,47zm3 -271c-25,0 -46,10 -61,29 -15,19 -22,44 -22,76 0,32 8,57 22,76 15,19 35,28 59,28 25,0 45,-9 60,-27 15,-18 22,-43 22,-75 0,-33 -7,-59 -21,-78 -14,-19 -34,-28 -59,-28zm322 253l0 -72c13,11 27,19 43,25 15,5 31,8 46,8 9,0 17,-1 24,-2 7,-2 13,-4 17,-7 5,-3 8,-6 10,-10 2,-4 3,-8 3,-13 0,-6 -2,-12 -5,-17 -4,-5 -9,-10 -15,-14 -6,-4 -14,-8 -22,-12 -9,-4 -18,-8 -28,-12 -25,-10 -44,-23 -56,-38 -12,-15 -19,-33 -19,-55 0,-17 3,-31 10,-43 7,-12 16,-22 28,-30 12,-8 25,-14 40,-17 15,-4 31,-6 49,-6 17,0 32,1 45,3 13,2 25,5 36,9l0 67c-5,-4 -11,-7 -18,-10 -6,-3 -13,-5 -20,-7 -7,-2 -13,-3 -20,-4 -7,-1 -13,-1 -19,-1 -8,0 -16,1 -22,2 -7,2 -12,4 -17,7 -5,3 -8,6 -11,10 -3,4 -4,8 -4,13 0,5 1,10 4,14 3,4 7,8 12,12 5,4 12,8 19,11 7,4 16,7 25,11 13,5 24,11 35,17 10,6 19,13 26,21 7,8 13,16 17,26 4,10 6,21 6,34 0,18 -3,33 -10,45 -7,12 -16,22 -28,30 -12,8 -25,13 -41,16 -16,3 -32,5 -49,5 -18,0 -34,-1 -50,-4 -16,-3 -30,-8 -42,-14zm500 -251l-92 0 0 263 -73 0 0 -263 -92 0 0 -59 256 0 0 59zm295 263l-79 0 -23 -72 -115 0 -23 72 -79 0 117 -322 86 0 115 322zm-119 -128l-35 -108c-3,-8 -4,-18 -5,-29l-2 0c-1,9 -3,19 -6,28l-35 109 83 0zm430 128l-83 0 -50 -83c-4,-6 -7,-12 -11,-17 -3,-5 -7,-9 -10,-13 -4,-4 -7,-6 -11,-8 -4,-2 -8,-3 -12,-3l-20 0 0 123 -73 0 0 -322 115 0c78,0 117,29 117,88 0,11 -2,22 -5,31 -3,10 -8,18 -15,26 -6,8 -14,14 -23,20 -9,6 -19,10 -30,13l0 1c5,2 9,4 14,7 5,3 9,7 13,12 4,5 8,9 12,14 4,5 7,10 10,15l61 95zm-198 -268l0 90 31 0c16,0 28,-5 38,-14 10,-9 14,-21 14,-34 0,-28 -17,-42 -51,-42l-33 0zm445 5l-92 0 0 263 -73 0 0 -263 -91 0 0 -59 256 0 0 59z"/>
  </g>
 </g>
</svg>
