<?xml version="1.0" encoding="UTF-8"?>
<!DOCTYPE svg PUBLIC "-//W3C//DTD SVG 1.1//EN" "http://www.w3.org/Graphics/SVG/1.1/DTD/svg11.dtd">
<!-- Creator: CorelDRAW 2017 -->
<svg xmlns="http://www.w3.org/2000/svg" xml:space="preserve" width="33.1366mm" height="25.5541mm" version="1.1" style="shape-rendering:geometricPrecision; text-rendering:geometricPrecision; image-rendering:optimizeQuality; fill-rule:evenodd; clip-rule:evenodd"
viewBox="0 0 233 180"
 xmlns:xlink="http://www.w3.org/1999/xlink">
 <defs>
  <style type="text/css">
   <![CDATA[
    .fil1 {fill:#2B914F;fill-rule:nonzero}
    .fil0 {fill:#B3B3B3;fill-rule:nonzero}
   ]]>
  </style>
 </defs>
 <g id="Layer_x0020_1">
  <metadata id="CorelCorpID_0Corel-Layer"/>
  <g id="_2085419157840">
   <path class="fil0" d="M116 14c23,0 44,9 58,24 4,4 7,7 10,11l-12 0c-1,-2 -3,-3 -4,-5 -13,-13 -32,-21 -52,-21 -20,0 -39,8 -52,21 -2,2 -3,3 -4,5l-12 0c3,-4 6,-8 10,-11 15,-15 36,-24 59,-24zm51 -1l4 3c1,1 2,3 1,4l-2 4c-1,1 -3,2 -4,1l-4 -3c-1,-1 -2,-3 -1,-4l2 -4c1,-1 3,-2 4,-1zm-62 -13l22 0c2,0 3,1 3,3l0 4c0,2 -1,3 -3,3l-22 0c-2,0 -3,-1 -3,-3l0 -4c0,-2 1,-3 3,-3zm79 144c-3,4 -6,8 -10,11 -15,15 -36,24 -59,24 -23,0 -44,-9 -59,-24 -4,-4 -7,-7 -10,-11l12 0c1,2 3,3 4,5 13,13 32,21 52,21 20,0 39,-8 52,-21 2,-2 3,-3 4,-5l12 0z"/>
   <path class="fil1" d="M6 96l11 7c2,-1 4,-2 7,-2 2,-1 5,-1 8,-1 5,0 8,1 11,3 3,2 4,5 4,9 0,4 -1,7 -4,9 -3,2 -6,3 -10,3 -4,0 -7,-1 -11,-2 -3,-2 -6,-4 -10,-7l-11 13c4,4 9,7 14,9 5,2 11,3 18,3 5,0 9,-1 13,-2 4,-1 7,-3 10,-6 3,-3 5,-6 7,-9 2,-4 2,-8 2,-12 0,-5 -1,-9 -2,-12 -2,-3 -4,-6 -6,-8 -3,-2 -6,-4 -9,-5 -4,-1 -8,-2 -12,-2 -2,0 -4,0 -6,0 -2,0 -3,1 -5,1l1 -15 36 0 0 -16 -52 0 -2 42z"/>
   <path id="1" class="fil1" d="M149 97c0,-6 -1,-12 -3,-17 -2,-5 -4,-10 -8,-14 -3,-4 -7,-7 -12,-9 -5,-2 -10,-3 -16,-3 -6,0 -11,1 -16,3 -5,2 -9,5 -12,9 -3,4 -6,9 -8,14 -2,5 -3,11 -3,17 0,6 1,12 3,17 2,5 4,10 8,14 3,4 7,7 12,9 5,2 10,3 16,3 6,0 11,-1 16,-3 5,-2 9,-5 12,-9 3,-4 6,-9 8,-14 2,-5 3,-11 3,-17zm-19 0c0,4 0,7 -1,11 -1,3 -2,6 -4,9 -2,2 -4,4 -6,6 -2,1 -5,2 -8,2 -3,0 -5,-1 -8,-2 -2,-1 -4,-3 -6,-6 -2,-2 -3,-5 -4,-9 -1,-3 -1,-7 -1,-11 0,-4 0,-8 1,-11 1,-3 2,-6 4,-9 2,-2 4,-4 6,-6 2,-1 5,-2 8,-2 3,0 5,1 8,2 2,1 4,3 6,6 2,2 3,5 4,9 1,3 1,7 1,11z"/>
   <path id="2" class="fil1" d="M233 97c0,-6 -1,-12 -3,-17 -2,-5 -4,-10 -8,-14 -3,-4 -7,-7 -12,-9 -5,-2 -10,-3 -16,-3 -6,0 -11,1 -16,3 -5,2 -9,5 -12,9 -3,4 -6,9 -8,14 -2,5 -3,11 -3,17 0,6 1,12 3,17 2,5 4,10 8,14 3,4 7,7 12,9 5,2 10,3 16,3 6,0 11,-1 16,-3 5,-2 9,-5 12,-9 3,-4 6,-9 8,-14 2,-5 3,-11 3,-17zm-19 0c0,4 0,7 -1,11 -1,3 -2,6 -4,9 -2,2 -4,4 -6,6 -2,1 -5,2 -8,2 -3,0 -5,-1 -8,-2 -2,-1 -4,-3 -6,-6 -2,-2 -3,-5 -4,-9 -1,-3 -1,-7 -1,-11 0,-4 0,-8 1,-11 1,-3 2,-6 4,-9 2,-2 4,-4 6,-6 2,-1 5,-2 8,-2 3,0 5,1 8,2 2,1 4,3 6,6 2,2 3,5 4,9 1,3 1,7 1,11z"/>
  </g>
 </g>
</svg>
