<?xml version="1.0" encoding="UTF-8"?>
<!DOCTYPE svg PUBLIC "-//W3C//DTD SVG 1.1//EN" "http://www.w3.org/Graphics/SVG/1.1/DTD/svg11.dtd">
<!-- Creator: CorelDRAW 2017 -->
<svg xmlns="http://www.w3.org/2000/svg" xml:space="preserve" width="15.2059mm" height="20.8421mm" version="1.1" style="shape-rendering:geometricPrecision; text-rendering:geometricPrecision; image-rendering:optimizeQuality; fill-rule:evenodd; clip-rule:evenodd"
viewBox="0 0 61 83"
 xmlns:xlink="http://www.w3.org/1999/xlink">
 <defs>
  <style type="text/css">
   <![CDATA[
    .fil0 {fill:#2B914F;fill-rule:nonzero}
   ]]>
  </style>
 </defs>
 <g id="Layer_x0020_1">
  <metadata id="CorelCorpID_0Corel-Layer"/>
  <path class="fil0" d="M31 16c3,0 6,1 8,3 2,2 3,4 3,8 0,2 0,3 -1,5 -1,1 -1,3 -2,4 -1,2 -3,3 -4,5 -2,2 -4,4 -7,6l-27 22 0 14 61 0 0 -16 -36 0 13 -10c4,-3 7,-5 10,-8 3,-2 5,-5 7,-7 2,-2 3,-5 4,-8 1,-3 1,-6 1,-9 0,-4 -1,-7 -2,-10 -1,-3 -3,-6 -6,-8 -2,-2 -5,-4 -9,-5 -3,-1 -7,-2 -12,-2 -4,0 -7,0 -10,1 -3,1 -6,2 -8,3 -2,1 -5,3 -7,5 -2,2 -4,5 -6,7l13 10c3,-4 6,-7 8,-8 2,-2 5,-3 9,-3z"/>
 </g>
</svg>
