<?xml version="1.0" encoding="UTF-8"?>
<!DOCTYPE svg PUBLIC "-//W3C//DTD SVG 1.1//EN" "http://www.w3.org/Graphics/SVG/1.1/DTD/svg11.dtd">
<!-- Creator: CorelDRAW 2017 -->
<svg xmlns="http://www.w3.org/2000/svg" xml:space="preserve" width="34.4583mm" height="25.5541mm" version="1.1" style="shape-rendering:geometricPrecision; text-rendering:geometricPrecision; image-rendering:optimizeQuality; fill-rule:evenodd; clip-rule:evenodd"
viewBox="0 0 313 232"
 xmlns:xlink="http://www.w3.org/1999/xlink">
 <defs>
  <style type="text/css">
   <![CDATA[
    .fil1 {fill:#2B914F;fill-rule:nonzero}
    .fil0 {fill:#B3B3B3;fill-rule:nonzero}
   ]]>
  </style>
 </defs>
 <g id="Layer_x0020_1">
  <metadata id="CorelCorpID_0Corel-Layer"/>
  <g id="_2085361669024">
   <path class="fil0" d="M156 18c29,0 56,12 76,31 5,5 9,10 12,15l-15 0c-2,-2 -4,-4 -6,-6 -17,-17 -41,-28 -67,-28 -26,0 -50,11 -67,28 -2,2 -4,4 -6,6l-15 0c4,-5 8,-10 12,-15 19,-19 46,-31 76,-31zm65 -2l6 3c2,1 3,4 1,6l-3 5c-1,2 -4,3 -6,1l-6 -3c-2,-1 -3,-4 -1,-6l3 -5c1,-2 4,-3 6,-1zm-80 -17l28 0c2,0 4,2 4,4l0 6c0,2 -2,4 -4,4l-28 0c-2,0 -4,-2 -4,-4l0 -6c0,-2 2,-4 4,-4zm102 186c-4,5 -8,10 -12,15 -19,19 -46,31 -76,31 -30,0 -56,-12 -76,-31 -5,-5 -9,-10 -12,-15l15 0c2,2 4,4 6,6 17,17 41,28 67,28 26,0 50,-11 67,-28 2,-2 4,-4 6,-6l15 0z"/>
   <path class="fil1" d="M50 91l-26 26 4 15 10 0c7,0 12,1 16,4 4,2 6,6 6,11 0,4 -1,7 -4,10 -3,2 -7,4 -11,4 -6,0 -11,-1 -15,-3 -4,-2 -8,-6 -12,-10l-17 16c5,6 11,10 18,14 7,4 15,5 25,5 6,0 12,-1 17,-3 5,-2 9,-4 13,-8 3,-3 6,-7 8,-11 2,-4 3,-9 3,-14 0,-5 -1,-10 -3,-13 -2,-4 -4,-7 -7,-9 -3,-2 -6,-4 -10,-6 -4,-1 -7,-2 -11,-3l28 -27 0 -18 -75 0 0 21 43 0z"/>
   <path id="1" class="fil1" d="M198 125c0,-8 -1,-15 -3,-22 -2,-7 -6,-13 -10,-18 -4,-5 -9,-9 -15,-12 -6,-3 -13,-4 -20,-4 -7,0 -14,1 -20,4 -6,3 -11,7 -15,12 -4,5 -8,11 -10,18 -2,7 -4,14 -4,22 0,8 1,16 3,22 2,7 6,13 10,18 4,5 9,9 15,12 6,3 13,4 20,4 7,0 14,-1 20,-4 6,-3 11,-7 15,-12 4,-5 8,-11 10,-18 2,-7 4,-14 4,-22zm-25 0c0,5 -1,10 -2,14 -1,4 -3,8 -5,11 -2,3 -5,6 -8,7 -3,2 -6,3 -10,3 -4,0 -7,-1 -10,-3 -3,-2 -6,-4 -8,-7 -2,-3 -4,-7 -5,-11 -1,-4 -2,-9 -2,-14 0,-5 1,-10 2,-14 1,-4 3,-8 5,-11 2,-3 5,-6 8,-7 3,-2 6,-3 10,-3 4,0 7,1 10,3 3,2 6,4 8,7 2,3 4,7 5,11 1,4 2,9 2,14z"/>
   <path id="2" class="fil1" d="M313 125c0,-8 -1,-15 -3,-22 -2,-7 -6,-13 -10,-18 -4,-5 -9,-9 -15,-12 -6,-3 -13,-4 -20,-4 -7,0 -14,1 -20,4 -6,3 -11,7 -15,12 -4,5 -8,11 -10,18 -2,7 -4,14 -4,22 0,8 1,16 3,22 2,7 6,13 10,18 4,5 9,9 15,12 6,3 13,4 20,4 7,0 14,-1 20,-4 6,-3 11,-7 15,-12 4,-5 8,-11 10,-18 2,-7 4,-14 4,-22zm-25 0c0,5 -1,10 -2,14 -1,4 -3,8 -5,11 -2,3 -5,6 -8,7 -3,2 -6,3 -10,3 -4,0 -7,-1 -10,-3 -3,-2 -6,-4 -8,-7 -2,-3 -4,-7 -5,-11 -1,-4 -2,-9 -2,-14 0,-5 1,-10 2,-14 1,-4 3,-8 5,-11 2,-3 5,-6 8,-7 3,-2 6,-3 10,-3 4,0 7,1 10,3 3,2 6,4 8,7 2,3 4,7 5,11 1,4 2,9 2,14z"/>
  </g>
 </g>
</svg>
