<?xml version="1.0" encoding="UTF-8"?>
<!DOCTYPE svg PUBLIC "-//W3C//DTD SVG 1.1//EN" "http://www.w3.org/Graphics/SVG/1.1/DTD/svg11.dtd">
<!-- Creator: CorelDRAW 2017 -->
<svg xmlns="http://www.w3.org/2000/svg" xml:space="preserve" width="39.0403mm" height="25.5541mm" version="1.1" style="shape-rendering:geometricPrecision; text-rendering:geometricPrecision; image-rendering:optimizeQuality; fill-rule:evenodd; clip-rule:evenodd"
viewBox="0 0 401 263"
 xmlns:xlink="http://www.w3.org/1999/xlink">
 <defs>
  <style type="text/css">
   <![CDATA[
    .fil1 {fill:#2B914F;fill-rule:nonzero}
    .fil0 {fill:#B3B3B3;fill-rule:nonzero}
   ]]>
  </style>
 </defs>
 <g id="Layer_x0020_1">
  <metadata id="CorelCorpID_0Corel-Layer"/>
  <g id="_2085361672160">
   <path class="fil0" d="M201 21c33,0 64,14 86,35 5,5 15,18 19,25l-17 0c-2,-2 -9,-13 -12,-15 -19,-19 -46,-31 -76,-31 -30,0 -56,12 -76,31 -2,2 -2,1 -4,4l-17 0c4,-6 6,-8 11,-13 22,-22 52,-35 86,-35zm74 -2l6 4c2,1 3,4 2,6l-3 5c-1,2 -4,3 -6,2l-6 -4c-2,-1 -3,-4 -2,-6l3 -5c1,-2 4,-3 6,-2zm-90 -19l32 0c3,0 5,2 5,5l0 6c0,3 -2,5 -5,5l-32 0c-3,0 -5,-2 -5,-5l0 -6c0,-3 2,-5 5,-5zm120 202c-4,10 -13,20 -18,25 -22,22 -52,35 -86,35 -33,0 -64,-14 -86,-35 -5,-5 -8,-8 -12,-14l17 0c2,2 3,2 5,5 19,19 46,31 76,31 30,0 56,-12 76,-31 2,-2 9,-9 10,-15l17 0z"/>
   <polygon class="fil1" points="0,89 6,112 27,106 27,204 55,204 55,78 36,78 "/>
   <path id="1" class="fil1" d="M175 142c0,-9 -1,-17 -4,-25 -3,-8 -6,-15 -11,-20 -5,-6 -11,-10 -17,-14 -7,-3 -14,-5 -23,-5 -8,0 -16,2 -23,5 -7,3 -13,8 -18,14 -5,6 -9,13 -11,21 -3,8 -4,16 -4,25 0,9 1,18 4,25 3,8 6,15 11,20 5,6 11,10 17,14 7,3 14,5 23,5 8,0 16,-2 23,-5 7,-3 13,-8 18,-14 5,-6 9,-13 11,-20 3,-8 4,-16 4,-25zm-28 0c0,6 -1,11 -2,16 -1,5 -3,9 -5,13 -2,4 -5,6 -9,8 -3,2 -7,3 -11,3 -4,0 -8,-1 -11,-3 -3,-2 -6,-5 -9,-8 -2,-4 -4,-8 -6,-13 -1,-5 -2,-10 -2,-16 0,-6 1,-11 2,-16 1,-5 3,-9 5,-13 2,-4 5,-6 9,-8 3,-2 7,-3 11,-3 4,0 8,1 11,3 3,2 6,5 9,8 2,4 4,8 6,13 1,5 2,10 2,16z"/>
   <path id="2" class="fil1" d="M288 142c0,-9 -1,-17 -4,-25 -3,-8 -6,-15 -11,-20 -5,-6 -11,-10 -17,-14 -7,-3 -14,-5 -23,-5 -8,0 -16,2 -23,5 -7,3 -13,8 -18,14 -5,6 -9,13 -11,21 -3,8 -4,16 -4,25 0,9 1,18 4,25 3,8 6,15 11,20 5,6 11,10 17,14 7,3 14,5 23,5 8,0 16,-2 23,-5 7,-3 13,-8 18,-14 5,-6 9,-13 11,-20 3,-8 4,-16 4,-25zm-28 0c0,6 -1,11 -2,16 -1,5 -3,9 -5,13 -2,4 -5,6 -9,8 -3,2 -7,3 -11,3 -4,0 -8,-1 -11,-3 -3,-2 -6,-5 -9,-8 -2,-4 -4,-8 -6,-13 -1,-5 -2,-10 -2,-16 0,-6 1,-11 2,-16 1,-5 3,-9 5,-13 2,-4 5,-6 9,-8 3,-2 7,-3 11,-3 4,0 8,1 11,3 3,2 6,5 9,8 2,4 4,8 6,13 1,5 2,10 2,16z"/>
   <path id="3" class="fil1" d="M401 142c0,-9 -1,-17 -4,-25 -3,-8 -6,-15 -11,-20 -5,-6 -11,-10 -17,-14 -7,-3 -14,-5 -23,-5 -8,0 -16,2 -23,5 -7,3 -13,8 -18,14 -5,6 -9,13 -11,21 -3,8 -4,16 -4,25 0,9 1,18 4,25 3,8 6,15 11,20 5,6 11,10 17,14 7,3 14,5 23,5 8,0 16,-2 23,-5 7,-3 13,-8 18,-14 5,-6 9,-13 11,-20 3,-8 4,-16 4,-25zm-28 0c0,6 -1,11 -2,16 -1,5 -3,9 -5,13 -2,4 -5,6 -9,8 -3,2 -7,3 -11,3 -4,0 -8,-1 -11,-3 -3,-2 -6,-5 -9,-8 -2,-4 -4,-8 -6,-13 -1,-5 -2,-10 -2,-16 0,-6 1,-11 2,-16 1,-5 3,-9 5,-13 2,-4 5,-6 9,-8 3,-2 7,-3 11,-3 4,0 8,1 11,3 3,2 6,5 9,8 2,4 4,8 6,13 1,5 2,10 2,16z"/>
  </g>
 </g>
</svg>
