<?xml version="1.0" encoding="UTF-8"?>
<!DOCTYPE svg PUBLIC "-//W3C//DTD SVG 1.1//EN" "http://www.w3.org/Graphics/SVG/1.1/DTD/svg11.dtd">
<!-- Creator: CorelDRAW 2017 -->
<svg xmlns="http://www.w3.org/2000/svg" xml:space="preserve" width="49.8155mm" height="21.2531mm" version="1.1" style="shape-rendering:geometricPrecision; text-rendering:geometricPrecision; image-rendering:optimizeQuality; fill-rule:evenodd; clip-rule:evenodd"
viewBox="0 0 526 225"
 xmlns:xlink="http://www.w3.org/1999/xlink">
 <defs>
  <style type="text/css">
   <![CDATA[
    .fil0 {fill:#2B914F;fill-rule:nonzero}
   ]]>
  </style>
 </defs>
 <g id="Layer_x0020_1">
  <metadata id="CorelCorpID_0Corel-Layer"/>
  <polygon class="fil0" points="0,21 10,60 48,51 48,221 95,221 95,2 62,2 "/>
  <path id="1" class="fil0" d="M219 44c9,0 16,2 21,7 5,5 8,12 8,21 0,5 -1,9 -2,13 -1,4 -4,8 -7,12 -3,4 -7,8 -12,13 -5,4 -11,9 -17,15l-72 59 0 38 161 0 0 -41 -95 0 35 -27c10,-7 18,-14 25,-21 7,-6 13,-13 18,-19 5,-6 8,-13 11,-20 2,-7 4,-15 4,-24 0,-10 -2,-19 -5,-28 -3,-8 -8,-15 -15,-21 -7,-6 -14,-10 -24,-14 -9,-3 -20,-5 -31,-5 -10,0 -18,1 -26,3 -8,2 -15,5 -21,9 -6,4 -12,9 -18,14 -5,6 -11,12 -16,19l34 27c8,-10 15,-17 22,-22 7,-5 14,-7 22,-7z"/>
  <path id="2" class="fil0" d="M526 112c0,-16 -2,-30 -7,-44 -5,-14 -11,-26 -19,-36 -8,-10 -19,-18 -30,-24 -12,-6 -25,-9 -40,-9 -14,0 -28,3 -40,9 -12,6 -22,14 -31,24 -8,10 -15,22 -20,36 -5,14 -7,28 -7,44 0,16 2,31 7,44 5,14 11,25 19,36 8,10 19,18 30,24 12,6 25,9 40,9 14,0 28,-3 40,-9 12,-6 22,-14 31,-24 8,-10 15,-22 20,-36 5,-14 7,-28 7,-44zm-49 1c0,10 -1,19 -3,27 -2,8 -5,16 -9,22 -4,6 -9,11 -15,14 -6,3 -12,5 -20,5 -7,0 -14,-2 -20,-5 -6,-4 -11,-8 -15,-15 -4,-6 -7,-14 -10,-22 -2,-8 -3,-18 -3,-28 0,-10 1,-19 3,-28 2,-8 5,-16 9,-22 4,-6 9,-11 15,-14 6,-3 12,-5 20,-5 7,0 14,2 20,5 6,4 11,8 15,15 4,6 7,14 10,22 2,8 3,18 3,28z"/>
 </g>
</svg>
