<?xml version="1.0" encoding="UTF-8"?>
<!DOCTYPE svg PUBLIC "-//W3C//DTD SVG 1.1//EN" "http://www.w3.org/Graphics/SVG/1.1/DTD/svg11.dtd">
<!-- Creator: CorelDRAW 2017 -->
<svg xmlns="http://www.w3.org/2000/svg" xml:space="preserve" width="39.8352mm" height="25.5141mm" version="1.1" style="shape-rendering:geometricPrecision; text-rendering:geometricPrecision; image-rendering:optimizeQuality; fill-rule:evenodd; clip-rule:evenodd"
viewBox="0 0 202 129"
 xmlns:xlink="http://www.w3.org/1999/xlink">
 <defs>
  <style type="text/css">
   <![CDATA[
    .fil0 {fill:none}
    .fil1 {fill:#2B914F;fill-rule:nonzero}
    .fil2 {fill:#B3B3B3;fill-rule:nonzero}
   ]]>
  </style>
 </defs>
 <g id="Layer_x0020_1">
  <metadata id="CorelCorpID_0Corel-Layer"/>
  <g id="_2085407086576">
   <rect class="fil0" x="36" width="129" height="129"/>
   <path class="fil1" d="M41 32l-15 15 2 9 6 0c4,0 7,1 9,2 2,1 3,3 3,6 0,2 -1,4 -2,6 -2,1 -4,2 -6,2 -3,0 -6,-1 -8,-2 -2,-1 -5,-3 -7,-5l-9 9c3,3 6,6 10,8 4,2 9,3 14,3 3,0 6,0 9,-1 3,-1 5,-2 7,-4 2,-2 3,-4 4,-6 1,-2 2,-5 2,-8 0,-3 0,-5 -1,-7 -1,-2 -2,-4 -4,-5 -2,-1 -3,-2 -5,-3 -2,-1 -4,-1 -6,-2l16 -15 0 -10 -42 0 0 12 24 0z"/>
   <path id="1" class="fil1" d="M124 51c0,-4 -1,-9 -2,-12 -1,-4 -3,-7 -5,-10 -2,-3 -5,-5 -9,-7 -3,-2 -7,-2 -11,-2 -4,0 -8,1 -11,2 -3,2 -6,4 -9,7 -2,3 -4,6 -6,10 -1,4 -2,8 -2,13 0,5 1,9 2,13 1,4 3,7 5,10 2,3 5,5 9,7 3,2 7,2 11,2 4,0 8,-1 11,-2 3,-2 6,-4 9,-7 2,-3 4,-6 6,-10 1,-4 2,-8 2,-13zm-14 0c0,3 0,5 -1,8 -1,2 -2,4 -3,6 -1,2 -3,3 -4,4 -2,1 -3,1 -6,1 -2,0 -4,0 -6,-1 -2,-1 -3,-2 -4,-4 -1,-2 -2,-4 -3,-6 -1,-2 -1,-5 -1,-8 0,-3 0,-5 1,-8 1,-2 2,-4 3,-6 1,-2 3,-3 4,-4 2,-1 3,-1 6,-1 2,0 4,0 6,1 2,1 3,2 4,4 1,2 2,4 3,6 1,2 1,5 1,8z"/>
   <path id="2" class="fil1" d="M188 51c0,-4 -1,-9 -2,-12 -1,-4 -3,-7 -5,-10 -2,-3 -5,-5 -9,-7 -3,-2 -7,-2 -11,-2 -4,0 -8,1 -11,2 -3,2 -6,4 -9,7 -2,3 -4,6 -6,10 -1,4 -2,8 -2,13 0,5 1,9 2,13 1,4 3,7 5,10 2,3 5,5 9,7 3,2 7,2 11,2 4,0 8,-1 11,-2 3,-2 6,-4 9,-7 2,-3 4,-6 6,-10 1,-4 2,-8 2,-13zm-14 0c0,3 0,5 -1,8 -1,2 -2,4 -3,6 -1,2 -3,3 -4,4 -2,1 -3,1 -6,1 -2,0 -4,0 -6,-1 -2,-1 -3,-2 -4,-4 -1,-2 -2,-4 -3,-6 -1,-2 -1,-5 -1,-8 0,-3 0,-5 1,-8 1,-2 2,-4 3,-6 1,-2 3,-3 4,-4 2,-1 3,-1 6,-1 2,0 4,0 6,1 2,1 3,2 4,4 1,2 2,4 3,6 1,2 1,5 1,8z"/>
   <polygon class="fil2" points="202,84 202,112 0,112 0,84 10,84 10,102 192,102 192,84 "/>
  </g>
 </g>
</svg>
