<?xml version="1.0" encoding="UTF-8"?>
<!DOCTYPE svg PUBLIC "-//W3C//DTD SVG 1.1//EN" "http://www.w3.org/Graphics/SVG/1.1/DTD/svg11.dtd">
<!-- Creator: CorelDRAW 2017 -->
<svg xmlns="http://www.w3.org/2000/svg" xml:space="preserve" width="15.5288mm" height="20.9008mm" version="1.1" style="shape-rendering:geometricPrecision; text-rendering:geometricPrecision; image-rendering:optimizeQuality; fill-rule:evenodd; clip-rule:evenodd"
viewBox="0 0 449 604"
 xmlns:xlink="http://www.w3.org/1999/xlink">
 <defs>
  <style type="text/css">
   <![CDATA[
    .fil0 {fill:#2B914F;fill-rule:nonzero}
   ]]>
  </style>
 </defs>
 <g id="Layer_x0020_1">
  <metadata id="CorelCorpID_0Corel-Layer"/>
  <path class="fil0" d="M40 293l76 50c14,-6 30,-11 46,-16 17,-4 34,-6 53,-6 32,0 58,7 77,21 19,14 28,34 28,61 0,27 -9,48 -27,62 -18,14 -42,21 -73,21 -27,0 -51,-6 -74,-17 -23,-11 -45,-27 -68,-48l-79 94c29,28 61,49 97,65 36,16 78,24 126,24 34,0 65,-5 93,-14 28,-10 52,-23 72,-41 20,-18 35,-39 46,-65 11,-25 16,-54 16,-86 0,-34 -5,-63 -16,-87 -11,-24 -26,-44 -44,-59 -19,-15 -41,-27 -66,-34 -25,-7 -53,-11 -82,-11 -16,0 -31,1 -42,3 -12,2 -24,4 -36,7l7 -103 254 0 0 -115 -366 0 -17 293z"/>
 </g>
</svg>
