<?xml version="1.0" encoding="UTF-8"?>
<!DOCTYPE svg PUBLIC "-//W3C//DTD SVG 1.1//EN" "http://www.w3.org/Graphics/SVG/1.1/DTD/svg11.dtd">
<!-- Creator: CorelDRAW 2017 -->
<svg xmlns="http://www.w3.org/2000/svg" xml:space="preserve" width="36.958mm" height="21.2531mm" version="1.1" style="shape-rendering:geometricPrecision; text-rendering:geometricPrecision; image-rendering:optimizeQuality; fill-rule:evenodd; clip-rule:evenodd"
viewBox="0 0 174 100"
 xmlns:xlink="http://www.w3.org/1999/xlink">
 <defs>
  <style type="text/css">
   <![CDATA[
    .fil0 {fill:#2B914F;fill-rule:nonzero}
   ]]>
  </style>
 </defs>
 <g id="Layer_x0020_1">
  <metadata id="CorelCorpID_0Corel-Layer"/>
  <path class="fil0" d="M44 20l-23 23 3 13 9 0c6,0 11,1 14,3 3,2 5,5 5,9 0,4 -1,7 -4,9 -3,2 -6,3 -10,3 -5,0 -9,-1 -13,-3 -4,-2 -7,-5 -10,-9l-15 14c4,5 9,9 15,12 6,3 14,5 22,5 5,0 10,-1 15,-2 4,-2 8,-4 11,-7 3,-3 5,-6 7,-10 2,-4 2,-8 2,-13 0,-5 -1,-8 -2,-12 -1,-3 -3,-6 -6,-8 -2,-2 -5,-4 -8,-5 -3,-1 -6,-2 -10,-3l25 -23 0 -16 -65 0 0 18 38 0z"/>
  <path id="1" class="fil0" d="M174 50c0,-7 -1,-14 -3,-20 -2,-6 -5,-11 -9,-16 -4,-5 -8,-8 -14,-11 -5,-3 -11,-4 -18,-4 -6,0 -12,1 -18,4 -5,3 -10,6 -14,11 -4,5 -7,10 -9,16 -2,6 -3,13 -3,20 0,7 1,14 3,20 2,6 5,11 9,16 4,5 8,8 14,11 5,3 11,4 18,4 6,0 12,-1 18,-4 5,-3 10,-6 14,-11 4,-5 7,-10 9,-16 2,-6 3,-13 3,-20zm-22 0c0,4 0,8 -1,12 -1,4 -2,7 -4,10 -2,3 -4,5 -7,6 -3,2 -5,2 -9,2 -3,0 -6,-1 -9,-2 -3,-2 -5,-4 -7,-6 -2,-3 -3,-6 -4,-10 -1,-4 -2,-8 -2,-12 0,-4 0,-9 1,-12 1,-4 2,-7 4,-10 2,-3 4,-5 7,-6 3,-2 5,-2 9,-2 3,0 6,1 9,2 3,2 5,4 7,6 2,3 3,6 4,10 1,4 2,8 2,12z"/>
 </g>
</svg>
