<?xml version="1.0" encoding="UTF-8"?>
<!DOCTYPE svg PUBLIC "-//W3C//DTD SVG 1.1//EN" "http://www.w3.org/Graphics/SVG/1.1/DTD/svg11.dtd">
<!-- Creator: CorelDRAW 2017 -->
<svg xmlns="http://www.w3.org/2000/svg" xml:space="preserve" width="64.9546mm" height="7.9292mm" version="1.1" style="shape-rendering:geometricPrecision; text-rendering:geometricPrecision; image-rendering:optimizeQuality; fill-rule:evenodd; clip-rule:evenodd"
viewBox="0 0 4892 597"
 xmlns:xlink="http://www.w3.org/1999/xlink">
 <defs>
  <style type="text/css">
   <![CDATA[
    .fil1 {fill:#2B914F}
    .fil0 {fill:#35C166}
    .fil2 {fill:#98E9B3}
    .fil3 {fill:white;fill-rule:nonzero}
   ]]>
  </style>
 </defs>
 <g id="Layer_x0020_1">
  <metadata id="CorelCorpID_0Corel-Layer"/>
  <g id="_2682781421776">
   <g>
    <path class="fil0" d="M4624 0l-4356 0c-147,0 -268,121 -268,268l0 61c0,147 121,268 268,268l4356 0c148,0 268,-121 268,-268l0 -61c0,-147 -121,-268 -268,-268z"/>
    <path class="fil1" d="M4624 0l-4356 0c-140,0 -256,109 -267,247 11,138 127,247 267,247l4356 0c140,0 256,-109 267,-247 -11,-138 -127,-247 -267,-247z"/>
    <path class="fil2" d="M1 241c0,2 0,4 -1,6 11,138 127,247 267,247l2391 0 -2391 -22c-138,-1 -253,-101 -267,-230z"/>
    <path class="fil2" d="M4891 241c0,2 0,4 1,6 -11,138 -127,247 -267,247l-2391 0 2391 -22c138,-1 253,-101 267,-230z"/>
   </g>
   <path class="fil3" d="M1757 259l0 28 -18 0 0 -80 28 0c20,0 30,9 30,26 0,8 -3,15 -9,20 -6,5 -14,7 -23,7l-9 0zm0 -39l0 25 7 0c10,0 14,-4 14,-13 0,-8 -5,-12 -14,-12l-7 0zm120 66l-21 0 -12 -21c-1,-2 -2,-3 -3,-4 -1,-1 -2,-2 -3,-3 -1,-1 -2,-2 -3,-2 -1,0 -2,-1 -3,-1l-5 0 0 31 -18 0 0 -80 29 0c19,0 29,7 29,22 0,3 0,5 -1,8 -1,2 -2,5 -4,6 -2,2 -3,4 -6,5 -2,1 -5,2 -7,3l0 0c1,0 2,1 3,2 1,1 2,2 3,3 1,1 2,2 3,4 1,1 2,3 3,4l15 24zm-49 -67l0 22 8 0c4,0 7,-1 9,-3 2,-2 4,-5 4,-8 0,-7 -4,-11 -13,-11l-8 0zm105 67l-48 0 0 -80 46 0 0 15 -28 0 0 18 26 0 0 15 -26 0 0 18 30 0 0 15zm9 -3l0 -18c3,3 7,5 11,6 4,1 8,2 12,2 2,0 4,0 6,-1 2,0 3,-1 4,-2 1,-1 2,-2 3,-3 1,-1 1,-2 1,-3 0,-2 0,-3 -1,-4 -1,-1 -2,-2 -4,-3 -2,-1 -3,-2 -6,-3 -2,-1 -4,-2 -7,-3 -6,-3 -11,-6 -14,-10 -3,-4 -5,-8 -5,-14 0,-4 1,-8 3,-11 2,-3 4,-5 7,-7 3,-2 6,-3 10,-4 4,-1 8,-1 12,-1 4,0 8,0 11,1 3,0 6,1 9,2l0 17c-1,-1 -3,-2 -4,-2 -2,-1 -3,-1 -5,-2 -2,0 -3,-1 -5,-1 -2,0 -3,0 -5,0 -2,0 -4,0 -6,1 -2,0 -3,1 -4,2 -1,1 -2,2 -3,3 -1,1 -1,2 -1,3 0,1 0,3 1,4 1,1 2,2 3,3 1,1 3,2 5,3 2,1 4,2 6,3 3,1 6,3 9,4 3,2 5,3 7,5 2,2 3,4 4,7 1,2 1,5 1,9 0,4 -1,8 -3,11 -2,3 -4,6 -7,7 -3,2 -6,3 -10,4 -4,1 -8,1 -12,1 -4,0 -9,0 -13,-1 -4,-1 -7,-2 -10,-3zm64 0l0 -18c3,3 7,5 11,6 4,1 8,2 12,2 2,0 4,0 6,-1 2,0 3,-1 4,-2 1,-1 2,-2 3,-3 1,-1 1,-2 1,-3 0,-2 0,-3 -1,-4 -1,-1 -2,-2 -4,-3 -2,-1 -3,-2 -6,-3 -2,-1 -4,-2 -7,-3 -6,-3 -11,-6 -14,-10 -3,-4 -5,-8 -5,-14 0,-4 1,-8 3,-11 2,-3 4,-5 7,-7 3,-2 6,-3 10,-4 4,-1 8,-1 12,-1 4,0 8,0 11,1 3,0 6,1 9,2l0 17c-1,-1 -3,-2 -4,-2 -2,-1 -3,-1 -5,-2 -2,0 -3,-1 -5,-1 -2,0 -3,0 -5,0 -2,0 -4,0 -6,1 -2,0 -3,1 -4,2 -1,1 -2,2 -3,3 -1,1 -1,2 -1,3 0,1 0,3 1,4 1,1 2,2 3,3 1,1 3,2 5,3 2,1 4,2 6,3 3,1 6,3 9,4 3,2 5,3 7,5 2,2 3,4 4,7 1,2 1,5 1,9 0,4 -1,8 -3,11 -2,3 -4,6 -7,7 -3,2 -6,3 -10,4 -4,1 -8,1 -12,1 -4,0 -9,0 -13,-1 -4,-1 -7,-2 -10,-3zm96 0l0 -18c3,3 7,5 11,6 4,1 8,2 12,2 2,0 4,0 6,-1 2,0 3,-1 4,-2 1,-1 2,-2 3,-3 1,-1 1,-2 1,-3 0,-2 0,-3 -1,-4 -1,-1 -2,-2 -4,-3 -2,-1 -3,-2 -6,-3 -2,-1 -4,-2 -7,-3 -6,-3 -11,-6 -14,-10 -3,-4 -5,-8 -5,-14 0,-4 1,-8 3,-11 2,-3 4,-5 7,-7 3,-2 6,-3 10,-4 4,-1 8,-1 12,-1 4,0 8,0 11,1 3,0 6,1 9,2l0 17c-1,-1 -3,-2 -4,-2 -2,-1 -3,-1 -5,-2 -2,0 -3,-1 -5,-1 -2,0 -3,0 -5,0 -2,0 -4,0 -6,1 -2,0 -3,1 -4,2 -1,1 -2,2 -3,3 -1,1 -1,2 -1,3 0,1 0,3 1,4 1,1 2,2 3,3 1,1 3,2 5,3 2,1 4,2 6,3 3,1 6,3 9,4 3,2 5,3 7,5 2,2 3,4 4,7 1,2 1,5 1,9 0,4 -1,8 -3,11 -2,3 -4,6 -7,7 -3,2 -6,3 -10,4 -4,1 -8,1 -12,1 -4,0 -9,0 -13,-1 -4,-1 -7,-2 -10,-3zm86 -25l0 28 -18 0 0 -80 28 0c20,0 30,9 30,26 0,8 -3,15 -9,20 -6,5 -14,7 -23,7l-9 0zm0 -39l0 25 7 0c10,0 14,-4 14,-13 0,-8 -5,-12 -14,-12l-7 0zm116 66l-20 0 -6 -18 -29 0 -6 18 -20 0 29 -80 21 0 29 80zm-30 -32l-9 -27c-1,-2 -1,-4 -1,-7l0 0c0,2 -1,5 -1,7l-9 27 21 0zm95 29c-6,3 -14,4 -23,4 -12,0 -22,-4 -29,-11 -7,-7 -11,-17 -11,-29 0,-13 4,-23 12,-31 8,-8 18,-12 31,-12 8,0 14,1 20,3l0 17c-5,-3 -11,-5 -18,-5 -8,0 -14,2 -18,7 -5,5 -7,11 -7,19 0,8 2,14 7,19 4,5 10,7 18,7 7,0 14,-2 19,-5l0 17zm62 3l-48 0 0 -80 46 0 0 15 -28 0 0 18 26 0 0 15 -26 0 0 18 30 0 0 15zm13 0l0 -80 29 0c9,0 16,2 21,5 5,3 7,8 7,14 0,4 -1,8 -4,11 -3,3 -7,6 -11,7l0 0c6,1 10,3 14,6 3,4 5,8 5,13 0,7 -3,13 -8,18 -5,4 -12,6 -22,6l-31 0zm18 -67l0 19 8 0c4,0 7,-1 9,-3 2,-2 3,-4 3,-7 0,-6 -4,-9 -13,-9l-7 0zm0 32l0 21 10 0c4,0 7,-1 10,-3 2,-2 4,-5 4,-8 0,-3 -1,-6 -3,-8 -2,-2 -6,-3 -10,-3l-10 0zm126 35l-20 0 -6 -18 -29 0 -6 18 -20 0 29 -80 21 0 29 80zm-30 -32l-9 -27c-1,-2 -1,-4 -1,-7l0 0c0,2 -1,5 -1,7l-9 27 21 0zm107 32l-21 0 -12 -21c-1,-2 -2,-3 -3,-4 -1,-1 -2,-2 -3,-3 -1,-1 -2,-2 -3,-2 -1,0 -2,-1 -3,-1l-5 0 0 31 -18 0 0 -80 29 0c19,0 29,7 29,22 0,3 0,5 -1,8 -1,2 -2,5 -4,6 -2,2 -3,4 -6,5 -2,1 -5,2 -7,3l0 0c1,0 2,1 3,2 1,1 2,2 3,3 1,1 2,2 3,4 1,1 2,3 3,4l15 24zm-49 -67l0 22 8 0c4,0 7,-1 9,-3 2,-2 4,-5 4,-8 0,-7 -4,-11 -13,-11l-8 0zm88 67l0 -80 29 0c9,0 16,2 21,5 5,3 7,8 7,14 0,4 -1,8 -4,11 -3,3 -7,6 -11,7l0 0c6,1 10,3 14,6 3,4 5,8 5,13 0,7 -3,13 -8,18 -5,4 -12,6 -22,6l-31 0zm18 -67l0 19 8 0c4,0 7,-1 9,-3 2,-2 3,-4 3,-7 0,-6 -4,-9 -13,-9l-7 0zm0 32l0 21 10 0c4,0 7,-1 10,-3 2,-2 4,-5 4,-8 0,-3 -1,-6 -3,-8 -2,-2 -6,-3 -10,-3l-10 0zm121 0c0,24 -11,36 -34,36 -22,0 -33,-12 -33,-35l0 -46 18 0 0 47c0,13 5,19 15,19 10,0 15,-6 15,-19l0 -47 18 0 0 46zm74 -31l-23 0 0 66 -18 0 0 -66 -23 0 0 -15 64 0 0 15zm70 0l-23 0 0 66 -18 0 0 -66 -23 0 0 -15 64 0 0 15zm40 67c-12,0 -21,-4 -28,-11 -7,-7 -11,-17 -11,-29 0,-13 4,-23 11,-31 7,-8 17,-12 29,-12 11,0 21,4 28,11 7,8 11,17 11,30 0,13 -4,23 -11,31 -7,8 -17,12 -29,12zm1 -67c-6,0 -11,2 -15,7 -4,5 -6,11 -6,19 0,8 2,14 6,19 4,5 9,7 15,7 6,0 11,-2 15,-7 4,-5 5,-11 5,-19 0,-8 -2,-15 -5,-19 -4,-5 -8,-7 -15,-7zm125 66l-18 0 -33 -50c-2,-3 -3,-5 -4,-7l0 0c0,3 0,7 0,13l0 44 -17 0 0 -80 19 0 32 49c1,2 3,4 4,7l0 0c0,-2 0,-6 0,-11l0 -44 17 0 0 80z"/>
  </g>
 </g>
</svg>
