<?xml version="1.0" encoding="UTF-8"?>
<!DOCTYPE svg PUBLIC "-//W3C//DTD SVG 1.1//EN" "http://www.w3.org/Graphics/SVG/1.1/DTD/svg11.dtd">
<!-- Creator: CorelDRAW 2017 -->
<svg xmlns="http://www.w3.org/2000/svg" xml:space="preserve" width="52.9565mm" height="21.2531mm" version="1.1" style="shape-rendering:geometricPrecision; text-rendering:geometricPrecision; image-rendering:optimizeQuality; fill-rule:evenodd; clip-rule:evenodd"
viewBox="0 0 5220 2095"
 xmlns:xlink="http://www.w3.org/1999/xlink">
 <defs>
  <style type="text/css">
   <![CDATA[
    .fil0 {fill:#2B914F;fill-rule:nonzero}
   ]]>
  </style>
 </defs>
 <g id="Layer_x0020_1">
  <metadata id="CorelCorpID_0Corel-Layer"/>
  <polygon class="fil0" points="0,194 93,559 446,472 446,2060 885,2060 885,20 582,20 "/>
  <path id="1" class="fil0" d="M3108 1045c0,-147 -21,-284 -64,-411 -42,-127 -103,-238 -181,-333 -78,-95 -173,-168 -284,-221 -111,-53 -234,-80 -369,-80 -135,0 -258,27 -369,81 -111,54 -206,128 -285,223 -79,95 -140,206 -184,334 -43,128 -65,266 -65,412 0,149 21,286 64,412 42,126 103,237 181,331 78,95 173,168 284,221 111,53 234,80 369,80 135,0 258,-27 369,-81 111,-54 206,-128 285,-223 79,-95 140,-205 184,-333 43,-127 65,-265 65,-414zm-457 6c0,93 -10,178 -30,256 -20,78 -50,146 -88,204 -39,58 -85,103 -139,135 -54,32 -115,48 -182,48 -68,0 -129,-16 -184,-49 -55,-33 -102,-78 -140,-136 -39,-58 -68,-126 -90,-205 -21,-79 -32,-165 -32,-258 0,-93 10,-178 30,-258 20,-79 50,-147 88,-204 39,-57 85,-101 139,-133 54,-32 115,-48 182,-48 68,0 129,16 184,49 55,33 102,78 140,136 39,58 68,126 90,205 21,79 32,165 32,258z"/>
  <path id="2" class="fil0" d="M5220 1045c0,-147 -21,-284 -64,-411 -42,-127 -103,-238 -181,-333 -78,-95 -173,-168 -284,-221 -111,-53 -234,-80 -369,-80 -135,0 -258,27 -369,81 -111,54 -206,128 -285,223 -79,95 -140,206 -184,334 -43,128 -65,266 -65,412 0,149 21,286 64,412 42,126 103,237 181,331 78,95 173,168 284,221 111,53 234,80 369,80 135,0 258,-27 369,-81 111,-54 206,-128 285,-223 79,-95 140,-205 184,-333 43,-127 65,-265 65,-414zm-457 6c0,93 -10,178 -30,256 -20,78 -50,146 -88,204 -39,58 -85,103 -139,135 -54,32 -115,48 -182,48 -68,0 -129,-16 -184,-49 -55,-33 -102,-78 -140,-136 -39,-58 -68,-126 -90,-205 -21,-79 -32,-165 -32,-258 0,-93 10,-178 30,-258 20,-79 50,-147 88,-204 39,-57 85,-101 139,-133 54,-32 115,-48 182,-48 68,0 129,16 184,49 55,33 102,78 140,136 39,58 68,126 90,205 21,79 32,165 32,258z"/>
 </g>
</svg>
