<?xml version="1.0" encoding="UTF-8"?>
<!DOCTYPE svg PUBLIC "-//W3C//DTD SVG 1.1//EN" "http://www.w3.org/Graphics/SVG/1.1/DTD/svg11.dtd">
<!-- Creator: CorelDRAW 2017 -->
<svg xmlns="http://www.w3.org/2000/svg" xml:space="preserve" width="37.6918mm" height="21.2531mm" version="1.1" style="shape-rendering:geometricPrecision; text-rendering:geometricPrecision; image-rendering:optimizeQuality; fill-rule:evenodd; clip-rule:evenodd"
viewBox="0 0 374 211"
 xmlns:xlink="http://www.w3.org/1999/xlink">
 <defs>
  <style type="text/css">
   <![CDATA[
    .fil0 {fill:#2B914F;fill-rule:nonzero}
   ]]>
  </style>
 </defs>
 <g id="Layer_x0020_1">
  <metadata id="CorelCorpID_0Corel-Layer"/>
  <path class="fil0" d="M153 22c-4,-3 -9,-7 -14,-9 -5,-3 -10,-5 -15,-7 -5,-2 -10,-3 -16,-4 -6,-1 -12,-1 -19,-1 -15,0 -28,3 -40,9 -11,6 -21,14 -28,24 -7,10 -13,22 -16,35 -4,14 -5,28 -5,44 0,20 2,37 7,49 4,12 10,22 18,29 7,7 15,13 25,16 9,4 21,6 34,6 11,0 21,-2 31,-5 10,-3 18,-8 25,-15 7,-6 12,-14 16,-22 4,-9 6,-18 6,-29 0,-11 -2,-20 -6,-28 -4,-8 -9,-15 -15,-20 -6,-5 -14,-10 -23,-12 -9,-3 -18,-4 -28,-4 -10,0 -18,1 -25,4 -7,3 -12,6 -17,9 1,-7 2,-13 4,-19 2,-6 5,-11 8,-15 3,-4 7,-8 12,-10 5,-2 10,-4 17,-4 4,0 8,0 12,1 4,1 7,2 10,3 3,1 7,3 10,5 3,2 6,4 10,7l24 -35zm-37 120c0,9 -3,16 -9,22 -6,6 -15,8 -26,8 -11,0 -20,-3 -26,-9 -6,-6 -10,-13 -10,-22 0,-9 3,-16 9,-21 6,-6 15,-8 26,-8 11,0 20,3 26,8 6,6 10,13 10,22z"/>
  <path id="1" class="fil0" d="M374 105c0,-15 -2,-29 -6,-41 -4,-13 -10,-24 -18,-34 -8,-10 -17,-17 -29,-22 -11,-5 -24,-8 -37,-8 -14,0 -26,3 -37,8 -11,5 -21,13 -29,22 -8,10 -14,21 -19,34 -4,13 -7,27 -7,42 0,15 2,29 6,42 4,13 10,24 18,33 8,10 17,17 29,22 11,5 24,8 37,8 14,0 26,-3 37,-8 11,-5 21,-13 29,-22 8,-10 14,-21 19,-34 4,-13 7,-27 7,-42zm-46 1c0,9 -1,18 -3,26 -2,8 -5,15 -9,21 -4,6 -9,10 -14,14 -5,3 -12,5 -18,5 -7,0 -13,-2 -19,-5 -6,-3 -10,-8 -14,-14 -4,-6 -7,-13 -9,-21 -2,-8 -3,-17 -3,-26 0,-9 1,-18 3,-26 2,-8 5,-15 9,-21 4,-6 9,-10 14,-13 5,-3 12,-5 18,-5 7,0 13,2 19,5 6,3 10,8 14,14 4,6 7,13 9,21 2,8 3,17 3,26z"/>
 </g>
</svg>
