<?xml version="1.0" encoding="UTF-8"?>
<!DOCTYPE svg PUBLIC "-//W3C//DTD SVG 1.1//EN" "http://www.w3.org/Graphics/SVG/1.1/DTD/svg11.dtd">
<!-- Creator: CorelDRAW 2017 -->
<svg xmlns="http://www.w3.org/2000/svg" xml:space="preserve" width="42.3334mm" height="42.3333mm" version="1.1" style="shape-rendering:geometricPrecision; text-rendering:geometricPrecision; image-rendering:optimizeQuality; fill-rule:evenodd; clip-rule:evenodd"
viewBox="0 0 908 908"
 xmlns:xlink="http://www.w3.org/1999/xlink">
 <defs>
  <style type="text/css">
   <![CDATA[
    .fil1 {fill:none}
    .fil0 {fill:white;fill-rule:nonzero}
   ]]>
  </style>
 </defs>
 <g id="Layer_x0020_1">
  <metadata id="CorelCorpID_0Corel-Layer"/>
  <g id="_2049074884896">
   <polygon class="fil0" points="652,550 652,639 256,639 256,550 293,550 293,601 614,601 614,550 "/>
   <path class="fil0" d="M148 466l630 0 0 239 -649 0 0 -239 19 0zm592 38l-573 0 0 163 573 0 0 -163z"/>
   <path class="fil0" d="M454 231c39,0 74,16 100,41 26,26 42,61 42,100 0,29 -9,56 -24,78l-50 0 5 -5c19,-19 30,-45 30,-73 0,-29 -12,-55 -30,-73 -19,-19 -45,-30 -73,-30 -29,0 -55,12 -73,30 -19,19 -30,45 -30,73 0,29 12,55 30,73l5 5 -50 0c-15,-23 -24,-49 -24,-78 0,-39 16,-75 41,-100 26,-26 61,-41 100,-41z"/>
   <polygon class="fil0" points="442,295 442,362 504,380 493,416 404,390 404,295 "/>
   <rect class="fil0" x="425" y="203" width="58" height="21" rx="7" ry="7"/>
   <rect class="fil1" width="908" height="908"/>
  </g>
 </g>
</svg>
