<?xml version="1.0" encoding="UTF-8"?>
<!DOCTYPE svg PUBLIC "-//W3C//DTD SVG 1.1//EN" "http://www.w3.org/Graphics/SVG/1.1/DTD/svg11.dtd">
<!-- Creator: CorelDRAW 2017 -->
<svg xmlns="http://www.w3.org/2000/svg" xml:space="preserve" width="38.2927mm" height="25.5141mm" version="1.1" style="shape-rendering:geometricPrecision; text-rendering:geometricPrecision; image-rendering:optimizeQuality; fill-rule:evenodd; clip-rule:evenodd"
viewBox="0 0 2730 1819"
 xmlns:xlink="http://www.w3.org/1999/xlink">
 <defs>
  <style type="text/css">
   <![CDATA[
    .fil0 {fill:none}
    .fil1 {fill:#2B914F;fill-rule:nonzero}
    .fil2 {fill:#B3B3B3;fill-rule:nonzero}
   ]]>
  </style>
 </defs>
 <g id="Layer_x0020_1">
  <metadata id="CorelCorpID_0Corel-Layer"/>
  <g id="_2085337074416">
   <rect class="fil0" x="455" width="1819" height="1819"/>
   <path class="fil1" d="M242 714l110 73c21,-9 43,-17 67,-23 24,-6 50,-9 77,-9 47,0 84,10 112,31 28,21 41,50 41,88 0,40 -13,70 -39,91 -26,21 -61,31 -106,31 -39,0 -75,-8 -107,-25 -33,-16 -66,-40 -99,-69l-115 137c42,40 89,72 141,94 52,23 113,34 183,34 49,0 94,-7 135,-21 41,-14 76,-34 104,-60 29,-26 51,-57 66,-94 16,-37 24,-79 24,-125 0,-49 -8,-92 -24,-127 -16,-35 -37,-64 -65,-86 -27,-22 -59,-39 -96,-49 -37,-11 -77,-16 -119,-16 -24,0 -44,1 -62,4 -17,3 -35,6 -52,10l10 -149 369 0 0 -167 -532 0 -25 426z"/>
   <path id="1" class="fil1" d="M1694 719c0,-63 -9,-121 -27,-175 -18,-54 -44,-102 -77,-142 -33,-40 -74,-72 -121,-94 -47,-23 -100,-34 -157,-34 -58,0 -110,12 -157,35 -47,23 -88,55 -122,95 -34,40 -60,88 -78,143 -19,55 -28,113 -28,176 0,63 9,122 27,176 18,54 44,101 77,141 33,40 74,72 121,94 47,23 100,34 157,34 58,0 110,-12 157,-35 47,-23 88,-55 122,-95 34,-40 60,-88 78,-142 19,-54 28,-113 28,-177zm-195 2c0,40 -4,76 -13,109 -9,33 -21,62 -38,87 -16,25 -36,44 -59,57 -23,14 -49,20 -78,20 -29,0 -55,-7 -78,-21 -23,-14 -43,-33 -60,-58 -16,-25 -29,-54 -38,-88 -9,-34 -14,-70 -14,-110 0,-40 4,-76 13,-110 9,-34 21,-63 38,-87 16,-24 36,-43 59,-57 23,-14 49,-20 78,-20 29,0 55,7 78,21 23,14 43,33 60,58 16,25 29,54 38,88 9,34 14,70 14,110z"/>
   <path id="2" class="fil1" d="M2546 719c0,-63 -9,-121 -27,-175 -18,-54 -44,-102 -77,-142 -33,-40 -74,-72 -121,-94 -47,-23 -100,-34 -157,-34 -58,0 -110,12 -157,35 -47,23 -88,55 -122,95 -34,40 -60,88 -78,143 -19,55 -28,113 -28,176 0,63 9,122 27,176 18,54 44,101 77,141 33,40 74,72 121,94 47,23 100,34 157,34 58,0 110,-12 157,-35 47,-23 88,-55 122,-95 34,-40 60,-88 78,-142 19,-54 28,-113 28,-177zm-195 2c0,40 -4,76 -13,109 -9,33 -21,62 -38,87 -16,25 -36,44 -59,57 -23,14 -49,20 -78,20 -29,0 -55,-7 -78,-21 -23,-14 -43,-33 -60,-58 -16,-25 -29,-54 -38,-88 -9,-34 -14,-70 -14,-110 0,-40 4,-76 13,-110 9,-34 21,-63 38,-87 16,-24 36,-43 59,-57 23,-14 49,-20 78,-20 29,0 55,7 78,21 23,14 43,33 60,58 16,25 29,54 38,88 9,34 14,70 14,110z"/>
   <polygon class="fil2" points="2730,1187 2730,1574 0,1574 0,1187 148,1187 148,1438 2581,1438 2581,1187 "/>
  </g>
 </g>
</svg>
