<?xml version="1.0" encoding="UTF-8"?>
<!DOCTYPE svg PUBLIC "-//W3C//DTD SVG 1.1//EN" "http://www.w3.org/Graphics/SVG/1.1/DTD/svg11.dtd">
<!-- Creator: CorelDRAW 2017 -->
<svg xmlns="http://www.w3.org/2000/svg" xml:space="preserve" width="39.8353mm" height="25.5141mm" version="1.1" style="shape-rendering:geometricPrecision; text-rendering:geometricPrecision; image-rendering:optimizeQuality; fill-rule:evenodd; clip-rule:evenodd"
viewBox="0 0 2954 1892"
 xmlns:xlink="http://www.w3.org/1999/xlink">
 <defs>
  <style type="text/css">
   <![CDATA[
    .fil0 {fill:none}
    .fil1 {fill:#2B914F;fill-rule:nonzero}
    .fil2 {fill:#B3B3B3;fill-rule:nonzero}
   ]]>
  </style>
 </defs>
 <g id="Layer_x0020_1">
  <metadata id="CorelCorpID_0Corel-Layer"/>
  <g id="_2085427759456">
   <rect class="fil0" x="531" width="1892" height="1892"/>
   <path class="fil1" d="M539 465c36,0 65,10 87,30 22,20 33,49 33,87 0,19 -3,36 -8,52 -6,16 -15,32 -27,49 -12,17 -28,34 -48,53 -20,18 -44,39 -72,62l-299 245 0 157 665 0 0 -171 -392 0 146 -113c39,-31 74,-59 104,-85 30,-26 55,-52 74,-79 19,-27 34,-55 44,-84 10,-30 15,-63 15,-101 0,-42 -7,-80 -21,-114 -14,-34 -35,-64 -62,-88 -27,-24 -60,-43 -98,-57 -38,-13 -81,-20 -129,-20 -40,0 -76,4 -108,12 -32,8 -61,20 -87,36 -26,16 -51,36 -73,59 -23,23 -45,50 -67,80l139 112c33,-41 64,-72 91,-91 27,-20 58,-30 93,-30z"/>
   <path id="1" class="fil1" d="M1811 748c0,-65 -9,-126 -28,-182 -19,-57 -46,-106 -80,-148 -35,-42 -77,-75 -126,-98 -49,-24 -104,-35 -164,-35 -60,0 -115,12 -164,36 -49,24 -91,57 -127,99 -35,42 -62,91 -82,148 -19,57 -29,118 -29,183 0,66 9,127 28,183 19,56 46,105 80,147 35,42 77,75 126,98 49,24 104,35 164,35 60,0 115,-12 164,-36 49,-24 91,-57 127,-99 35,-42 62,-91 82,-148 19,-57 29,-118 29,-184zm-203 3c0,41 -4,79 -13,114 -9,35 -22,65 -39,91 -17,26 -38,46 -62,60 -24,14 -51,21 -81,21 -30,0 -57,-7 -82,-22 -24,-15 -45,-35 -62,-60 -17,-26 -30,-56 -40,-91 -9,-35 -14,-73 -14,-114 0,-41 4,-79 13,-114 9,-35 22,-65 39,-91 17,-25 38,-45 62,-59 24,-14 51,-21 81,-21 30,0 57,7 82,22 24,15 45,35 62,60 17,26 30,56 40,91 9,35 14,73 14,114z"/>
   <path id="2" class="fil1" d="M2749 748c0,-65 -9,-126 -28,-182 -19,-57 -46,-106 -80,-148 -35,-42 -77,-75 -126,-98 -49,-24 -104,-35 -164,-35 -60,0 -115,12 -164,36 -49,24 -91,57 -127,99 -35,42 -62,91 -82,148 -19,57 -29,118 -29,183 0,66 9,127 28,183 19,56 46,105 80,147 35,42 77,75 126,98 49,24 104,35 164,35 60,0 115,-12 164,-36 49,-24 91,-57 127,-99 35,-42 62,-91 82,-148 19,-57 29,-118 29,-184zm-203 3c0,41 -4,79 -13,114 -9,35 -22,65 -39,91 -17,26 -38,46 -62,60 -24,14 -51,21 -81,21 -30,0 -57,-7 -82,-22 -24,-15 -45,-35 -62,-60 -17,-26 -30,-56 -40,-91 -9,-35 -14,-73 -14,-114 0,-41 4,-79 13,-114 9,-35 22,-65 39,-91 17,-25 38,-45 62,-59 24,-14 51,-21 81,-21 30,0 57,7 82,22 24,15 45,35 62,60 17,26 30,56 40,91 9,35 14,73 14,114z"/>
   <polygon class="fil2" points="2954,1235 2954,1637 0,1637 0,1235 139,1235 139,1496 2815,1496 2815,1235 "/>
  </g>
 </g>
</svg>
