<?xml version="1.0" encoding="UTF-8"?>
<!DOCTYPE svg PUBLIC "-//W3C//DTD SVG 1.1//EN" "http://www.w3.org/Graphics/SVG/1.1/DTD/svg11.dtd">
<!-- Creator: CorelDRAW 2017 -->
<svg xmlns="http://www.w3.org/2000/svg" xml:space="preserve" width="31.5273mm" height="21.2531mm" version="1.1" style="shape-rendering:geometricPrecision; text-rendering:geometricPrecision; image-rendering:optimizeQuality; fill-rule:evenodd; clip-rule:evenodd"
viewBox="0 0 211 142"
 xmlns:xlink="http://www.w3.org/1999/xlink">
 <defs>
  <style type="text/css">
   <![CDATA[
    .fil0 {fill:#2B914F;fill-rule:nonzero}
   ]]>
  </style>
 </defs>
 <g id="Layer_x0020_1">
  <metadata id="CorelCorpID_0Corel-Layer"/>
  <polygon class="fil0" points="0,13 6,38 30,32 30,140 60,140 60,1 39,1 "/>
  <path id="1" class="fil0" d="M211 71c0,-10 -1,-19 -4,-28 -3,-9 -7,-16 -12,-23 -5,-6 -12,-11 -19,-15 -8,-4 -16,-5 -25,-5 -9,0 -18,2 -25,5 -8,4 -14,9 -19,15 -5,6 -10,14 -12,23 -3,9 -4,18 -4,28 0,10 1,19 4,28 3,9 7,16 12,22 5,6 12,11 19,15 8,4 16,5 25,5 9,0 18,-2 25,-5 8,-4 14,-9 19,-15 5,-6 10,-14 12,-23 3,-9 4,-18 4,-28zm-31 0c0,6 -1,12 -2,17 -1,5 -3,10 -6,14 -3,4 -6,7 -9,9 -4,2 -8,3 -12,3 -5,0 -9,-1 -12,-3 -4,-2 -7,-5 -10,-9 -3,-4 -5,-9 -6,-14 -1,-5 -2,-11 -2,-17 0,-6 1,-12 2,-17 1,-5 3,-10 6,-14 3,-4 6,-7 9,-9 4,-2 8,-3 12,-3 5,0 9,1 12,3 4,2 7,5 10,9 3,4 5,9 6,14 1,5 2,11 2,17z"/>
 </g>
</svg>
