<?xml version="1.0" encoding="UTF-8"?>
<!DOCTYPE svg PUBLIC "-//W3C//DTD SVG 1.1//EN" "http://www.w3.org/Graphics/SVG/1.1/DTD/svg11.dtd">
<!-- Creator: CorelDRAW 2017 -->
<svg xmlns="http://www.w3.org/2000/svg" xml:space="preserve" width="31.2532mm" height="25.554mm" version="1.1" style="shape-rendering:geometricPrecision; text-rendering:geometricPrecision; image-rendering:optimizeQuality; fill-rule:evenodd; clip-rule:evenodd"
viewBox="0 0 257 210"
 xmlns:xlink="http://www.w3.org/1999/xlink">
 <defs>
  <style type="text/css">
   <![CDATA[
    .fil1 {fill:#2B914F;fill-rule:nonzero}
    .fil0 {fill:#B3B3B3;fill-rule:nonzero}
   ]]>
  </style>
 </defs>
 <g id="Layer_x0020_1">
  <metadata id="CorelCorpID_0Corel-Layer"/>
  <g id="_2085361660352">
   <path class="fil0" d="M129 17c27,0 51,11 69,28 4,4 8,9 11,13l-14 0c-2,-2 -3,-4 -5,-6 -16,-16 -37,-25 -61,-25 -24,0 -45,10 -61,25 -2,2 -4,4 -5,6l-14 0c3,-5 7,-9 11,-13 18,-18 42,-28 69,-28zm80 152c-3,5 -7,9 -11,13 -18,18 -42,28 -69,28 -27,0 -51,-11 -69,-28 -4,-4 -8,-9 -11,-13l14 0c2,2 3,4 5,6 16,16 37,25 61,25 24,0 45,-10 61,-25 2,-2 4,-4 5,-6l14 0z"/>
   <polygon class="fil1" points="0,71 5,89 22,85 22,163 44,163 44,63 29,63 "/>
   <path id="1" class="fil1" d="M153 113c0,-7 -1,-14 -3,-20 -2,-6 -5,-12 -9,-16 -4,-5 -9,-8 -14,-11 -5,-3 -12,-4 -18,-4 -7,0 -13,1 -18,4 -5,3 -10,6 -14,11 -4,5 -7,10 -9,16 -2,6 -3,13 -3,20 0,7 1,14 3,20 2,6 5,12 9,16 4,5 9,8 14,11 5,3 12,4 18,4 7,0 13,-1 18,-4 5,-3 10,-6 14,-11 4,-5 7,-10 9,-16 2,-6 3,-13 3,-20zm-23 0c0,5 0,9 -1,13 -1,4 -2,7 -4,10 -2,3 -4,5 -7,7 -3,2 -6,2 -9,2 -3,0 -6,-1 -9,-2 -3,-2 -5,-4 -7,-7 -2,-3 -3,-6 -4,-10 -1,-4 -2,-8 -2,-13 0,-5 0,-9 1,-13 1,-4 2,-7 4,-10 2,-3 4,-5 7,-7 3,-2 6,-2 9,-2 3,0 6,1 9,2 3,2 5,4 7,7 2,3 3,6 4,10 1,4 2,8 2,13z"/>
   <path id="2" class="fil1" d="M257 113c0,-7 -1,-14 -3,-20 -2,-6 -5,-12 -9,-16 -4,-5 -9,-8 -14,-11 -5,-3 -12,-4 -18,-4 -7,0 -13,1 -18,4 -5,3 -10,6 -14,11 -4,5 -7,10 -9,16 -2,6 -3,13 -3,20 0,7 1,14 3,20 2,6 5,12 9,16 4,5 9,8 14,11 5,3 12,4 18,4 7,0 13,-1 18,-4 5,-3 10,-6 14,-11 4,-5 7,-10 9,-16 2,-6 3,-13 3,-20zm-23 0c0,5 0,9 -1,13 -1,4 -2,7 -4,10 -2,3 -4,5 -7,7 -3,2 -6,2 -9,2 -3,0 -6,-1 -9,-2 -3,-2 -5,-4 -7,-7 -2,-3 -3,-6 -4,-10 -1,-4 -2,-8 -2,-13 0,-5 0,-9 1,-13 1,-4 2,-7 4,-10 2,-3 4,-5 7,-7 3,-2 6,-2 9,-2 3,0 6,1 9,2 3,2 5,4 7,7 2,3 3,6 4,10 1,4 2,8 2,13z"/>
   <rect class="fil0" x="112" width="33" height="12" rx="4" ry="4"/>
   <rect class="fil0" transform="matrix(1.6499 0.997206 -2.4625 4.07427 184.857 13.151)" width="7" height="3" rx="1" ry="1"/>
  </g>
 </g>
</svg>
