<?xml version="1.0" encoding="UTF-8"?>
<!DOCTYPE svg PUBLIC "-//W3C//DTD SVG 1.1//EN" "http://www.w3.org/Graphics/SVG/1.1/DTD/svg11.dtd">
<!-- Creator: CorelDRAW 2017 -->
<svg xmlns="http://www.w3.org/2000/svg" xml:space="preserve" width="34.3023mm" height="25.554mm" version="1.1" style="shape-rendering:geometricPrecision; text-rendering:geometricPrecision; image-rendering:optimizeQuality; fill-rule:evenodd; clip-rule:evenodd"
viewBox="0 0 250 186"
 xmlns:xlink="http://www.w3.org/1999/xlink">
 <defs>
  <style type="text/css">
   <![CDATA[
    .fil1 {fill:#2B914F;fill-rule:nonzero}
    .fil0 {fill:#B3B3B3;fill-rule:nonzero}
   ]]>
  </style>
 </defs>
 <g id="Layer_x0020_1">
  <metadata id="CorelCorpID_0Corel-Layer"/>
  <g id="_2085361697728">
   <path class="fil0" d="M125 15c24,0 45,10 61,25 4,4 7,8 10,12l-12 0c-1,-2 -3,-3 -5,-5 -14,-14 -33,-22 -54,-22 -21,0 -40,8 -54,22 -2,2 -3,3 -5,5l-12 0c3,-4 6,-8 10,-12 15,-15 37,-25 61,-25zm52 -1l4 3c2,1 2,3 1,5l-2 4c-1,2 -3,2 -5,1l-4 -3c-2,-1 -2,-3 -1,-5l2 -4c1,-2 3,-2 5,-1zm-64 -13l23 0c2,0 3,1 3,3l0 4c0,2 -1,3 -3,3l-23 0c-2,0 -3,-1 -3,-3l0 -4c0,-2 1,-3 3,-3zm82 149c-3,4 -6,8 -10,12 -16,16 -37,25 -61,25 -24,0 -45,-10 -61,-25 -4,-4 -7,-8 -10,-12l12 0c1,2 3,3 5,5 14,14 33,22 54,22 21,0 40,-8 54,-22 2,-2 3,-3 5,-5l12 0z"/>
   <path class="fil1" d="M33 72c4,0 6,1 9,3 2,2 3,5 3,9 0,2 0,4 -1,5 -1,2 -1,3 -3,5 -1,2 -3,3 -5,5 -2,2 -4,4 -7,6l-29 24 0 15 65 0 0 -17 -38 0 14 -11c4,-3 7,-6 10,-8 3,-3 5,-5 7,-8 2,-3 3,-5 4,-8 1,-3 1,-6 1,-10 0,-4 -1,-8 -2,-11 -1,-3 -3,-6 -6,-9 -3,-2 -6,-4 -10,-6 -4,-1 -8,-2 -13,-2 -4,0 -7,0 -11,1 -3,1 -6,2 -9,4 -3,2 -5,3 -7,6 -2,2 -4,5 -7,8l14 11c3,-4 6,-7 9,-9 3,-2 6,-3 9,-3z"/>
   <path id="1" class="fil1" d="M158 100c0,-6 -1,-12 -3,-18 -2,-6 -4,-10 -8,-14 -3,-4 -8,-7 -12,-10 -5,-2 -10,-3 -16,-3 -6,0 -11,1 -16,4 -5,2 -9,6 -12,10 -3,4 -6,9 -8,15 -2,6 -3,12 -3,18 0,6 1,12 3,18 2,6 4,10 8,14 3,4 8,7 12,10 5,2 10,3 16,3 6,0 11,-1 16,-4 5,-2 9,-6 12,-10 3,-4 6,-9 8,-14 2,-6 3,-12 3,-18zm-20 0c0,4 0,8 -1,11 -1,3 -2,6 -4,9 -2,3 -4,4 -6,6 -2,1 -5,2 -8,2 -3,0 -6,-1 -8,-2 -2,-1 -4,-3 -6,-6 -2,-3 -3,-6 -4,-9 -1,-3 -1,-7 -1,-11 0,-4 0,-8 1,-11 1,-3 2,-6 4,-9 2,-2 4,-4 6,-6 2,-1 5,-2 8,-2 3,0 6,1 8,2 2,1 4,3 6,6 2,3 3,6 4,9 1,3 1,7 1,11z"/>
   <path id="2" class="fil1" d="M250 100c0,-6 -1,-12 -3,-18 -2,-6 -4,-10 -8,-14 -3,-4 -8,-7 -12,-10 -5,-2 -10,-3 -16,-3 -6,0 -11,1 -16,4 -5,2 -9,6 -12,10 -3,4 -6,9 -8,15 -2,6 -3,12 -3,18 0,6 1,12 3,18 2,6 4,10 8,14 3,4 8,7 12,10 5,2 10,3 16,3 6,0 11,-1 16,-4 5,-2 9,-6 12,-10 3,-4 6,-9 8,-14 2,-6 3,-12 3,-18zm-20 0c0,4 0,8 -1,11 -1,3 -2,6 -4,9 -2,3 -4,4 -6,6 -2,1 -5,2 -8,2 -3,0 -6,-1 -8,-2 -2,-1 -4,-3 -6,-6 -2,-3 -3,-6 -4,-9 -1,-3 -1,-7 -1,-11 0,-4 0,-8 1,-11 1,-3 2,-6 4,-9 2,-2 4,-4 6,-6 2,-1 5,-2 8,-2 3,0 6,1 8,2 2,1 4,3 6,6 2,3 3,6 4,9 1,3 1,7 1,11z"/>
  </g>
 </g>
</svg>
