<?xml version="1.0" encoding="UTF-8"?>
<!DOCTYPE svg PUBLIC "-//W3C//DTD SVG 1.1//EN" "http://www.w3.org/Graphics/SVG/1.1/DTD/svg11.dtd">
<!-- Creator: CorelDRAW 2017 -->
<svg xmlns="http://www.w3.org/2000/svg" xml:space="preserve" width="43.856mm" height="25.5141mm" version="1.1" style="shape-rendering:geometricPrecision; text-rendering:geometricPrecision; image-rendering:optimizeQuality; fill-rule:evenodd; clip-rule:evenodd"
viewBox="0 0 245 142"
 xmlns:xlink="http://www.w3.org/1999/xlink">
 <defs>
  <style type="text/css">
   <![CDATA[
    .fil0 {fill:none}
    .fil1 {fill:#2B914F;fill-rule:nonzero}
    .fil2 {fill:#B3B3B3;fill-rule:nonzero}
   ]]>
  </style>
 </defs>
 <g id="Layer_x0020_1">
  <metadata id="CorelCorpID_0Corel-Layer"/>
  <g id="_2049150797840">
   <rect class="fil0" x="51" width="142" height="142"/>
   <polygon class="fil1" points="13,28 17,40 28,37 28,90 43,90 43,22 33,22 "/>
   <path id="1" class="fil1" d="M108 56c0,-5 -1,-9 -2,-14 -1,-4 -3,-8 -6,-11 -3,-3 -6,-6 -9,-7 -4,-2 -8,-3 -12,-3 -5,0 -9,1 -12,3 -4,2 -7,4 -10,7 -3,3 -5,7 -6,11 -1,4 -2,9 -2,14 0,5 1,10 2,14 1,4 3,8 6,11 3,3 6,6 9,7 4,2 8,3 12,3 5,0 9,-1 12,-3 4,-2 7,-4 10,-7 3,-3 5,-7 6,-11 1,-4 2,-9 2,-14zm-15 0c0,3 0,6 -1,9 -1,3 -2,5 -3,7 -1,2 -3,3 -5,4 -2,1 -4,2 -6,2 -2,0 -4,-1 -6,-2 -2,-1 -3,-3 -5,-5 -1,-2 -2,-4 -3,-7 -1,-3 -1,-6 -1,-9 0,-3 0,-6 1,-9 1,-3 2,-5 3,-7 1,-2 3,-3 5,-4 2,-1 4,-2 6,-2 2,0 4,1 6,2 2,1 3,3 5,5 1,2 2,4 3,7 1,3 1,6 1,9z"/>
   <path id="2" class="fil1" d="M170 56c0,-5 -1,-9 -2,-14 -1,-4 -3,-8 -6,-11 -3,-3 -6,-6 -9,-7 -4,-2 -8,-3 -12,-3 -5,0 -9,1 -12,3 -4,2 -7,4 -10,7 -3,3 -5,7 -6,11 -1,4 -2,9 -2,14 0,5 1,10 2,14 1,4 3,8 6,11 3,3 6,6 9,7 4,2 8,3 12,3 5,0 9,-1 12,-3 4,-2 7,-4 10,-7 3,-3 5,-7 6,-11 1,-4 2,-9 2,-14zm-15 0c0,3 0,6 -1,9 -1,3 -2,5 -3,7 -1,2 -3,3 -5,4 -2,1 -4,2 -6,2 -2,0 -4,-1 -6,-2 -2,-1 -3,-3 -5,-5 -1,-2 -2,-4 -3,-7 -1,-3 -1,-6 -1,-9 0,-3 0,-6 1,-9 1,-3 2,-5 3,-7 1,-2 3,-3 5,-4 2,-1 4,-2 6,-2 2,0 4,1 6,2 2,1 3,3 5,5 1,2 2,4 3,7 1,3 1,6 1,9z"/>
   <path id="3" class="fil1" d="M231 56c0,-5 -1,-9 -2,-14 -1,-4 -3,-8 -6,-11 -3,-3 -6,-6 -9,-7 -4,-2 -8,-3 -12,-3 -5,0 -9,1 -12,3 -4,2 -7,4 -10,7 -3,3 -5,7 -6,11 -1,4 -2,9 -2,14 0,5 1,10 2,14 1,4 3,8 6,11 3,3 6,6 9,7 4,2 8,3 12,3 5,0 9,-1 12,-3 4,-2 7,-4 10,-7 3,-3 5,-7 6,-11 1,-4 2,-9 2,-14zm-15 0c0,3 0,6 -1,9 -1,3 -2,5 -3,7 -1,2 -3,3 -5,4 -2,1 -4,2 -6,2 -2,0 -4,-1 -6,-2 -2,-1 -3,-3 -5,-5 -1,-2 -2,-4 -3,-7 -1,-3 -1,-6 -1,-9 0,-3 0,-6 1,-9 1,-3 2,-5 3,-7 1,-2 3,-3 5,-4 2,-1 4,-2 6,-2 2,0 4,1 6,2 2,1 3,3 5,5 1,2 2,4 3,7 1,3 1,6 1,9z"/>
   <polygon class="fil2" points="245,93 245,123 0,123 0,93 12,93 12,112 233,112 233,93 "/>
  </g>
 </g>
</svg>
