<?xml version="1.0" encoding="UTF-8"?>
<!DOCTYPE svg PUBLIC "-//W3C//DTD SVG 1.1//EN" "http://www.w3.org/Graphics/SVG/1.1/DTD/svg11.dtd">
<!-- Creator: CorelDRAW 2017 -->
<svg xmlns="http://www.w3.org/2000/svg" xml:space="preserve" width="35.2486mm" height="25.5141mm" version="1.1" style="shape-rendering:geometricPrecision; text-rendering:geometricPrecision; image-rendering:optimizeQuality; fill-rule:evenodd; clip-rule:evenodd"
viewBox="0 0 158 114"
 xmlns:xlink="http://www.w3.org/1999/xlink">
 <defs>
  <style type="text/css">
   <![CDATA[
    .fil0 {fill:none}
    .fil1 {fill:#2B914F;fill-rule:nonzero}
    .fil2 {fill:#B3B3B3;fill-rule:nonzero}
   ]]>
  </style>
 </defs>
 <g id="Layer_x0020_1">
  <metadata id="CorelCorpID_0Corel-Layer"/>
  <g id="_2085427797376">
   <rect class="fil0" x="22" width="114" height="114"/>
   <polygon class="fil1" points="9,22 11,32 21,30 21,72 33,72 33,18 25,18 "/>
   <path id="1" class="fil1" d="M92 45c0,-4 -1,-8 -2,-11 -1,-3 -3,-6 -5,-9 -2,-3 -5,-5 -8,-6 -3,-1 -6,-2 -10,-2 -4,0 -7,1 -10,2 -3,1 -6,3 -8,6 -2,3 -4,6 -5,9 -1,3 -2,7 -2,11 0,4 1,8 2,11 1,3 3,6 5,9 2,3 5,5 8,6 3,1 6,2 10,2 4,0 7,-1 10,-2 3,-1 6,-3 8,-6 2,-3 4,-6 5,-9 1,-3 2,-7 2,-11zm-12 0c0,2 0,5 -1,7 -1,2 -1,4 -2,5 -1,2 -2,3 -4,4 -1,1 -3,1 -5,1 -2,0 -3,0 -5,-1 -1,-1 -3,-2 -4,-4 -1,-2 -2,-3 -2,-6 -1,-2 -1,-4 -1,-7 0,-2 0,-5 1,-7 1,-2 1,-4 2,-5 1,-2 2,-3 4,-4 1,-1 3,-1 5,-1 2,0 3,0 5,1 1,1 3,2 4,4 1,2 2,3 2,6 1,2 1,4 1,7z"/>
   <path id="2" class="fil1" d="M149 45c0,-4 -1,-8 -2,-11 -1,-3 -3,-6 -5,-9 -2,-3 -5,-5 -8,-6 -3,-1 -6,-2 -10,-2 -4,0 -7,1 -10,2 -3,1 -6,3 -8,6 -2,3 -4,6 -5,9 -1,3 -2,7 -2,11 0,4 1,8 2,11 1,3 3,6 5,9 2,3 5,5 8,6 3,1 6,2 10,2 4,0 7,-1 10,-2 3,-1 6,-3 8,-6 2,-3 4,-6 5,-9 1,-3 2,-7 2,-11zm-12 0c0,2 0,5 -1,7 -1,2 -1,4 -2,5 -1,2 -2,3 -4,4 -1,1 -3,1 -5,1 -2,0 -3,0 -5,-1 -1,-1 -3,-2 -4,-4 -1,-2 -2,-3 -2,-6 -1,-2 -1,-4 -1,-7 0,-2 0,-5 1,-7 1,-2 1,-4 2,-5 1,-2 2,-3 4,-4 1,-1 3,-1 5,-1 2,0 3,0 5,1 1,1 3,2 4,4 1,2 2,3 2,6 1,2 1,4 1,7z"/>
   <polygon class="fil2" points="158,75 158,99 0,99 0,75 9,75 9,90 149,90 149,75 "/>
  </g>
 </g>
</svg>
