<?xml version="1.0" encoding="UTF-8"?>
<!DOCTYPE svg PUBLIC "-//W3C//DTD SVG 1.1//EN" "http://www.w3.org/Graphics/SVG/1.1/DTD/svg11.dtd">
<!-- Creator: CorelDRAW 2017 -->
<svg xmlns="http://www.w3.org/2000/svg" xml:space="preserve" width="42.3334mm" height="42.3333mm" version="1.1" style="shape-rendering:geometricPrecision; text-rendering:geometricPrecision; image-rendering:optimizeQuality; fill-rule:evenodd; clip-rule:evenodd"
viewBox="0 0 908 908"
 xmlns:xlink="http://www.w3.org/1999/xlink">
 <defs>
  <style type="text/css">
   <![CDATA[
    .fil1 {fill:none}
    .fil0 {fill:white;fill-rule:nonzero}
   ]]>
  </style>
 </defs>
 <g id="Layer_x0020_1">
  <metadata id="CorelCorpID_0Corel-Layer"/>
  <g id="_2049019287776">
   <g>
    <path class="fil0" d="M243 277l535 0c11,0 22,5 29,12 8,8 12,18 12,29l0 70c0,11 -5,22 -12,29 -8,7 -18,12 -29,12l-535 0c-11,0 -22,-5 -29,-12 -8,-8 -12,-18 -12,-29l0 -70c0,-11 5,-22 12,-29 7,-7 18,-12 29,-12zm535 38l-535 0 -2 1 -1 2 0 70 1 2 2 1 535 0 2 -1 1 -2 0 -70 -1 -2 -2 -1z"/>
    <path class="fil0" d="M243 453l535 0c11,0 22,5 29,12 8,8 12,18 12,29l0 70c0,11 -5,22 -12,29 -8,7 -18,12 -29,12l-535 0c-11,0 -22,-5 -29,-12 -8,-8 -12,-18 -12,-29l0 -70c0,-11 5,-22 12,-29 7,-7 18,-12 29,-12zm535 38l-535 0 -2 1 -1 2 0 70 1 2 2 1 535 0 2 -1 1 -2 0 -70 -1 -2 -2 -1z"/>
    <path class="fil0" d="M243 629l226 0c11,0 22,5 29,12 8,8 12,18 12,29l0 70c0,11 -5,22 -12,29 -8,8 -18,12 -29,12l-226 0c-11,0 -22,-5 -29,-12 -7,-7 -12,-18 -12,-29l0 -70c0,-11 5,-22 12,-29 7,-7 18,-12 29,-12zm226 38l-226 0 -2 1 -1 2 0 70 1 2 2 1 226 0 2 -1 1 -3 0 -70 -1 -2 -2 -1z"/>
    <polygon class="fil0" points="89,404 89,126 778,126 778,164 126,164 126,404 "/>
   </g>
   <rect class="fil1" width="908" height="908"/>
  </g>
 </g>
</svg>
