<svg xmlns="http://www.w3.org/2000/svg" width="596" height="473.517" viewBox="0 0 596 473.517">
  <g id="Group_61" data-name="Group 61" transform="translate(-1318.242 -1688.464)">
    <g id="Group_19" data-name="Group 19">
      <rect id="Rectangle_534" data-name="Rectangle 534" width="235.765" height="235.765" transform="translate(1471.201 2008.932) rotate(-73.146)" fill="#fff"/>
    </g>
    <g id="Group_60" data-name="Group 60">
      <path id="Path_38" data-name="Path 38" d="M1745.581,1781.343c-28.55-12.685-65.944-14.776-89.557-36.787-21.45-19.994-25.221-44.872-56.388-53.1-65.82-17.379-109.768,44.506-136.69,94.266-1.943,3.59,2.363,6.884,5.123,4.805l14.738,20.367a3.92,3.92,0,0,0-.66,5.917c9.418,9.752,21.351,13.709,33.752,18.97,21.393,9.078,42.811,18.071,63.92,27.8,33.958,15.649,67.218,32.809,98.94,52.632,22.4,14,44.982,28.668,72.476,21.516,20.841-5.422,38.61-21.289,47.764-40.547C1820.921,1851.064,1788.172,1800.267,1745.581,1781.343Z" fill="#e47510" fill-rule="evenodd"/>
      <path id="Path_39" data-name="Path 39" d="M1577.259,1992.429c-3.405-2.477-7.3.129-8.292,3.462l-128.161-30.837c.669-3.1-2.77-4.744-5.156-3.027-38.333,27.587-9.753,89.272,6.632,121.107,13.937,27.078,35.748,89.757,77.817,72.482,17.04-6.995,26.476-24.09,40.664-34.928,16.812-12.838,40.484-12.322,54.134-30.025C1643.514,2053.549,1606.166,2013.465,1577.259,1992.429Z" fill="#e47510" fill-rule="evenodd"/>
      <path id="Path_40" data-name="Path 40" d="M1767.972,2091.271c-8.495-20.366-24.865-48.291-49.731-48.117a7.021,7.021,0,0,0-6.741,8.795l-80.6,22.718a2.679,2.679,0,0,0-5.178,1.348c3.949,28.875,5.628,80.754,43.628,85.538,43.037,5.421,64.075-42.092,95.732-60.739C1768.6,2098.742,1769.493,2094.916,1767.972,2091.271Z" fill="#e47510" fill-rule="evenodd"/>
      <path id="Path_41" data-name="Path 41" d="M1903.611,2035.939c4.662-19.679,16.634-56.262,6.957-75.232-8.442-16.55-27.021-14.307-46.49-10.686-24.206,4.5-53.764,12.307-76.2,22.8-19.3,2.631-28.408,20.2-36.958,31.953-11.183,15.366,9.968,35.553,18.441,47.3,19.35,26.836,66.155,92.044,105.088,55.919C1892.169,2091.554,1898.373,2058.052,1903.611,2035.939Z" fill="#f38a22" fill-rule="evenodd"/>
      <g id="Group_20" data-name="Group 20">
        <path id="Path_42" data-name="Path 42" d="M1842.335,2089.036a163.074,163.074,0,0,1-71-57.084c-1.941-2.746,2.69-5.185,4.612-2.468a156.655,156.655,0,0,0,67.9,54.546C1846.923,2085.323,1845.439,2090.343,1842.335,2089.036Z" fill="#e47510" fill-rule="evenodd"/>
      </g>
      <g id="Group_21" data-name="Group 21">
        <path id="Path_43" data-name="Path 43" d="M1854.836,2066.617a292.392,292.392,0,0,1-72.444-37.09c-2.742-1.925.027-6.366,2.793-4.423a287.662,287.662,0,0,0,71.168,36.507C1859.523,2062.716,1858.023,2067.727,1854.836,2066.617Z" fill="#e47510" fill-rule="evenodd"/>
      </g>
      <g id="Group_22" data-name="Group 22">
        <path id="Path_44" data-name="Path 44" d="M1863.668,2042.625a626.289,626.289,0,0,1-77.894-22.173c-3.161-1.124-1.662-6.136,1.517-5.005a626.3,626.3,0,0,0,77.894,22.172C1868.475,2038.33,1866.941,2043.332,1863.668,2042.625Z" fill="#e47510" fill-rule="evenodd"/>
      </g>
      <g id="Group_23" data-name="Group 23">
        <path id="Path_45" data-name="Path 45" d="M1865.478,2010.6a325.989,325.989,0,0,0-84.458,11.7c-3.255.892-4.458-4.2-1.217-5.088a331.62,331.62,0,0,1,85.807-11.84C1868.983,2005.344,1868.839,2010.574,1865.478,2010.6Z" fill="#e47510" fill-rule="evenodd"/>
      </g>
      <g id="Group_24" data-name="Group 24">
        <path id="Path_46" data-name="Path 46" d="M1862.429,1978a152.779,152.779,0,0,0-87.065,35.084c-2.581,2.138-6.159-1.68-3.556-3.836a158.816,158.816,0,0,1,90.753-36.478C1865.92,1972.526,1865.757,1977.758,1862.429,1978Z" fill="#e47510" fill-rule="evenodd"/>
      </g>
      <path id="Path_47" data-name="Path 47" d="M1827.364,2020.054c-7.12-56.622-46.039-167.242-120.15-223.029-76.157-57.33-176.067-59.254-221.148-46.994-40.362,10.974-88.09,41.385-122.94,63.592l-3.948,2.513c-35.491,22.592-40.612,49.768-40.814,50.917l-.033.291c-3.248,86.173,82.77,194.8,219.42,236.2a392.173,392.173,0,0,0,40.888,10.018c158.693,29.992,247.459-90.745,248.337-91.968l.5-.692Z" fill="#f38a22" fill-rule="evenodd"/>
      <path id="Path_48" data-name="Path 48" d="M1827.364,2020.054c-7.12-56.622-46.039-167.242-120.15-223.029-76.157-57.33-176.067-59.254-221.148-46.994-40.362,10.974-88.09,41.385-122.94,63.592l-3.948,2.513c-35.491,22.592-40.612,49.768-40.814,50.917l-.033.291c-3.248,86.173,82.77,194.8,219.42,236.2a392.173,392.173,0,0,0,40.888,10.018c158.693,29.992,247.459-90.745,248.337-91.968l.5-.692Z" fill="#e48024" fill-rule="evenodd"/>
      <path id="Path_49" data-name="Path 49" d="M1323.149,1854.016c-1.332,85.716,84.288,192.473,219.48,233.429a392.356,392.356,0,0,0,40.888,10.018c136.258,25.752,220.961-59.618,242.743-85.045-9.447-58.445-48.135-162.015-119.046-215.393-76.157-57.33-176.067-59.254-221.148-46.994-40.362,10.974-88.09,41.385-122.94,63.592l-3.948,2.513C1338.649,1829.2,1328.282,1843.805,1323.149,1854.016Z" fill="#f38a22" fill-rule="evenodd"/>
      <path id="Path_50" data-name="Path 50" d="M1332.507,1839.571c-1.426,85.74,84.212,192.59,219.477,233.569a392.417,392.417,0,0,0,40.888,10.018c120.67,22.806,200.9-41.533,232.8-74.215-10.385-59-48.937-159.584-118.461-211.918-76.157-57.33-176.067-59.254-221.148-46.994-40.362,10.974-88.09,41.385-122.94,63.592l-3.948,2.513A108.333,108.333,0,0,0,1332.507,1839.571Z" fill="#f38a22" fill-rule="evenodd"/>
      <g id="Group_25" data-name="Group 25">
        <path id="Path_51" data-name="Path 51" d="M1319.58,1890.888a139.41,139.41,0,0,0,35.451,15.774,2.562,2.562,0,1,0,1.238-4.972,133.822,133.822,0,0,1-37.449-17.355Q1319.122,1887.6,1319.58,1890.888Z" fill="#353535" fill-rule="evenodd"/>
      </g>
      <path id="Path_52" data-name="Path 52" d="M1581.822,1803.135c3.109-13.355,9.834-34.659,11.388-54.332-34.169-6.158-66.054-5.912-89.819-2.33-1.9,34.393-4,67.845-13.414,102.36-12.225,44.8-30.025,87.584-51.233,128.842-8.2,15.952-24.505,37.66-28.033,58.413a349.32,349.32,0,0,0,45.506,31.849,63.474,63.474,0,0,0,11.857-14.533C1515.155,1975.38,1560.993,1892.58,1581.822,1803.135Z" fill="#353535" fill-rule="evenodd"/>
      <path id="Path_53" data-name="Path 53" d="M1577.892,1801.944c3.184-13.226,9.809-34.326,11.88-53.74-29.907-5.039-57.9-5.206-80-2.587-2.869,35.079-5.714,69.122-15.495,104.52-12.366,44.754-29.656,87.7-49.944,129.232-8.224,16.838-24.624,40.227-27.416,61.738a351.446,351.446,0,0,0,40.006,27.24,68.087,68.087,0,0,0,11.222-14.921C1512.754,1974.653,1556.4,1891.189,1577.892,1801.944Z" fill="#f6efdd" fill-rule="evenodd"/>
      <path id="Path_54" data-name="Path 54" d="M1642.957,1762.291c-23.674,47.718-6.786,109.455-19.58,162.725-13.7,57.052-55.427,122.362-60.453,185.245q7.764,1.8,15.715,3.3c6.072,1.148,12.027,2.049,17.893,2.77a310.481,310.481,0,0,1,26.063-46.989c22.437-33.246,53.532-60.882,67.6-99.291,15.115-41.28,10.845-86.694,24.657-128.31a182.5,182.5,0,0,1,11.981-27.957,215.26,215.26,0,0,0-19.617-16.761A251.966,251.966,0,0,0,1642.957,1762.291Z" fill="#353535" fill-rule="evenodd"/>
      <path id="Path_55" data-name="Path 55" d="M1824.334,2005.459q.183-.882.357-1.785c-4.748-24.213-13.9-54.492-27.62-85.321-10.883,20.685-17.5,41.632-11.2,66.325,7.8,30.587,2.808,57.454-7.857,83.67a270.69,270.69,0,0,0,37.651-33.424A191.623,191.623,0,0,0,1824.334,2005.459Z" fill="#353535" fill-rule="evenodd"/>
      <path id="Path_56" data-name="Path 56" d="M1652,1765.829c-25.712,48.632-12.118,111.242-25.905,165.983-13.868,55.061-51.149,118.634-59.8,179.215q6.112,1.359,12.338,2.536c6.333,1.2,12.542,2.129,18.651,2.862a349.621,349.621,0,0,1,22.371-41.834c21.059-33.615,49.51-61.964,63.412-100.413,14.939-41.324,12.993-86.1,26.8-127.716a210.12,210.12,0,0,1,15.034-34.495,213.393,213.393,0,0,0-17.693-14.942A248.948,248.948,0,0,0,1652,1765.829Z" fill="#f6efdd" fill-rule="evenodd"/>
      <path id="Path_57" data-name="Path 57" d="M1799.508,1923.921c-9.578,19.341-14.938,39.112-9.067,62.143,7.116,27.912,3.584,52.727-5.193,76.775a253.267,253.267,0,0,0,38.832-37.547q1.47-4.651,2.712-9.407C1823.219,1991.443,1814.208,1958.235,1799.508,1923.921Z" fill="#f6efdd" fill-rule="evenodd"/>
      <g id="Group_28" data-name="Group 28">
        <g id="Group_26" data-name="Group 26">
          <path id="Path_58" data-name="Path 58" d="M1411,1818.805a31.027,31.027,0,1,0,38.69-20.7A31.025,31.025,0,0,0,1411,1818.805Z" fill="#fff" fill-rule="evenodd"/>
        </g>
        <g id="Group_27" data-name="Group 27">
          <path id="Path_59" data-name="Path 59" d="M1417.742,1817.146a12.529,12.529,0,1,0,15.624-8.359A12.53,12.53,0,0,0,1417.742,1817.146Z" fill="#353535" fill-rule="evenodd"/>
        </g>
      </g>
      <path id="Path_60" data-name="Path 60" d="M1614.473,1971.181c-16.338-30.178-61.456-13.664-86.088-1.587-12.188,5.977-26.29,14.834-21.266,30.606,3.24,10.173,8.956,23.837,17.285,32.218,16.817,15.915,37.472,40.374,60.618,27.936C1605.818,2049.18,1626.723,1993.805,1614.473,1971.181Z" fill="#e47510" fill-rule="evenodd"/>
      <g id="Group_29" data-name="Group 29">
        <path id="Path_61" data-name="Path 61" d="M1588.289,1972.537c-16.434-4.939-39.508-.55-55.153,5.244-8.85,3.277-16.633,7.561-25.587,9.119a19.425,19.425,0,0,1,1.2-2.28c14.016-2.659,27.408-11.257,41.638-13.5,12.224-1.927,26.542-4.183,38.512-.586A1.047,1.047,0,0,1,1588.289,1972.537Z" fill="#f38a22" fill-rule="evenodd"/>
      </g>
      <g id="Group_30" data-name="Group 30">
        <path id="Path_62" data-name="Path 62" d="M1579.7,2051.483c-28.581-2.073-57.47-29.062-73.235-53.815a19.061,19.061,0,0,1-.369-4.608c14.8,24.908,45.029,54.255,73.657,56.332C1581.094,2049.488,1581.045,2051.581,1579.7,2051.483Z" fill="#f38a22" fill-rule="evenodd"/>
      </g>
      <g id="Group_31" data-name="Group 31">
        <path id="Path_63" data-name="Path 63" d="M1585.624,2026.812a360.112,360.112,0,0,1-79.516-31.911,17.8,17.8,0,0,1,.02-2.372,358.7,358.7,0,0,0,80.1,32.28C1587.532,2025.16,1586.924,2027.162,1585.624,2026.812Z" fill="#f38a22" fill-rule="evenodd"/>
      </g>
      <g id="Group_32" data-name="Group 32">
        <path id="Path_64" data-name="Path 64" d="M1589.829,1996.2a234.282,234.282,0,0,0-83.406-5.783,17.085,17.085,0,0,1,.589-2.15,237.484,237.484,0,0,1,83.424,5.931C1591.742,1994.527,1591.132,1996.529,1589.829,1996.2Z" fill="#f38a22" fill-rule="evenodd"/>
      </g>
      <g id="Group_33" data-name="Group 33">
        <path id="Path_65" data-name="Path 65" d="M1749.465,1857.492a16.167,16.167,0,0,0-1.515-2.26c-1.187-2.459-3.746-4.872-5.642-4.808-.14.006-.231.1-.361.123-2.029-.877-4.342-1.288-6.134.13-2.406,1.905-1.788,5.318-.841,7.815a15.225,15.225,0,0,0,6.042,7.461c2.6,1.626,6.76,3.122,9.317.563C1753.082,1863.766,1751.358,1860.173,1749.465,1857.492Z" fill="#e47510" fill-rule="evenodd"/>
        <path id="Path_66" data-name="Path 66" d="M1759.136,1872.471a4.537,4.537,0,0,0,5.536-.551c3.272-3.031,1.087-7.915-1.219-10.732a11.1,11.1,0,0,0-1.3-1.331,4.39,4.39,0,0,0-2.434-1.31,4.332,4.332,0,0,0-.485-.068c-.069,0-.129-.031-.2-.029s-.15.037-.233.044a3.872,3.872,0,0,0-.975.035c-2.415.579-3.6,2.879-3.847,5.165C1753.572,1867.434,1755.512,1871.486,1759.136,1872.471Z" fill="#e47510" fill-rule="evenodd"/>
        <path id="Path_67" data-name="Path 67" d="M1765.724,1885.575a12.732,12.732,0,0,0-3.965-8,5.02,5.02,0,0,0-3.821-1.407,4.065,4.065,0,0,0-4.005-.273c-2.964,1.5-2.385,5.476-1.246,7.975,1.249,2.743,3.714,5.9,6.668,6.9C1763.019,1892.006,1766.065,1889.3,1765.724,1885.575Z" fill="#e47510" fill-rule="evenodd"/>
        <path id="Path_68" data-name="Path 68" d="M1739.878,1844.7a4.013,4.013,0,0,0,.835-1.188c1.356-3.044-.865-7.292-2.324-9.931-1.389-2.51-3.418-5.93-6.472-6.589a4.9,4.9,0,0,0-1.363.009,7.63,7.63,0,0,0-2.077-1.324c-4.026-1.6-6.652,2.857-7,6.238a15.711,15.711,0,0,0,3.677,11.273c2.429,2.951,6.712,5.964,10.635,4.094.025-.012.043-.031.067-.044C1738.232,1847.164,1739.457,1846.188,1739.878,1844.7Z" fill="#e47510" fill-rule="evenodd"/>
        <path id="Path_69" data-name="Path 69" d="M1720.174,1844.692a5.5,5.5,0,0,0-6.655,3.253c-.864,2.266-.543,4.916-.017,7.241.8,3.543,3.144,7.946,6.62,9.684a6.806,6.806,0,0,0,5.591,1.248c5.681-1.434,5.7-7.958,3.794-12.306C1727.886,1850.109,1724.228,1845.77,1720.174,1844.692Z" fill="#e47510" fill-rule="evenodd"/>
        <path id="Path_70" data-name="Path 70" d="M1744.145,1874.021c-2.062-3.155-7.466-5.191-9.95-1.256-2.377,3.767.442,8.839,3.764,10.9,2.086,1.3,4.929.033,5.913-1.956a4.384,4.384,0,0,0,.7-.889,4.736,4.736,0,0,0,.348-5.111A6.949,6.949,0,0,0,1744.145,1874.021Z" fill="#e47510" fill-rule="evenodd"/>
      </g>
      <g id="Group_35" data-name="Group 35">
        <g id="Group_34" data-name="Group 34">
          <path id="Path_71" data-name="Path 71" d="M1479.9,1770.89a.343.343,0,0,1,.2-.656A.343.343,0,0,1,1479.9,1770.89Z" fill="#ffb87b" fill-rule="evenodd"/>
        </g>
      </g>
      <g id="Group_37" data-name="Group 37">
        <path id="Path_72" data-name="Path 72" d="M1474.389,1771.048l1,.3Z" fill="#ffb87b" fill-rule="evenodd"/>
        <g id="Group_36" data-name="Group 36">
          <path id="Path_73" data-name="Path 73" d="M1474.4,1770.411a1.884,1.884,0,0,1,1.274.484.545.545,0,0,1-.3.995,1.887,1.887,0,0,1-1.328-.3A.642.642,0,0,1,1474.4,1770.411Z" fill="#ffb87b" fill-rule="evenodd"/>
        </g>
      </g>
      <g id="Group_39" data-name="Group 39">
        <g id="Group_38" data-name="Group 38">
          <path id="Path_74" data-name="Path 74" d="M1464.875,1766.372a1.422,1.422,0,0,1,.825-2.721A1.422,1.422,0,0,1,1464.875,1766.372Z" fill="#ffb87b" fill-rule="evenodd"/>
        </g>
      </g>
      <g id="Group_41" data-name="Group 41">
        <path id="Path_75" data-name="Path 75" d="M1463.164,1772.019l1,.3Z" fill="#ffb87b" fill-rule="evenodd"/>
        <g id="Group_40" data-name="Group 40">
          <path id="Path_76" data-name="Path 76" d="M1463.355,1775c-3.442-1.043-1.828-6.4,1.621-5.35S1466.8,1776.042,1463.355,1775Z" fill="#ffb87b" fill-rule="evenodd"/>
        </g>
      </g>
      <g id="Group_43" data-name="Group 43">
        <g id="Group_42" data-name="Group 42">
          <path id="Path_77" data-name="Path 77" d="M1451.556,1774.258a1.325,1.325,0,0,1,.767-2.534A1.325,1.325,0,0,1,1451.556,1774.258Z" fill="#ffb87b" fill-rule="evenodd"/>
        </g>
      </g>
      <g id="Group_45" data-name="Group 45">
        <path id="Path_78" data-name="Path 78" d="M1477.118,1762.037l.3-1Z" fill="#ffb87b" fill-rule="evenodd"/>
        <g id="Group_44" data-name="Group 44">
          <path id="Path_79" data-name="Path 79" d="M1475,1759.086l.324-.315a3.115,3.115,0,0,1,5.1,1.547c.032.147.063.294.095.441a3.343,3.343,0,1,1-5.524-1.673Z" fill="#ffb87b" fill-rule="evenodd"/>
        </g>
      </g>
      <g id="Group_47" data-name="Group 47">
        <path id="Path_80" data-name="Path 80" d="M1441.717,1774.266l-1-.3Z" fill="#ffb87b" fill-rule="evenodd"/>
        <g id="Group_46" data-name="Group 46">
          <path id="Path_81" data-name="Path 81" d="M1441.68,1775.688l-.5-.04a1.565,1.565,0,0,1-1.494-1.573,1.408,1.408,0,0,1,.236-.78,1.568,1.568,0,0,1,2.116-.478l.441.246A1.433,1.433,0,0,1,1441.68,1775.688Z" fill="#ffb87b" fill-rule="evenodd"/>
        </g>
      </g>
      <g id="Group_49" data-name="Group 49">
        <path id="Path_82" data-name="Path 82" d="M1748.41,2071.572l-.3,1Z" fill="#ffb87b" fill-rule="evenodd"/>
        <g id="Group_48" data-name="Group 48">
          <path id="Path_83" data-name="Path 83" d="M1749.865,2072.012a1.957,1.957,0,0,1-1.507,1.61,1.068,1.068,0,0,1-1.042-.316,1.951,1.951,0,0,1-.36-2.175A1.521,1.521,0,0,1,1749.865,2072.012Z" fill="#ffb87b" fill-rule="evenodd"/>
        </g>
      </g>
      <g id="Group_51" data-name="Group 51">
        <g id="Group_50" data-name="Group 50">
          <path id="Path_84" data-name="Path 84" d="M1727.355,2083.347a.638.638,0,0,1,.37-1.22A.638.638,0,0,1,1727.355,2083.347Z" fill="#ffb87b" fill-rule="evenodd"/>
        </g>
      </g>
      <g id="Group_53" data-name="Group 53">
        <path id="Path_85" data-name="Path 85" d="M1726.826,2068.858l.5.152Z" fill="#ffb87b" fill-rule="evenodd"/>
        <g id="Group_52" data-name="Group 52">
          <path id="Path_86" data-name="Path 86" d="M1728.48,2067.324l.321.318a2.026,2.026,0,0,1-1.007,3.323l-.443.087a2.256,2.256,0,1,1,1.129-3.728Z" fill="#ffb87b" fill-rule="evenodd"/>
        </g>
      </g>
      <g id="Group_55" data-name="Group 55">
        <path id="Path_87" data-name="Path 87" d="M1710.2,2084.042l-.653.349Z" fill="#ffb87b" fill-rule="evenodd"/>
        <g id="Group_54" data-name="Group 54">
          <path id="Path_88" data-name="Path 88" d="M1711.564,2084.455l-.183.491a1.913,1.913,0,1,1-1.276-2.385l.51.121A1.43,1.43,0,0,1,1711.564,2084.455Z" fill="#ffb87b" fill-rule="evenodd"/>
        </g>
      </g>
      <g id="Group_57" data-name="Group 57">
        <g id="Group_56" data-name="Group 56">
          <path id="Path_89" data-name="Path 89" d="M1740.305,2085.7c-5.375-1.628-2.853-9.984,2.531-8.353S1745.689,2087.33,1740.305,2085.7Z" fill="#ffb87b" fill-rule="evenodd"/>
        </g>
      </g>
      <g id="Group_58" data-name="Group 58">
        <path id="Path_90" data-name="Path 90" d="M1525.665,2082.842a.052.052,0,0,1,.031-.1A.052.052,0,0,1,1525.665,2082.842Z" fill="#ffb87b" fill-rule="evenodd"/>
      </g>
      <g id="Group_59" data-name="Group 59">
        <path id="Path_91" data-name="Path 91" d="M1892.647,2056.339a186.252,186.252,0,0,1,6.693-40.978c1.689-6.232,4.257-12.35,5.809-18.6,4.774-19.22-2.16-29.3-15.987-39.608a1.03,1.03,0,0,1,1.1-1.741c12.534,6.359,22.128,15.836,20.676,30.76-.784,8.061-4.561,15.759-6.959,23.4-4.831,15.389-7.306,30.892-9.861,46.8C1893.973,2057.279,1892.607,2057.316,1892.647,2056.339Z" fill="#ffb87b" fill-rule="evenodd"/>
      </g>
    </g>
  </g>
</svg>
