<svg xmlns="http://www.w3.org/2000/svg" width="40.33" height="841.889" viewBox="0 0 40.33 841.889">
  <g id="Group_18" data-name="Group 18" transform="translate(-1117.355 -1510.228)">
    <path id="Rectangle_493" data-name="Rectangle 493" d="M3.759,0H36.572A3.758,3.758,0,0,1,40.33,3.758v9.4a3.758,3.758,0,0,1-3.758,3.758H3.759A3.759,3.759,0,0,1,0,13.155v-9.4A3.759,3.759,0,0,1,3.759,0Z" transform="translate(1117.355 1510.228)" fill="#333"/>
    <path id="Rectangle_494" data-name="Rectangle 494" d="M3.759,0H36.572A3.758,3.758,0,0,1,40.33,3.758v9.4a3.759,3.759,0,0,1-3.759,3.759H3.759A3.759,3.759,0,0,1,0,13.155v-9.4A3.759,3.759,0,0,1,3.759,0Z" transform="translate(1117.355 1530.852)" fill="#333"/>
    <path id="Rectangle_495" data-name="Rectangle 495" d="M3.759,0H36.572A3.758,3.758,0,0,1,40.33,3.758v9.4a3.759,3.759,0,0,1-3.759,3.759H3.759A3.759,3.759,0,0,1,0,13.155v-9.4A3.759,3.759,0,0,1,3.759,0Z" transform="translate(1117.355 1551.476)" fill="#333"/>
    <path id="Rectangle_496" data-name="Rectangle 496" d="M3.759,0H36.572A3.758,3.758,0,0,1,40.33,3.758v9.4a3.758,3.758,0,0,1-3.758,3.758H3.759A3.759,3.759,0,0,1,0,13.155v-9.4A3.759,3.759,0,0,1,3.759,0Z" transform="translate(1117.355 1572.101)" fill="#333"/>
    <path id="Rectangle_497" data-name="Rectangle 497" d="M3.759,0H36.572A3.758,3.758,0,0,1,40.33,3.758v9.4a3.758,3.758,0,0,1-3.758,3.758H3.759A3.759,3.759,0,0,1,0,13.155v-9.4A3.759,3.759,0,0,1,3.759,0Z" transform="translate(1117.355 1592.725)" fill="#333"/>
    <path id="Rectangle_498" data-name="Rectangle 498" d="M3.759,0H36.572A3.758,3.758,0,0,1,40.33,3.758v9.4a3.758,3.758,0,0,1-3.758,3.758H3.758A3.758,3.758,0,0,1,0,13.155v-9.4A3.759,3.759,0,0,1,3.759,0Z" transform="translate(1117.355 1613.349)" fill="#333"/>
    <path id="Rectangle_499" data-name="Rectangle 499" d="M3.759,0H36.572A3.759,3.759,0,0,1,40.33,3.759v9.4a3.758,3.758,0,0,1-3.758,3.758H3.759A3.759,3.759,0,0,1,0,13.155v-9.4A3.759,3.759,0,0,1,3.759,0Z" transform="translate(1117.355 1633.974)" fill="#333"/>
    <path id="Rectangle_500" data-name="Rectangle 500" d="M3.758,0H36.572A3.758,3.758,0,0,1,40.33,3.758v9.4a3.758,3.758,0,0,1-3.758,3.758H3.759A3.759,3.759,0,0,1,0,13.155v-9.4A3.758,3.758,0,0,1,3.758,0Z" transform="translate(1117.355 1654.598)" fill="#333"/>
    <path id="Rectangle_501" data-name="Rectangle 501" d="M3.758,0H36.572A3.758,3.758,0,0,1,40.33,3.758v9.4a3.758,3.758,0,0,1-3.758,3.758H3.759A3.759,3.759,0,0,1,0,13.155v-9.4A3.758,3.758,0,0,1,3.758,0Z" transform="translate(1117.355 1675.223)" fill="#333"/>
    <path id="Rectangle_502" data-name="Rectangle 502" d="M3.759,0H36.572A3.758,3.758,0,0,1,40.33,3.758v9.4a3.759,3.759,0,0,1-3.759,3.759H3.759A3.759,3.759,0,0,1,0,13.155v-9.4A3.759,3.759,0,0,1,3.759,0Z" transform="translate(1117.355 1695.847)" fill="#333"/>
    <path id="Rectangle_503" data-name="Rectangle 503" d="M3.759,0H36.572A3.758,3.758,0,0,1,40.33,3.758v9.4a3.758,3.758,0,0,1-3.758,3.758H3.759A3.759,3.759,0,0,1,0,13.155v-9.4A3.759,3.759,0,0,1,3.759,0Z" transform="translate(1117.355 1716.471)" fill="#333"/>
    <path id="Rectangle_504" data-name="Rectangle 504" d="M3.759,0H36.572A3.758,3.758,0,0,1,40.33,3.758v9.4a3.758,3.758,0,0,1-3.758,3.758H3.759A3.759,3.759,0,0,1,0,13.155v-9.4A3.759,3.759,0,0,1,3.759,0Z" transform="translate(1117.355 1737.096)" fill="#333"/>
    <path id="Rectangle_505" data-name="Rectangle 505" d="M3.759,0H36.572A3.758,3.758,0,0,1,40.33,3.758v9.4a3.759,3.759,0,0,1-3.759,3.759H3.759A3.759,3.759,0,0,1,0,13.155v-9.4A3.759,3.759,0,0,1,3.759,0Z" transform="translate(1117.355 1757.72)" fill="#333"/>
    <path id="Rectangle_506" data-name="Rectangle 506" d="M3.759,0H36.572A3.758,3.758,0,0,1,40.33,3.758v9.4a3.759,3.759,0,0,1-3.759,3.759H3.759A3.759,3.759,0,0,1,0,13.155v-9.4A3.759,3.759,0,0,1,3.759,0Z" transform="translate(1117.355 1778.344)" fill="#333"/>
    <path id="Rectangle_507" data-name="Rectangle 507" d="M3.759,0H36.572A3.758,3.758,0,0,1,40.33,3.758v9.4a3.758,3.758,0,0,1-3.758,3.758H3.759A3.759,3.759,0,0,1,0,13.155v-9.4A3.759,3.759,0,0,1,3.759,0Z" transform="translate(1117.355 1798.969)" fill="#333"/>
    <path id="Rectangle_508" data-name="Rectangle 508" d="M3.758,0H36.572A3.758,3.758,0,0,1,40.33,3.758v9.4a3.758,3.758,0,0,1-3.758,3.758H3.759A3.759,3.759,0,0,1,0,13.155v-9.4A3.758,3.758,0,0,1,3.758,0Z" transform="translate(1117.355 1819.593)" fill="#333"/>
    <path id="Rectangle_509" data-name="Rectangle 509" d="M3.758,0H36.572A3.758,3.758,0,0,1,40.33,3.758v9.4a3.758,3.758,0,0,1-3.758,3.758H3.759A3.759,3.759,0,0,1,0,13.155v-9.4A3.758,3.758,0,0,1,3.758,0Z" transform="translate(1117.355 1840.218)" fill="#333"/>
    <path id="Rectangle_510" data-name="Rectangle 510" d="M3.759,0H36.572A3.759,3.759,0,0,1,40.33,3.759v9.4a3.758,3.758,0,0,1-3.758,3.758H3.759A3.759,3.759,0,0,1,0,13.155v-9.4A3.759,3.759,0,0,1,3.759,0Z" transform="translate(1117.355 1860.842)" fill="#333"/>
    <path id="Rectangle_511" data-name="Rectangle 511" d="M3.758,0H36.572A3.758,3.758,0,0,1,40.33,3.758v9.4a3.758,3.758,0,0,1-3.758,3.758H3.759A3.759,3.759,0,0,1,0,13.155v-9.4A3.758,3.758,0,0,1,3.758,0Z" transform="translate(1117.355 1881.467)" fill="#333"/>
    <path id="Rectangle_512" data-name="Rectangle 512" d="M3.759,0H36.572A3.759,3.759,0,0,1,40.33,3.759v9.4a3.758,3.758,0,0,1-3.758,3.758H3.759A3.759,3.759,0,0,1,0,13.155v-9.4A3.759,3.759,0,0,1,3.759,0Z" transform="translate(1117.355 1902.091)" fill="#333"/>
    <path id="Rectangle_513" data-name="Rectangle 513" d="M3.759,0H36.572A3.758,3.758,0,0,1,40.33,3.758v9.4a3.759,3.759,0,0,1-3.759,3.759H3.759A3.759,3.759,0,0,1,0,13.155v-9.4A3.759,3.759,0,0,1,3.759,0Z" transform="translate(1117.355 1922.715)" fill="#333"/>
    <path id="Rectangle_514" data-name="Rectangle 514" d="M3.759,0H36.572A3.758,3.758,0,0,1,40.33,3.758v9.4a3.758,3.758,0,0,1-3.758,3.758H3.759A3.759,3.759,0,0,1,0,13.155v-9.4A3.759,3.759,0,0,1,3.759,0Z" transform="translate(1117.355 1943.339)" fill="#333"/>
    <path id="Rectangle_515" data-name="Rectangle 515" d="M3.759,0H36.572A3.758,3.758,0,0,1,40.33,3.758v9.4a3.758,3.758,0,0,1-3.758,3.758H3.759A3.759,3.759,0,0,1,0,13.155v-9.4A3.759,3.759,0,0,1,3.759,0Z" transform="translate(1117.355 1963.964)" fill="#333"/>
    <path id="Rectangle_516" data-name="Rectangle 516" d="M3.759,0H36.572A3.758,3.758,0,0,1,40.33,3.758v9.4a3.759,3.759,0,0,1-3.759,3.759H3.759A3.759,3.759,0,0,1,0,13.155v-9.4A3.759,3.759,0,0,1,3.759,0Z" transform="translate(1117.355 1984.588)" fill="#333"/>
    <path id="Rectangle_517" data-name="Rectangle 517" d="M3.758,0H36.572A3.758,3.758,0,0,1,40.33,3.758v9.4a3.758,3.758,0,0,1-3.758,3.758H3.759A3.759,3.759,0,0,1,0,13.155v-9.4A3.758,3.758,0,0,1,3.758,0Z" transform="translate(1117.355 2005.213)" fill="#333"/>
    <path id="Rectangle_518" data-name="Rectangle 518" d="M3.759,0H36.572A3.758,3.758,0,0,1,40.33,3.758v9.4a3.758,3.758,0,0,1-3.758,3.758H3.759A3.759,3.759,0,0,1,0,13.155v-9.4A3.759,3.759,0,0,1,3.759,0Z" transform="translate(1117.355 2025.837)" fill="#333"/>
    <path id="Rectangle_519" data-name="Rectangle 519" d="M3.758,0H36.572A3.758,3.758,0,0,1,40.33,3.758v9.4a3.758,3.758,0,0,1-3.758,3.758H3.759A3.759,3.759,0,0,1,0,13.155v-9.4A3.758,3.758,0,0,1,3.758,0Z" transform="translate(1117.355 2046.462)" fill="#333"/>
    <path id="Rectangle_520" data-name="Rectangle 520" d="M3.758,0H36.572A3.758,3.758,0,0,1,40.33,3.758v9.4a3.758,3.758,0,0,1-3.758,3.758H3.759A3.759,3.759,0,0,1,0,13.155v-9.4A3.758,3.758,0,0,1,3.758,0Z" transform="translate(1117.355 2067.086)" fill="#333"/>
    <path id="Rectangle_521" data-name="Rectangle 521" d="M3.759,0H36.572A3.758,3.758,0,0,1,40.33,3.758v9.4a3.759,3.759,0,0,1-3.759,3.759H3.759A3.759,3.759,0,0,1,0,13.155v-9.4A3.759,3.759,0,0,1,3.759,0Z" transform="translate(1117.355 2087.71)" fill="#333"/>
    <path id="Rectangle_522" data-name="Rectangle 522" d="M3.759,0H36.572A3.758,3.758,0,0,1,40.33,3.758v9.4a3.758,3.758,0,0,1-3.758,3.758H3.759A3.759,3.759,0,0,1,0,13.155v-9.4A3.759,3.759,0,0,1,3.759,0Z" transform="translate(1117.355 2108.335)" fill="#333"/>
    <path id="Rectangle_523" data-name="Rectangle 523" d="M3.759,0H36.572A3.758,3.758,0,0,1,40.33,3.758v9.4a3.758,3.758,0,0,1-3.758,3.758H3.759A3.759,3.759,0,0,1,0,13.155v-9.4A3.759,3.759,0,0,1,3.759,0Z" transform="translate(1117.355 2128.959)" fill="#333"/>
    <path id="Rectangle_524" data-name="Rectangle 524" d="M3.759,0H36.572A3.758,3.758,0,0,1,40.33,3.758v9.4a3.759,3.759,0,0,1-3.759,3.759H3.759A3.759,3.759,0,0,1,0,13.155v-9.4A3.759,3.759,0,0,1,3.759,0Z" transform="translate(1117.355 2149.583)" fill="#333"/>
    <path id="Rectangle_525" data-name="Rectangle 525" d="M3.759,0H36.572A3.758,3.758,0,0,1,40.33,3.758v9.4a3.759,3.759,0,0,1-3.759,3.759H3.759A3.759,3.759,0,0,1,0,13.155v-9.4A3.759,3.759,0,0,1,3.759,0Z" transform="translate(1117.355 2170.208)" fill="#333"/>
    <path id="Rectangle_526" data-name="Rectangle 526" d="M3.759,0H36.572A3.758,3.758,0,0,1,40.33,3.758v9.4a3.758,3.758,0,0,1-3.758,3.758H3.759A3.759,3.759,0,0,1,0,13.155v-9.4A3.759,3.759,0,0,1,3.759,0Z" transform="translate(1117.355 2190.833)" fill="#333"/>
    <path id="Rectangle_527" data-name="Rectangle 527" d="M3.758,0H36.572A3.758,3.758,0,0,1,40.33,3.758v9.4a3.758,3.758,0,0,1-3.758,3.758H3.759A3.759,3.759,0,0,1,0,13.155v-9.4A3.758,3.758,0,0,1,3.758,0Z" transform="translate(1117.355 2211.457)" fill="#333"/>
    <path id="Rectangle_528" data-name="Rectangle 528" d="M3.758,0H36.572A3.758,3.758,0,0,1,40.33,3.758v9.4a3.758,3.758,0,0,1-3.758,3.758H3.759A3.759,3.759,0,0,1,0,13.155v-9.4A3.758,3.758,0,0,1,3.758,0Z" transform="translate(1117.355 2232.081)" fill="#333"/>
    <path id="Rectangle_529" data-name="Rectangle 529" d="M3.759,0H36.572A3.758,3.758,0,0,1,40.33,3.758v9.4a3.758,3.758,0,0,1-3.758,3.758H3.759A3.759,3.759,0,0,1,0,13.155v-9.4A3.759,3.759,0,0,1,3.759,0Z" transform="translate(1117.355 2252.705)" fill="#333"/>
    <path id="Rectangle_530" data-name="Rectangle 530" d="M3.758,0H36.572A3.758,3.758,0,0,1,40.33,3.758v9.4a3.758,3.758,0,0,1-3.758,3.758H3.759A3.759,3.759,0,0,1,0,13.155v-9.4A3.758,3.758,0,0,1,3.758,0Z" transform="translate(1117.355 2273.33)" fill="#333"/>
    <path id="Rectangle_531" data-name="Rectangle 531" d="M3.759,0H36.572A3.758,3.758,0,0,1,40.33,3.758v9.4a3.759,3.759,0,0,1-3.759,3.759H3.759A3.759,3.759,0,0,1,0,13.155v-9.4A3.759,3.759,0,0,1,3.759,0Z" transform="translate(1117.355 2293.954)" fill="#333"/>
    <path id="Rectangle_532" data-name="Rectangle 532" d="M3.759,0H36.572A3.758,3.758,0,0,1,40.33,3.758v9.4a3.759,3.759,0,0,1-3.759,3.759H3.759A3.759,3.759,0,0,1,0,13.155v-9.4A3.759,3.759,0,0,1,3.759,0Z" transform="translate(1117.355 2314.579)" fill="#333"/>
    <path id="Rectangle_533" data-name="Rectangle 533" d="M3.759,0H36.572A3.758,3.758,0,0,1,40.33,3.758v9.4a3.758,3.758,0,0,1-3.758,3.758H3.759A3.759,3.759,0,0,1,0,13.155v-9.4A3.759,3.759,0,0,1,3.759,0Z" transform="translate(1117.355 2335.203)" fill="#333"/>
  </g>
</svg>
