<svg xmlns="http://www.w3.org/2000/svg" xmlns:xlink="http://www.w3.org/1999/xlink" width="40.33" height="841.889" viewBox="0 0 40.33 841.889">
  <defs>
    <linearGradient id="linear-gradient" x1="0.5" y1="0.008" x2="0.5" y2="1" gradientUnits="objectBoundingBox">
      <stop offset="0" stop-color="#16984e"/>
      <stop offset="1" stop-color="#59c26e"/>
    </linearGradient>
  </defs>
  <path id="Path_37" data-name="Path 37" d="M1186.127,1510.228h32.813a3.769,3.769,0,0,1,3.758,3.758v9.4a3.769,3.769,0,0,1-3.758,3.758h-32.813a3.769,3.769,0,0,1-3.759-3.758v-9.4a3.769,3.769,0,0,1,3.759-3.758Zm0,20.624h32.813a3.769,3.769,0,0,1,3.758,3.758v9.4a3.77,3.77,0,0,1-3.758,3.759h-32.813a3.77,3.77,0,0,1-3.759-3.759v-9.4a3.769,3.769,0,0,1,3.759-3.758Zm0,20.624h32.813a3.769,3.769,0,0,1,3.758,3.759v9.4a3.769,3.769,0,0,1-3.758,3.759h-32.813a3.769,3.769,0,0,1-3.759-3.759v-9.4a3.769,3.769,0,0,1,3.759-3.759Zm0,20.625h32.813a3.769,3.769,0,0,1,3.758,3.758v9.4a3.769,3.769,0,0,1-3.758,3.758h-32.813a3.769,3.769,0,0,1-3.759-3.758v-9.4a3.769,3.769,0,0,1,3.759-3.758Zm0,20.624h32.813a3.769,3.769,0,0,1,3.758,3.759v9.4a3.769,3.769,0,0,1-3.758,3.759h-32.813a3.769,3.769,0,0,1-3.759-3.759v-9.4a3.769,3.769,0,0,1,3.759-3.759Zm0,20.624h32.813a3.769,3.769,0,0,1,3.758,3.759v9.4a3.769,3.769,0,0,1-3.758,3.758h-32.813a3.769,3.769,0,0,1-3.759-3.758v-9.4a3.769,3.769,0,0,1,3.759-3.759Zm0,20.625h32.813a3.769,3.769,0,0,1,3.758,3.758v9.4a3.769,3.769,0,0,1-3.758,3.758h-32.813a3.769,3.769,0,0,1-3.759-3.758v-9.4a3.769,3.769,0,0,1,3.759-3.758Zm0,20.624h32.813a3.769,3.769,0,0,1,3.758,3.759v9.4a3.769,3.769,0,0,1-3.758,3.758h-32.813a3.769,3.769,0,0,1-3.759-3.758v-9.4a3.769,3.769,0,0,1,3.759-3.759Zm0,20.625h32.813a3.769,3.769,0,0,1,3.758,3.758v9.4a3.769,3.769,0,0,1-3.758,3.758h-32.813a3.769,3.769,0,0,1-3.759-3.758v-9.4a3.769,3.769,0,0,1,3.759-3.758Zm0,20.624h32.813a3.769,3.769,0,0,1,3.758,3.758v9.4a3.77,3.77,0,0,1-3.758,3.759h-32.813a3.77,3.77,0,0,1-3.759-3.759v-9.4a3.769,3.769,0,0,1,3.759-3.758Zm0,20.624h32.813a3.769,3.769,0,0,1,3.758,3.759v9.4a3.769,3.769,0,0,1-3.758,3.758h-32.813a3.769,3.769,0,0,1-3.759-3.758v-9.4a3.769,3.769,0,0,1,3.759-3.759Zm0,20.625h32.813a3.769,3.769,0,0,1,3.758,3.758v9.4a3.769,3.769,0,0,1-3.758,3.758h-32.813a3.769,3.769,0,0,1-3.759-3.758v-9.4a3.769,3.769,0,0,1,3.759-3.758Zm0,20.624h32.813a3.769,3.769,0,0,1,3.758,3.759v9.4a3.769,3.769,0,0,1-3.758,3.759h-32.813a3.769,3.769,0,0,1-3.759-3.759v-9.4a3.769,3.769,0,0,1,3.759-3.759Zm0,20.624h32.813a3.77,3.77,0,0,1,3.758,3.759v9.4a3.769,3.769,0,0,1-3.758,3.758h-32.813a3.769,3.769,0,0,1-3.759-3.758v-9.4a3.77,3.77,0,0,1,3.759-3.759Zm0,20.625h32.813a3.769,3.769,0,0,1,3.758,3.759v9.4a3.769,3.769,0,0,1-3.758,3.758h-32.813a3.769,3.769,0,0,1-3.759-3.758v-9.4a3.769,3.769,0,0,1,3.759-3.759Zm0,20.624h32.813a3.769,3.769,0,0,1,3.758,3.759v9.4a3.769,3.769,0,0,1-3.758,3.758h-32.813a3.769,3.769,0,0,1-3.759-3.758v-9.4a3.769,3.769,0,0,1,3.759-3.759Zm0,20.625h32.813a3.769,3.769,0,0,1,3.758,3.758v9.4a3.769,3.769,0,0,1-3.758,3.758h-32.813a3.769,3.769,0,0,1-3.759-3.758v-9.4a3.769,3.769,0,0,1,3.759-3.758Zm0,20.624h32.813a3.769,3.769,0,0,1,3.758,3.759v9.4a3.769,3.769,0,0,1-3.758,3.759h-32.813a3.769,3.769,0,0,1-3.759-3.759v-9.4a3.769,3.769,0,0,1,3.759-3.759Zm0,20.625h32.813a3.769,3.769,0,0,1,3.758,3.758v9.4a3.769,3.769,0,0,1-3.758,3.758h-32.813a3.769,3.769,0,0,1-3.759-3.758v-9.4a3.769,3.769,0,0,1,3.759-3.758Zm0,20.624h32.813a3.769,3.769,0,0,1,3.758,3.758v9.4a3.768,3.768,0,0,1-3.758,3.758h-32.813a3.768,3.768,0,0,1-3.759-3.758v-9.4a3.769,3.769,0,0,1,3.759-3.758Zm0,20.624h32.813a3.769,3.769,0,0,1,3.758,3.759v9.4a3.769,3.769,0,0,1-3.758,3.758h-32.813a3.769,3.769,0,0,1-3.759-3.758v-9.4a3.769,3.769,0,0,1,3.759-3.759Zm0,20.625h32.813a3.769,3.769,0,0,1,3.758,3.758v9.4a3.769,3.769,0,0,1-3.758,3.758h-32.813a3.769,3.769,0,0,1-3.759-3.758v-9.4a3.769,3.769,0,0,1,3.759-3.758Zm0,20.624h32.813a3.769,3.769,0,0,1,3.758,3.759v9.4a3.77,3.77,0,0,1-3.758,3.759h-32.813a3.77,3.77,0,0,1-3.759-3.759v-9.4a3.769,3.769,0,0,1,3.759-3.759Zm0,20.624h32.813a3.77,3.77,0,0,1,3.758,3.759v9.4a3.769,3.769,0,0,1-3.758,3.758h-32.813a3.769,3.769,0,0,1-3.759-3.758v-9.4a3.77,3.77,0,0,1,3.759-3.759Zm0,20.625h32.813a3.769,3.769,0,0,1,3.758,3.758v9.4a3.77,3.77,0,0,1-3.758,3.759h-32.813a3.77,3.77,0,0,1-3.759-3.759v-9.4a3.769,3.769,0,0,1,3.759-3.758Zm0,20.624h32.813a3.769,3.769,0,0,1,3.758,3.759v9.4a3.769,3.769,0,0,1-3.758,3.758h-32.813a3.769,3.769,0,0,1-3.759-3.758v-9.4a3.769,3.769,0,0,1,3.759-3.759Zm0,20.625h32.813a3.769,3.769,0,0,1,3.758,3.758v9.4a3.769,3.769,0,0,1-3.758,3.758h-32.813a3.769,3.769,0,0,1-3.759-3.758v-9.4a3.769,3.769,0,0,1,3.759-3.758Zm0,20.624h32.813a3.769,3.769,0,0,1,3.758,3.758v9.4a3.769,3.769,0,0,1-3.758,3.759h-32.813a3.769,3.769,0,0,1-3.759-3.759v-9.4a3.769,3.769,0,0,1,3.759-3.758Zm0,20.624h32.813a3.769,3.769,0,0,1,3.758,3.759v9.4a3.769,3.769,0,0,1-3.758,3.758h-32.813a3.769,3.769,0,0,1-3.759-3.758v-9.4a3.769,3.769,0,0,1,3.759-3.759Zm0,20.625h32.813a3.769,3.769,0,0,1,3.758,3.758v9.4a3.769,3.769,0,0,1-3.758,3.758h-32.813a3.769,3.769,0,0,1-3.759-3.758v-9.4a3.769,3.769,0,0,1,3.759-3.758Zm0,20.624h32.813a3.769,3.769,0,0,1,3.758,3.759v9.4a3.769,3.769,0,0,1-3.758,3.759h-32.813a3.769,3.769,0,0,1-3.759-3.759v-9.4a3.769,3.769,0,0,1,3.759-3.759Zm0,20.625h32.813a3.769,3.769,0,0,1,3.758,3.758v9.4a3.769,3.769,0,0,1-3.758,3.758h-32.813a3.769,3.769,0,0,1-3.759-3.758v-9.4a3.769,3.769,0,0,1,3.759-3.758Zm0,20.624h32.813a3.769,3.769,0,0,1,3.758,3.759v9.4a3.769,3.769,0,0,1-3.758,3.759h-32.813a3.769,3.769,0,0,1-3.759-3.759v-9.4a3.769,3.769,0,0,1,3.759-3.759Zm0,20.624h32.813a3.77,3.77,0,0,1,3.758,3.759v9.4a3.769,3.769,0,0,1-3.758,3.758h-32.813a3.769,3.769,0,0,1-3.759-3.758v-9.4a3.77,3.77,0,0,1,3.759-3.759Zm0,20.625h32.813a3.769,3.769,0,0,1,3.758,3.758v9.4a3.769,3.769,0,0,1-3.758,3.758h-32.813a3.769,3.769,0,0,1-3.759-3.758v-9.4a3.769,3.769,0,0,1,3.759-3.758Zm0,20.624h32.813a3.769,3.769,0,0,1,3.758,3.759v9.4a3.769,3.769,0,0,1-3.758,3.759h-32.813a3.769,3.769,0,0,1-3.759-3.759v-9.4a3.769,3.769,0,0,1,3.759-3.759Zm0,20.624h32.813a3.769,3.769,0,0,1,3.758,3.759v9.4a3.769,3.769,0,0,1-3.758,3.758h-32.813a3.769,3.769,0,0,1-3.759-3.758v-9.4a3.769,3.769,0,0,1,3.759-3.759Zm0,20.625h32.813a3.769,3.769,0,0,1,3.758,3.758v9.4a3.77,3.77,0,0,1-3.758,3.759h-32.813a3.77,3.77,0,0,1-3.759-3.759v-9.4a3.769,3.769,0,0,1,3.759-3.758Zm0,20.624h32.813a3.769,3.769,0,0,1,3.758,3.759v9.4a3.769,3.769,0,0,1-3.758,3.758h-32.813a3.769,3.769,0,0,1-3.759-3.758v-9.4a3.769,3.769,0,0,1,3.759-3.759Zm0,20.625h32.813a3.769,3.769,0,0,1,3.758,3.758v9.4a3.769,3.769,0,0,1-3.758,3.758h-32.813a3.769,3.769,0,0,1-3.759-3.758v-9.4a3.769,3.769,0,0,1,3.759-3.758Zm0,20.624h32.813a3.769,3.769,0,0,1,3.758,3.759v9.4a3.77,3.77,0,0,1-3.758,3.758h-32.813a3.77,3.77,0,0,1-3.759-3.758v-9.4A3.769,3.769,0,0,1,1186.127,2335.2Z" transform="translate(-1182.368 -1510.228)" fill-rule="evenodd" fill="url(#linear-gradient)"/>
</svg>
