<svg xmlns="http://www.w3.org/2000/svg" width="655.547" height="656.454" viewBox="0 0 655.547 656.454">
  <g id="Group_68" data-name="Group 68" transform="translate(155.814 -1652.041)">
    <circle id="Ellipse_10" data-name="Ellipse 10" cx="136.925" cy="136.925" r="136.925" transform="translate(-155.814 2114.854) rotate(-45)" fill="#f63"/>
    <path id="Path_113" data-name="Path 113" d="M415.81,1711.453l27.492,27.426c12.813,12.781,15.108,30.733,5.908,40.66L109.742,2145.685c-9.2,9.93-27.867,6.967-40.674-5.809l-56.333-56.2C-.073,2070.9-3.16,2052.168,6.827,2043.02l368.309-337.376C385.123,1696.5,403,1698.672,415.81,1711.453Z" fill="#f63" fill-rule="evenodd"/>
    <circle id="Ellipse_11" data-name="Ellipse 11" cx="94.995" cy="94.995" r="94.995" transform="translate(-96.516 2114.854) rotate(-45)"/>
    <circle id="Ellipse_12" data-name="Ellipse 12" cx="80.96" cy="80.96" r="80.96" transform="translate(319.832 1671.154) rotate(-6.779)"/>
    <circle id="Ellipse_13" data-name="Ellipse 13" cx="56.595" cy="56.595" r="56.595" transform="translate(-18.768 2058.258)" fill="#333"/>
    <path id="Path_114" data-name="Path 114" d="M56.61,2096.025A26.6,26.6,0,1,1,19,2096.07,26.6,26.6,0,0,1,56.61,2096.025Z" fill="#b2b2b2" fill-rule="evenodd"/>
    <circle id="Ellipse_14" data-name="Ellipse 14" cx="43.932" cy="43.932" r="43.932" transform="translate(355.515 1711.74) rotate(-15.863)" fill="#333"/>
  </g>
</svg>
