<svg xmlns="http://www.w3.org/2000/svg" width="80.917" height="841.89" viewBox="0 0 80.917 841.89">
  <g id="Group_67" data-name="Group 67" transform="translate(-845.692 -1510.527)">
    <path id="Path_92" data-name="Path 92" d="M905.122,2200.64v132.805a17.762,17.762,0,0,1-17.786,17.786h-2.371a17.762,17.762,0,0,1-17.787-17.786V2200.64Z" fill="#e5e5e5" stroke="#329e61" stroke-linecap="round" stroke-linejoin="round" stroke-width="2.372" fill-rule="evenodd"/>
    <path id="Path_93" data-name="Path 93" d="M905.122,2214.453v118.992a17.762,17.762,0,0,1-17.786,17.786h-2.371a17.762,17.762,0,0,1-17.787-17.786v-11.24a25.936,25.936,0,0,1,5.132-3.963c20.871-12.6-11.307-28.939,17.074-45.652,14.021-8.256-15.516-32.541,12.129-53.777A14.917,14.917,0,0,0,905.122,2214.453Z" fill="#329e61" fill-rule="evenodd"/>
    <path id="Path_94" data-name="Path 94" d="M905.122,2229.811v103.634a17.762,17.762,0,0,1-17.786,17.786h-2.371a17.76,17.76,0,0,1-17.756-16.753c45.356-14.969,1.65-38.943,26.505-54.413,7.429-4.625,7.863-20.621,6.145-28.329C896.52,2236.748,901.409,2232.75,905.122,2229.811Z" fill="#e5e5e5" stroke="#329e61" stroke-linecap="round" stroke-linejoin="round" stroke-width="2.372" fill-rule="evenodd"/>
    <rect id="Rectangle_535" data-name="Rectangle 535" width="30.83" height="69.96" transform="translate(870.735 2130.68)" fill="#dadec5" stroke="#329e61" stroke-linejoin="round" stroke-width="2.372"/>
    <rect id="Rectangle_536" data-name="Rectangle 536" width="16.601" height="69.96" transform="translate(884.965 2130.68)" fill="#252525" opacity="0.102"/>
    <path id="Path_95" data-name="Path 95" d="M877.85,1839.931l2.965-144.662,2.371-5.692-2.846-5.692.593-131.263,2.491-4.981-1.9-5.81v-21.225c0-4.861.474-8.893,5.336-8.893s5.336,4.032,5.336,8.893l2.371,610.074H876.783l.474-124.031,4.743-6.4-4.032-6.4V1852.026l4.624-5.929Z" fill="#cbcbcb" fill-rule="evenodd"/>
    <path id="Path_96" data-name="Path 96" d="M880.221,1541.357l.119-20.751c0-4.861,1.542-8.893,6.4-8.893m0,0c4.862,0,6.522,3.913,6.522,8.893l2.371,610.074H877.85l.474-116.2" fill="none" stroke="#329e61" stroke-miterlimit="22.926" stroke-width="2.372" fill-rule="evenodd"/>
    <line id="Line_5" data-name="Line 5" y1="130.434" x2="0.474" transform="translate(879.036 1553.214)" fill="none" stroke="#329e61" stroke-miterlimit="22.926" stroke-width="2.372"/>
    <line id="Line_6" data-name="Line 6" y1="144.663" x2="0.593" transform="translate(879.036 1695.506)" fill="none" stroke="#329e61" stroke-miterlimit="22.926" stroke-width="2.372"/>
    <line id="Line_7" data-name="Line 7" y1="132.805" x2="0.474" transform="translate(877.85 1852.026)" fill="none" stroke="#329e61" stroke-miterlimit="22.926" stroke-width="2.372"/>
    <g id="Group_62" data-name="Group 62">
      <path id="Path_97" data-name="Path 97" d="M886.743,1511.713c4.862,0,6.522,4.032,6.522,8.893l2.371,610.074H886.15Zm0,0Z" fill="#b2b2b2" fill-rule="evenodd"/>
    </g>
    <g id="Group_63" data-name="Group 63">
      <path id="Path_98" data-name="Path 98" d="M886.032,1837.678a15.2,15.2,0,0,0-12.925-7A15.415,15.415,0,1,0,886.15,1854.4l-.118-16.719Zm-12.925,16.72a8.3,8.3,0,1,1,8.3-8.3A8.249,8.249,0,0,1,873.107,1854.4Z" fill="#cbcbcb" fill-rule="evenodd"/>
    </g>
    <path id="Path_99" data-name="Path 99" d="M886.15,1854.4a15.378,15.378,0,1,1-4.742-21.225,13.317,13.317,0,0,1,3.082,2.608,13,13,0,0,1,1.542,2.016" fill="none" stroke="#329e61" stroke-linecap="round" stroke-miterlimit="22.926" stroke-width="2.372" fill-rule="evenodd"/>
    <path id="Path_100" data-name="Path 100" d="M873.107,1837.8a8.3,8.3,0,1,1-8.3,8.3A8.177,8.177,0,0,1,873.107,1837.8Z" fill="none" stroke="#329e61" stroke-miterlimit="22.926" stroke-width="2.372" fill-rule="evenodd"/>
    <g id="Group_64" data-name="Group 64">
      <path id="Path_101" data-name="Path 101" d="M886.387,1682.225A13.532,13.532,0,1,0,875,1703.094a13.3,13.3,0,0,0,11.383-6.284v-14.585ZM875,1696.81a7.233,7.233,0,1,1,7.233-7.233A7.186,7.186,0,0,1,875,1696.81Z" fill="#cbcbcb" fill-rule="evenodd"/>
    </g>
    <path id="Path_102" data-name="Path 102" d="M886.387,1696.81a13.569,13.569,0,1,1-4.15-18.735,12.564,12.564,0,0,1,2.727,2.253,16.908,16.908,0,0,1,1.3,1.779" fill="none" stroke="#329e61" stroke-linecap="round" stroke-miterlimit="22.926" stroke-width="2.372" fill-rule="evenodd"/>
    <circle id="Ellipse_6" data-name="Ellipse 6" cx="7.233" cy="7.233" r="7.233" transform="translate(864.775 1689.577) rotate(-45)" fill="none" stroke="#329e61" stroke-miterlimit="22.926" stroke-width="2.372"/>
    <g id="Group_65" data-name="Group 65">
      <path id="Path_103" data-name="Path 103" d="M886.862,1541.12a11.354,11.354,0,1,0-9.486,17.549,11.349,11.349,0,0,0,9.367-4.98l.119-12.569Zm-9.6,12.332a6.166,6.166,0,1,1,6.166-6.166A6.125,6.125,0,0,1,877.257,1553.452Z" fill="#cbcbcb" fill-rule="evenodd"/>
    </g>
    <path id="Path_104" data-name="Path 104" d="M886.862,1553.333a11.35,11.35,0,1,1-3.557-15.652,11.937,11.937,0,0,1,2.253,1.9,12.5,12.5,0,0,1,1.185,1.423" fill="none" stroke="#329e61" stroke-linecap="round" stroke-miterlimit="22.926" stroke-width="2.372" fill-rule="evenodd"/>
    <path id="Path_105" data-name="Path 105" d="M883.424,1547.285a6.166,6.166,0,1,0-6.166,6.166A6.177,6.177,0,0,0,883.424,1547.285Z" fill="none" stroke="#329e61" stroke-miterlimit="22.926" stroke-width="2.372" fill-rule="evenodd"/>
    <line id="Line_8" data-name="Line 8" y1="11.858" x2="0.118" transform="translate(877.257 1541.357)" fill="none" stroke="#329e61" stroke-miterlimit="22.926" stroke-width="1.186"/>
    <path id="Path_106" data-name="Path 106" d="M874.886,1696.691v-2.371c-6.473-46.669-7.157-92.182,2.371-135.651" fill="none" stroke="#329e61" stroke-miterlimit="22.926" stroke-width="1.186" fill-rule="evenodd"/>
    <path id="Path_107" data-name="Path 107" d="M873.7,1853.805v-3.439c-14.42-49.249-15.269-98.5.711-147.746" fill="none" stroke="#329e61" stroke-miterlimit="22.926" stroke-width="1.186" fill-rule="evenodd"/>
    <g id="Group_66" data-name="Group 66">
      <path id="Path_108" data-name="Path 108" d="M886.032,1991.827a15.2,15.2,0,0,0-12.925-7,15.415,15.415,0,1,0,13.043,23.715l-.118-16.719Zm-12.925,16.719a8.3,8.3,0,1,1,8.3-8.3A8.249,8.249,0,0,1,873.107,2008.546Z" fill="#cbcbcb" fill-rule="evenodd"/>
    </g>
    <path id="Path_109" data-name="Path 109" d="M886.15,2008.546a15.378,15.378,0,1,1-4.742-21.225,13.315,13.315,0,0,1,3.082,2.609,12.9,12.9,0,0,1,1.542,2.016" fill="none" stroke="#329e61" stroke-linecap="round" stroke-miterlimit="22.926" stroke-width="2.372" fill-rule="evenodd"/>
    <path id="Path_110" data-name="Path 110" d="M881.408,2000.246a8.3,8.3,0,1,0-8.3,8.3A8.316,8.316,0,0,0,881.408,2000.246Z" fill="none" stroke="#329e61" stroke-miterlimit="22.926" stroke-width="2.372" fill-rule="evenodd"/>
    <path id="Path_111" data-name="Path 111" d="M873.107,2007.954V2005.7c-9.679-48.389-13.845-96.6,1.3-144.189" fill="none" stroke="#329e61" stroke-miterlimit="22.926" stroke-width="1.186" fill-rule="evenodd"/>
    <path id="Path_112" data-name="Path 112" d="M873.107,2005.7s-33.285,103.883-6.239,154.186" fill="none" stroke="#329e61" stroke-miterlimit="22.926" stroke-width="1.186" fill-rule="evenodd"/>
    <circle id="Ellipse_7" data-name="Ellipse 7" cx="40.459" cy="40.459" r="40.459" transform="translate(845.692 2088.464)" fill="#184d2e"/>
    <circle id="Ellipse_8" data-name="Ellipse 8" cx="30.968" cy="30.968" r="30.968" transform="matrix(0.974, -0.227, 0.227, 0.974, 848.968, 2105.783)" fill="#329e61"/>
    <circle id="Ellipse_9" data-name="Ellipse 9" cx="23.023" cy="23.023" r="23.023" transform="translate(863.128 2105.899)" fill="#dadec5" stroke="#329e61" stroke-linejoin="round" stroke-width="2.372"/>
  </g>
</svg>
