<?xml version="1.0" encoding="utf-8"?>
<!-- Generator: Adobe Illustrator 22.1.0, SVG Export Plug-In . SVG Version: 6.00 Build 0)  -->
<svg version="1.1" id="Layer_1" xmlns="http://www.w3.org/2000/svg" xmlns:xlink="http://www.w3.org/1999/xlink" x="0px" y="0px"
	 viewBox="0 0 73 708" style="enable-background:new 0 0 73 708;" xml:space="preserve">
<style type="text/css">
	.st0{opacity:0.3;fill:#FFFFFF;enable-background:new    ;}
	.st1{opacity:0.1;fill:#FFFFFF;enable-background:new    ;}
</style>
<path class="st0" d="M71,10.3c-0.6-3.7-3.8-6.6-7.7-6.6c-8.6-1.2-17.4-1.9-26.1-2C28,1.9,18.8,2.6,9.7,3.8c-4.3,0-7.8,3.5-7.8,7.8
	v55.1C14.8,5.2,56.6,7.6,71,10.3z"/>
<path id="Rounded_Rectangle_1" class="st1" d="M37.4,2h-0.7C27.8,2.1,18.5,2.5,9.7,3.8C4.5,3.9,1.6,7.9,2,12v688
	c0.7,3.1,3.2,6.5,8,6c0,0,13.2-1,26.7-1"/>
</svg>
